<svg width="466" height="447" viewBox="0 0 466 447" fill="none" xmlns="http://www.w3.org/2000/svg">
<path d="M135.963 131.994C136.037 132.135 136.212 132.188 136.353 132.113C136.494 132.038 136.548 131.863 136.473 131.723C136.399 131.582 136.224 131.529 136.083 131.604C135.942 131.679 135.888 131.854 135.963 131.994Z" fill="white"/>
<path d="M137.902 133.617C137.976 133.758 138.151 133.811 138.292 133.736C138.433 133.661 138.487 133.486 138.412 133.346C138.338 133.206 138.163 133.153 138.022 133.228C137.881 133.302 137.827 133.477 137.902 133.617Z" fill="white"/>
<path d="M123.016 120.578C123.162 120.501 123.33 120.551 123.407 120.697C123.484 120.842 123.433 121.009 123.287 121.086C123.141 121.164 122.973 121.113 122.896 120.968C122.819 120.823 122.871 120.656 123.016 120.578Z" fill="white"/>
<path d="M119.738 104.208C119.884 104.13 120.052 104.181 120.129 104.326C120.206 104.471 120.155 104.639 120.009 104.716C119.863 104.794 119.695 104.743 119.618 104.598C119.541 104.453 119.593 104.285 119.738 104.208Z" fill="white"/>
<path d="M136.486 113.975C136.561 114.116 136.735 114.168 136.876 114.094C137.017 114.019 137.071 113.844 136.997 113.704C136.922 113.563 136.747 113.51 136.606 113.585C136.465 113.66 136.411 113.835 136.486 113.975Z" fill="white"/>
<path d="M144.378 112.014C144.453 112.154 144.627 112.207 144.768 112.132C144.909 112.057 144.963 111.883 144.888 111.743C144.814 111.602 144.639 111.549 144.498 111.624C144.357 111.699 144.303 111.874 144.378 112.014Z" fill="white"/>
<path d="M126.51 88.9664C126.584 89.1067 126.759 89.1597 126.9 89.0847C127.041 89.0098 127.095 88.8352 127.02 88.6949C126.946 88.5546 126.771 88.5016 126.63 88.5765C126.489 88.6515 126.435 88.826 126.51 88.9664Z" fill="white"/>
<path d="M130.534 85.0104C130.609 85.1508 130.784 85.2038 130.925 85.1288C131.066 85.0539 131.12 84.8793 131.045 84.739C130.97 84.5986 130.796 84.5456 130.655 84.6206C130.514 84.6956 130.46 84.8701 130.534 85.0104Z" fill="white"/>
<path d="M132.557 107.729C132.703 107.652 132.87 107.703 132.947 107.848C133.025 107.993 132.973 108.16 132.827 108.238C132.681 108.315 132.514 108.264 132.437 108.119C132.36 107.974 132.411 107.807 132.557 107.729Z" fill="white"/>
<path d="M86.4126 84.8159C86.5585 84.7383 86.7258 84.7891 86.803 84.9343C86.8802 85.0795 86.8287 85.2466 86.6828 85.3241C86.537 85.4017 86.3696 85.351 86.2924 85.2058C86.2152 85.0605 86.3032 84.8741 86.4126 84.8159Z" fill="white"/>
<path d="M155.816 70.3575C155.962 70.28 156.129 70.3307 156.206 70.4759C156.283 70.6211 156.232 70.7882 156.086 70.8658C155.94 70.9433 155.773 70.8926 155.695 70.7474C155.618 70.6022 155.67 70.4351 155.816 70.3575Z" fill="white"/>
<path d="M154.832 139.33C154.978 139.252 155.145 139.303 155.223 139.448C155.3 139.593 155.248 139.76 155.102 139.838C154.957 139.915 154.789 139.865 154.712 139.719C154.671 139.555 154.723 139.388 154.832 139.33Z" fill="white"/>
<path d="M85.6199 134.968C85.7658 134.89 85.9331 134.941 86.0103 135.086C86.0875 135.231 86.036 135.398 85.8902 135.476C85.7443 135.554 85.577 135.503 85.4998 135.358C85.4226 135.212 85.4741 135.045 85.6199 134.968Z" fill="white"/>
<path d="M122.804 78.8299C122.95 78.7524 123.117 78.8031 123.195 78.9483C123.272 79.0935 123.22 79.2606 123.075 79.3382C122.929 79.4157 122.761 79.365 122.684 79.2198C122.607 79.0746 122.658 78.9075 122.804 78.8299Z" fill="white"/>
<path d="M140.5 131.025C140.574 131.166 140.749 131.219 140.89 131.144C141.031 131.069 141.085 130.894 141.01 130.754C140.936 130.614 140.761 130.561 140.62 130.636C140.479 130.711 140.425 130.885 140.5 131.025Z" fill="white"/>
<path d="M92.8648 105.925C92.9394 106.065 93.1142 106.118 93.2552 106.043C93.3962 105.968 93.45 105.793 93.3754 105.653C93.3008 105.513 93.126 105.46 92.985 105.535C92.844 105.61 92.7902 105.784 92.8648 105.925Z" fill="white"/>
<path d="M112.482 142.291C112.628 142.213 112.795 142.264 112.872 142.409C112.949 142.554 112.898 142.721 112.752 142.799C112.606 142.877 112.439 142.826 112.362 142.681C112.284 142.535 112.336 142.368 112.482 142.291Z" fill="white"/>
<path d="M69.7792 109.399C69.9251 109.321 70.0924 109.372 70.1696 109.517C70.2468 109.662 70.1953 109.829 70.0495 109.907C69.9036 109.984 69.7363 109.934 69.6591 109.789C69.5819 109.643 69.6334 109.476 69.7792 109.399Z" fill="white"/>
<path d="M129.545 130.657C129.62 130.798 129.794 130.851 129.935 130.776C130.076 130.701 130.13 130.526 130.055 130.386C129.981 130.245 129.806 130.192 129.665 130.267C129.524 130.342 129.47 130.517 129.545 130.657Z" fill="white"/>
<path d="M206.706 80.62C206.783 80.7647 206.731 80.9314 206.585 81.009C206.439 81.0866 206.272 81.0362 206.195 80.8914C206.118 80.7467 206.17 80.58 206.316 80.5024C206.425 80.4443 206.629 80.4752 206.706 80.62Z" fill="white"/>
<path d="M204.853 82.7656C204.93 82.9103 204.878 83.0771 204.732 83.1546C204.586 83.2322 204.419 83.1818 204.342 83.0371C204.265 82.8923 204.317 82.7256 204.463 82.6481C204.608 82.5705 204.776 82.6209 204.853 82.7656Z" fill="white"/>
<path d="M218.97 66.2085C219.047 66.3532 218.996 66.5199 218.85 66.5975C218.704 66.6751 218.537 66.6247 218.46 66.4799C218.383 66.3352 218.435 66.1685 218.58 66.0909C218.726 66.0134 218.893 66.0637 218.97 66.2085Z" fill="white"/>
<path d="M237.151 62.4827C237.228 62.6274 237.176 62.7941 237.03 62.8717C236.884 62.9492 236.717 62.8988 236.64 62.7541C236.563 62.6094 236.615 62.4427 236.761 62.3651C236.907 62.2875 237.074 62.3379 237.151 62.4827Z" fill="white"/>
<path d="M226.657 81.1044C226.734 81.2491 226.682 81.4158 226.536 81.4934C226.39 81.5709 226.223 81.5206 226.146 81.3758C226.069 81.2311 226.121 81.0644 226.267 80.9868C226.376 80.9286 226.58 80.9596 226.657 81.1044Z" fill="white"/>
<path d="M228.783 89.7666C228.86 89.9113 228.809 90.078 228.663 90.1556C228.517 90.2332 228.35 90.1828 228.273 90.0381C228.196 89.8933 228.248 89.7266 228.393 89.649C228.539 89.5715 228.706 89.6219 228.783 89.7666Z" fill="white"/>
<path d="M253.887 70.2924C253.961 70.4323 254.136 70.485 254.277 70.41C254.418 70.335 254.472 70.1609 254.397 70.021C254.323 69.8811 254.148 69.8285 254.007 69.9034C253.866 69.9784 253.812 70.1526 253.887 70.2924Z" fill="white"/>
<path d="M258.262 74.6496C258.336 74.7895 258.511 74.8421 258.652 74.7672C258.793 74.6922 258.847 74.518 258.772 74.3782C258.698 74.2383 258.523 74.1856 258.382 74.2606C258.241 74.3356 258.187 74.5097 258.262 74.6496Z" fill="white"/>
<path d="M233.199 76.6047C233.276 76.7495 233.224 76.9162 233.078 76.9937C232.932 77.0713 232.765 77.0209 232.688 76.8762C232.611 76.7315 232.663 76.5647 232.809 76.4872C232.918 76.429 233.122 76.46 233.199 76.6047Z" fill="white"/>
<path d="M258.833 25.7523C258.91 25.897 258.858 26.0638 258.712 26.1413C258.566 26.2189 258.399 26.1685 258.322 26.0238C258.245 25.879 258.297 25.7123 258.443 25.6348C258.569 25.521 258.756 25.6076 258.833 25.7523Z" fill="white"/>
<path d="M274.429 101.977C274.506 102.121 274.454 102.288 274.308 102.366C274.162 102.443 273.995 102.393 273.918 102.248C273.841 102.103 273.893 101.937 274.039 101.859C274.148 101.801 274.352 101.832 274.429 101.977Z" fill="white"/>
<path d="M197.535 101.555C197.609 101.695 197.784 101.747 197.925 101.672C198.066 101.597 198.12 101.423 198.046 101.283C197.971 101.143 197.797 101.091 197.656 101.166C197.515 101.241 197.461 101.415 197.535 101.555Z" fill="white"/>
<path d="M203.278 25.1697C203.355 25.3144 203.303 25.4811 203.157 25.5587C203.011 25.6362 202.844 25.5859 202.767 25.4411C202.69 25.2964 202.742 25.1297 202.888 25.0521C202.978 24.9578 203.201 25.0249 203.278 25.1697Z" fill="white"/>
<path d="M265.224 65.7495C265.301 65.8942 265.249 66.0609 265.103 66.1385C264.958 66.216 264.79 66.1657 264.713 66.0209C264.637 65.8762 264.688 65.7095 264.834 65.6319C264.961 65.5182 265.128 65.5686 265.224 65.7495Z" fill="white"/>
<path d="M207.245 85.8565C207.319 85.9964 207.493 86.049 207.634 85.9741C207.775 85.8991 207.829 85.725 207.755 85.5851C207.681 85.4452 207.506 85.3926 207.365 85.4675C207.224 85.5425 207.17 85.7167 207.245 85.8565Z" fill="white"/>
<path d="M235.314 33.3379C235.388 33.4777 235.563 33.5304 235.703 33.4554C235.844 33.3804 235.898 33.2063 235.824 33.0664C235.75 32.9265 235.575 32.8739 235.434 32.9488C235.293 33.0238 235.239 33.198 235.314 33.3379Z" fill="white"/>
<path d="M195.033 54.7088C195.11 54.8536 195.059 55.0203 194.913 55.0979C194.767 55.1754 194.6 55.125 194.523 54.9803C194.446 54.8356 194.498 54.6689 194.643 54.5913C194.753 54.5331 194.956 54.5641 195.033 54.7088Z" fill="white"/>
<path d="M208.248 73.5803C208.325 73.725 208.274 73.8918 208.128 73.9693C207.982 74.0469 207.815 73.9965 207.738 73.8518C207.661 73.707 207.713 73.5403 207.859 73.4628C208.004 73.3852 208.172 73.4356 208.248 73.5803Z" fill="white"/>
<path d="M194.706 162.62C194.783 162.765 194.731 162.931 194.585 163.009C194.439 163.087 194.272 163.036 194.195 162.891C194.118 162.747 194.17 162.58 194.316 162.502C194.425 162.444 194.629 162.475 194.706 162.62Z" fill="white"/>
<path d="M192.853 164.766C192.93 164.91 192.878 165.077 192.732 165.155C192.586 165.232 192.419 165.182 192.342 165.037C192.265 164.892 192.317 164.726 192.463 164.648C192.608 164.571 192.776 164.621 192.853 164.766Z" fill="white"/>
<path d="M206.97 148.208C207.047 148.353 206.996 148.52 206.85 148.597C206.704 148.675 206.537 148.625 206.46 148.48C206.383 148.335 206.435 148.168 206.58 148.091C206.726 148.013 206.893 148.064 206.97 148.208Z" fill="white"/>
<path d="M225.151 144.483C225.228 144.627 225.176 144.794 225.03 144.872C224.884 144.949 224.717 144.899 224.64 144.754C224.563 144.609 224.615 144.443 224.761 144.365C224.907 144.288 225.074 144.338 225.151 144.483Z" fill="white"/>
<path d="M214.657 163.104C214.734 163.249 214.682 163.416 214.536 163.493C214.39 163.571 214.223 163.521 214.146 163.376C214.069 163.231 214.121 163.064 214.267 162.987C214.376 162.929 214.58 162.96 214.657 163.104Z" fill="white"/>
<path d="M216.783 171.767C216.86 171.911 216.809 172.078 216.663 172.156C216.517 172.233 216.35 172.183 216.273 172.038C216.196 171.893 216.248 171.727 216.393 171.649C216.539 171.571 216.706 171.622 216.783 171.767Z" fill="white"/>
<path d="M241.887 152.292C241.961 152.432 242.136 152.485 242.277 152.41C242.418 152.335 242.472 152.161 242.397 152.021C242.323 151.881 242.148 151.828 242.007 151.903C241.866 151.978 241.812 152.153 241.887 152.292Z" fill="white"/>
<path d="M246.262 156.65C246.336 156.79 246.511 156.842 246.652 156.767C246.793 156.692 246.847 156.518 246.772 156.378C246.698 156.238 246.523 156.186 246.382 156.261C246.241 156.336 246.187 156.51 246.262 156.65Z" fill="white"/>
<path d="M221.199 158.605C221.276 158.749 221.224 158.916 221.078 158.994C220.932 159.071 220.765 159.021 220.688 158.876C220.611 158.731 220.663 158.565 220.809 158.487C220.918 158.429 221.122 158.46 221.199 158.605Z" fill="white"/>
<path d="M246.833 107.752C246.91 107.897 246.858 108.064 246.712 108.141C246.566 108.219 246.399 108.169 246.322 108.024C246.245 107.879 246.297 107.712 246.443 107.635C246.569 107.521 246.756 107.608 246.833 107.752Z" fill="white"/>
<path d="M262.429 183.977C262.506 184.121 262.454 184.288 262.308 184.366C262.162 184.443 261.995 184.393 261.918 184.248C261.841 184.103 261.893 183.937 262.039 183.859C262.148 183.801 262.352 183.832 262.429 183.977Z" fill="white"/>
<path d="M185.535 183.555C185.609 183.695 185.784 183.747 185.925 183.672C186.066 183.597 186.12 183.423 186.046 183.283C185.971 183.143 185.797 183.091 185.656 183.166C185.515 183.241 185.461 183.415 185.535 183.555Z" fill="white"/>
<path d="M191.278 107.17C191.355 107.314 191.303 107.481 191.157 107.559C191.011 107.636 190.844 107.586 190.767 107.441C190.69 107.296 190.742 107.13 190.888 107.052C190.978 106.958 191.201 107.025 191.278 107.17Z" fill="white"/>
<path d="M253.224 147.749C253.301 147.894 253.249 148.061 253.103 148.138C252.958 148.216 252.79 148.166 252.713 148.021C252.637 147.876 252.688 147.709 252.834 147.632C252.961 147.518 253.128 147.569 253.224 147.749Z" fill="white"/>
<path d="M195.245 167.857C195.319 167.996 195.493 168.049 195.634 167.974C195.775 167.899 195.829 167.725 195.755 167.585C195.681 167.445 195.506 167.393 195.365 167.468C195.224 167.542 195.17 167.717 195.245 167.857Z" fill="white"/>
<path d="M223.314 115.338C223.388 115.478 223.563 115.53 223.703 115.455C223.844 115.38 223.898 115.206 223.824 115.066C223.75 114.927 223.575 114.874 223.434 114.949C223.293 115.024 223.239 115.198 223.314 115.338Z" fill="white"/>
<path d="M183.033 136.709C183.11 136.854 183.059 137.02 182.913 137.098C182.767 137.175 182.6 137.125 182.523 136.98C182.446 136.836 182.498 136.669 182.643 136.591C182.753 136.533 182.956 136.564 183.033 136.709Z" fill="white"/>
<path d="M196.248 155.58C196.325 155.725 196.274 155.892 196.128 155.969C195.982 156.047 195.815 155.997 195.738 155.852C195.661 155.707 195.713 155.54 195.859 155.463C196.004 155.385 196.172 155.436 196.248 155.58Z" fill="white"/>
<path d="M176.472 121.301C176.542 121.431 176.702 121.481 176.831 121.412C176.96 121.343 177.009 121.182 176.94 121.052C176.871 120.922 176.71 120.873 176.581 120.941C176.452 121.01 176.403 121.171 176.472 121.301Z" fill="white"/>
<path d="M178.259 122.808C178.328 122.938 178.489 122.988 178.618 122.919C178.747 122.851 178.796 122.69 178.727 122.56C178.658 122.43 178.497 122.38 178.368 122.449C178.239 122.517 178.19 122.678 178.259 122.808Z" fill="white"/>
<path d="M164.539 110.702C164.673 110.631 164.827 110.678 164.898 110.813C164.97 110.947 164.923 111.101 164.79 111.172C164.656 111.243 164.502 111.196 164.431 111.061C164.359 110.927 164.406 110.773 164.539 110.702Z" fill="white"/>
<path d="M161.461 95.5667C161.595 95.4957 161.749 95.5432 161.82 95.6777C161.892 95.8121 161.845 95.9662 161.711 96.0373C161.578 96.1083 161.424 96.0607 161.353 95.9263C161.281 95.7918 161.328 95.6377 161.461 95.5667Z" fill="white"/>
<path d="M176.877 104.659C176.946 104.789 177.107 104.839 177.236 104.77C177.365 104.701 177.414 104.54 177.345 104.41C177.275 104.281 177.115 104.231 176.986 104.299C176.857 104.368 176.808 104.529 176.877 104.659Z" fill="white"/>
<path d="M184.114 102.881C184.183 103.011 184.344 103.06 184.473 102.992C184.602 102.923 184.65 102.762 184.581 102.632C184.512 102.502 184.352 102.453 184.222 102.521C184.093 102.59 184.045 102.751 184.114 102.881Z" fill="white"/>
<path d="M167.614 81.5167C167.683 81.6467 167.843 81.6964 167.972 81.6277C168.102 81.5591 168.15 81.3981 168.081 81.2681C168.012 81.1382 167.851 81.0885 167.722 81.1571C167.593 81.2258 167.545 81.3868 167.614 81.5167Z" fill="white"/>
<path d="M171.292 77.8795C171.361 78.0095 171.521 78.0592 171.651 77.9905C171.78 77.9219 171.828 77.7609 171.759 77.6309C171.69 77.501 171.529 77.4513 171.4 77.5199C171.271 77.5886 171.223 77.7496 171.292 77.8795Z" fill="white"/>
<path d="M173.244 98.8733C173.377 98.8023 173.531 98.8499 173.603 98.9843C173.674 99.1188 173.628 99.2729 173.494 99.3439C173.36 99.4149 173.207 99.3674 173.135 99.2329C173.064 99.0985 173.11 98.9444 173.244 98.8733Z" fill="white"/>
<path d="M130.786 77.5144C130.919 77.4434 131.073 77.491 131.145 77.6254C131.216 77.7599 131.17 77.914 131.036 77.985C130.903 78.056 130.749 78.0085 130.677 77.874C130.606 77.7396 130.686 77.5677 130.786 77.5144Z" fill="white"/>
<path d="M194.439 64.451C194.572 64.3799 194.726 64.4275 194.798 64.5619C194.869 64.6964 194.823 64.8505 194.689 64.9215C194.555 64.9926 194.402 64.945 194.33 64.8106C194.259 64.6761 194.305 64.522 194.439 64.451Z" fill="white"/>
<path d="M193.826 128.156C193.959 128.085 194.113 128.132 194.185 128.267C194.256 128.401 194.21 128.555 194.076 128.626C193.942 128.697 193.789 128.65 193.717 128.515C193.679 128.363 193.726 128.209 193.826 128.156Z" fill="white"/>
<path d="M130.269 123.836C130.403 123.765 130.556 123.813 130.628 123.947C130.699 124.082 130.653 124.236 130.519 124.307C130.386 124.378 130.232 124.33 130.16 124.196C130.089 124.061 130.135 123.907 130.269 123.836Z" fill="white"/>
<path d="M164.169 72.1382C164.303 72.0672 164.457 72.1148 164.528 72.2492C164.6 72.3837 164.553 72.5378 164.419 72.6088C164.286 72.6798 164.132 72.6323 164.061 72.4978C163.989 72.3634 164.036 72.2092 164.169 72.1382Z" fill="white"/>
<path d="M180.633 120.425C180.702 120.555 180.863 120.605 180.992 120.536C181.121 120.467 181.17 120.306 181.101 120.176C181.032 120.047 180.871 119.997 180.742 120.065C180.613 120.134 180.564 120.295 180.633 120.425Z" fill="white"/>
<path d="M136.798 97.0394C136.867 97.1694 137.028 97.2191 137.157 97.1504C137.286 97.0818 137.335 96.9208 137.265 96.7908C137.196 96.6609 137.036 96.6112 136.907 96.6798C136.777 96.7485 136.729 96.9095 136.798 97.0394Z" fill="white"/>
<path d="M154.96 130.713C155.093 130.642 155.247 130.69 155.318 130.824C155.39 130.959 155.343 131.113 155.21 131.184C155.076 131.255 154.922 131.207 154.851 131.073C154.779 130.938 154.826 130.784 154.96 130.713Z" fill="white"/>
<path d="M115.619 100.152C115.753 100.08 115.907 100.128 115.978 100.263C116.05 100.397 116.003 100.551 115.87 100.622C115.736 100.693 115.582 100.646 115.511 100.511C115.439 100.377 115.486 100.223 115.619 100.152Z" fill="white"/>
<path d="M170.575 120.039C170.644 120.169 170.805 120.219 170.934 120.15C171.063 120.081 171.112 119.92 171.043 119.79C170.974 119.66 170.813 119.611 170.684 119.679C170.555 119.748 170.506 119.909 170.575 120.039Z" fill="white"/>
<path d="M240.957 74.0351C241.028 74.1684 240.98 74.3221 240.846 74.3936C240.711 74.4652 240.557 74.4188 240.486 74.2854C240.415 74.152 240.463 73.9983 240.598 73.9268C240.699 73.8732 240.886 73.9017 240.957 74.0351Z" fill="white"/>
<path d="M239.248 76.0132C239.319 76.1466 239.271 76.3003 239.137 76.3718C239.002 76.4433 238.848 76.3969 238.777 76.2636C238.706 76.1302 238.754 75.9765 238.888 75.905C239.023 75.8334 239.177 75.8798 239.248 76.0132Z" fill="white"/>
<path d="M252.27 60.7486C252.341 60.8819 252.294 61.0356 252.159 61.1071C252.024 61.1787 251.87 61.1323 251.799 60.9989C251.729 60.8655 251.776 60.7118 251.911 60.6403C252.045 60.5688 252.199 60.6152 252.27 60.7486Z" fill="white"/>
<path d="M269.035 57.3093C269.106 57.4427 269.058 57.5964 268.924 57.6679C268.789 57.7395 268.635 57.6931 268.564 57.5597C268.493 57.4263 268.541 57.2726 268.675 57.2011C268.81 57.1296 268.964 57.176 269.035 57.3093Z" fill="white"/>
<path d="M259.354 74.4761C259.425 74.6095 259.377 74.7632 259.242 74.8347C259.108 74.9062 258.954 74.8598 258.883 74.7264C258.812 74.5931 258.86 74.4394 258.994 74.3679C259.095 74.3142 259.283 74.3427 259.354 74.4761Z" fill="white"/>
<path d="M261.312 82.4596C261.383 82.593 261.335 82.7467 261.201 82.8182C261.066 82.8897 260.912 82.8433 260.841 82.71C260.77 82.5766 260.818 82.4229 260.953 82.3514C261.087 82.2798 261.241 82.3262 261.312 82.4596Z" fill="white"/>
<path d="M284.465 64.5033C284.533 64.6322 284.694 64.6807 284.824 64.6115C284.954 64.5424 285.004 64.3819 284.936 64.2529C284.867 64.124 284.706 64.0756 284.576 64.1447C284.446 64.2138 284.396 64.3744 284.465 64.5033Z" fill="white"/>
<path d="M288.498 68.5181C288.566 68.647 288.727 68.6954 288.857 68.6263C288.987 68.5572 289.037 68.3966 288.969 68.2677C288.9 68.1388 288.739 68.0903 288.609 68.1595C288.479 68.2286 288.429 68.3892 288.498 68.5181Z" fill="white"/>
<path d="M265.387 70.3269C265.458 70.4603 265.41 70.614 265.276 70.6855C265.141 70.757 264.987 70.7107 264.916 70.5773C264.845 70.4439 264.893 70.2902 265.028 70.2187C265.129 70.165 265.316 70.1935 265.387 70.3269Z" fill="white"/>
<path d="M289.037 23.4487C289.108 23.5821 289.061 23.7357 288.926 23.8073C288.791 23.8788 288.637 23.8324 288.566 23.699C288.496 23.5657 288.543 23.412 288.678 23.3404C288.795 23.2356 288.966 23.3153 289.037 23.4487Z" fill="white"/>
<path d="M303.398 93.7013C303.469 93.8347 303.421 93.9884 303.286 94.0599C303.152 94.1314 302.998 94.085 302.927 93.9517C302.856 93.8183 302.904 93.6646 303.038 93.5931C303.139 93.5394 303.327 93.5679 303.398 93.7013Z" fill="white"/>
<path d="M232.496 93.3334C232.564 93.4623 232.725 93.5107 232.855 93.4416C232.985 93.3725 233.035 93.2119 232.966 93.083C232.898 92.9541 232.737 92.9057 232.607 92.9748C232.477 93.0439 232.427 93.2045 232.496 93.3334Z" fill="white"/>
<path d="M237.811 22.9267C237.882 23.0601 237.835 23.2138 237.7 23.2853C237.566 23.3568 237.412 23.3104 237.341 23.1771C237.27 23.0437 237.317 22.89 237.452 22.8185C237.535 22.7315 237.741 22.7933 237.811 22.9267Z" fill="white"/>
<path d="M294.92 60.3129C294.991 60.4463 294.943 60.6 294.809 60.6715C294.674 60.743 294.52 60.6967 294.449 60.5633C294.378 60.4299 294.426 60.2762 294.56 60.2047C294.677 60.0998 294.831 60.1462 294.92 60.3129Z" fill="white"/>
<path d="M241.453 78.8615C241.521 78.9904 241.682 79.0388 241.812 78.9697C241.942 78.9006 241.992 78.74 241.924 78.6111C241.855 78.4822 241.694 78.4337 241.564 78.5029C241.434 78.572 241.384 78.7325 241.453 78.8615Z" fill="white"/>
<path d="M267.349 30.4468C267.417 30.5757 267.578 30.6242 267.708 30.555C267.838 30.4859 267.888 30.3253 267.82 30.1964C267.751 30.0675 267.59 30.0191 267.46 30.0882C267.33 30.1573 267.28 30.3179 267.349 30.4468Z" fill="white"/>
<path d="M230.202 50.1555C230.272 50.2889 230.225 50.4426 230.09 50.5141C229.956 50.5857 229.802 50.5393 229.731 50.4059C229.66 50.2725 229.708 50.1188 229.842 50.0473C229.943 49.9936 230.131 50.0222 230.202 50.1555Z" fill="white"/>
<path d="M242.382 67.546C242.453 67.6794 242.405 67.8331 242.27 67.9046C242.136 67.9762 241.982 67.9298 241.911 67.7964C241.84 67.663 241.888 67.5093 242.022 67.4378C242.157 67.3663 242.311 67.4127 242.382 67.546Z" fill="white"/>
<path d="M230.957 150.035C231.028 150.168 230.98 150.322 230.846 150.394C230.711 150.465 230.557 150.419 230.486 150.285C230.415 150.152 230.463 149.998 230.598 149.927C230.699 149.873 230.886 149.902 230.957 150.035Z" fill="white"/>
<path d="M229.248 152.013C229.319 152.147 229.271 152.3 229.137 152.372C229.002 152.443 228.848 152.397 228.777 152.264C228.706 152.13 228.754 151.976 228.889 151.905C229.023 151.833 229.177 151.88 229.248 152.013Z" fill="white"/>
<path d="M242.27 136.749C242.341 136.882 242.294 137.036 242.159 137.107C242.024 137.179 241.87 137.132 241.799 136.999C241.729 136.866 241.776 136.712 241.911 136.64C242.045 136.569 242.199 136.615 242.27 136.749Z" fill="white"/>
<path d="M259.035 133.309C259.106 133.443 259.058 133.596 258.924 133.668C258.789 133.739 258.635 133.693 258.564 133.56C258.493 133.426 258.541 133.273 258.675 133.201C258.81 133.13 258.964 133.176 259.035 133.309Z" fill="white"/>
<path d="M249.354 150.476C249.425 150.609 249.377 150.763 249.242 150.835C249.108 150.906 248.954 150.86 248.883 150.726C248.812 150.593 248.86 150.439 248.994 150.368C249.095 150.314 249.283 150.343 249.354 150.476Z" fill="white"/>
<path d="M251.312 158.46C251.383 158.593 251.335 158.747 251.201 158.818C251.066 158.89 250.912 158.843 250.841 158.71C250.77 158.577 250.818 158.423 250.953 158.351C251.087 158.28 251.241 158.326 251.312 158.46Z" fill="white"/>
<path d="M274.465 140.503C274.533 140.632 274.694 140.681 274.824 140.612C274.954 140.542 275.004 140.382 274.936 140.253C274.867 140.124 274.706 140.076 274.576 140.145C274.446 140.214 274.396 140.374 274.465 140.503Z" fill="white"/>
<path d="M278.498 144.518C278.566 144.647 278.727 144.695 278.857 144.626C278.987 144.557 279.037 144.397 278.969 144.268C278.9 144.139 278.739 144.09 278.609 144.159C278.479 144.229 278.429 144.389 278.498 144.518Z" fill="white"/>
<path d="M255.387 146.327C255.458 146.46 255.411 146.614 255.276 146.686C255.141 146.757 254.987 146.711 254.916 146.577C254.846 146.444 254.893 146.29 255.028 146.219C255.129 146.165 255.316 146.194 255.387 146.327Z" fill="white"/>
<path d="M279.037 99.4487C279.108 99.5821 279.061 99.7357 278.926 99.8073C278.792 99.8788 278.637 99.8324 278.566 99.699C278.496 99.5657 278.543 99.412 278.678 99.3404C278.795 99.2356 278.966 99.3153 279.037 99.4487Z" fill="white"/>
<path d="M293.398 169.701C293.469 169.835 293.421 169.988 293.286 170.06C293.152 170.131 292.998 170.085 292.927 169.952C292.856 169.818 292.904 169.665 293.038 169.593C293.139 169.539 293.327 169.568 293.398 169.701Z" fill="white"/>
<path d="M222.496 169.333C222.564 169.462 222.725 169.511 222.855 169.442C222.985 169.372 223.035 169.212 222.966 169.083C222.898 168.954 222.737 168.906 222.607 168.975C222.477 169.044 222.427 169.204 222.496 169.333Z" fill="white"/>
<path d="M227.811 98.9267C227.882 99.0601 227.835 99.2138 227.7 99.2853C227.566 99.3568 227.412 99.3104 227.341 99.1771C227.27 99.0437 227.317 98.89 227.452 98.8185C227.535 98.7315 227.741 98.7933 227.811 98.9267Z" fill="white"/>
<path d="M284.92 136.313C284.991 136.446 284.943 136.6 284.809 136.672C284.674 136.743 284.52 136.697 284.449 136.563C284.378 136.43 284.426 136.276 284.56 136.205C284.677 136.1 284.831 136.146 284.92 136.313Z" fill="white"/>
<path d="M231.453 154.861C231.521 154.99 231.682 155.039 231.812 154.97C231.942 154.901 231.992 154.74 231.924 154.611C231.855 154.482 231.694 154.434 231.564 154.503C231.434 154.572 231.384 154.733 231.453 154.861Z" fill="white"/>
<path d="M257.349 106.447C257.417 106.576 257.578 106.624 257.708 106.555C257.838 106.486 257.888 106.325 257.82 106.196C257.751 106.068 257.59 106.019 257.46 106.088C257.33 106.157 257.28 106.318 257.349 106.447Z" fill="white"/>
<path d="M220.202 126.156C220.272 126.289 220.225 126.443 220.09 126.514C219.956 126.586 219.802 126.539 219.731 126.406C219.66 126.273 219.708 126.119 219.842 126.047C219.943 125.994 220.131 126.022 220.202 126.156Z" fill="white"/>
<path d="M232.382 143.546C232.453 143.679 232.405 143.833 232.271 143.905C232.136 143.976 231.982 143.93 231.911 143.796C231.84 143.663 231.888 143.509 232.022 143.438C232.157 143.366 232.311 143.413 232.382 143.546Z" fill="white"/>
<path d="M142.804 178.373C142.884 178.523 143.071 178.58 143.223 178.5C143.374 178.419 143.432 178.232 143.352 178.081C143.272 177.931 143.084 177.874 142.933 177.954C142.781 178.035 142.723 178.222 142.804 178.373Z" fill="white"/>
<path d="M144.886 180.116C144.966 180.267 145.154 180.324 145.305 180.244C145.456 180.163 145.514 179.976 145.434 179.825C145.354 179.674 145.166 179.617 145.015 179.698C144.863 179.778 144.806 179.966 144.886 180.116Z" fill="white"/>
<path d="M128.9 166.11C129.057 166.027 129.237 166.081 129.319 166.237C129.402 166.393 129.347 166.573 129.191 166.656C129.034 166.739 128.854 166.685 128.771 166.529C128.688 166.373 128.744 166.193 128.9 166.11Z" fill="white"/>
<path d="M125.378 148.528C125.534 148.445 125.714 148.499 125.797 148.655C125.88 148.811 125.825 148.99 125.668 149.074C125.511 149.157 125.332 149.102 125.249 148.946C125.166 148.791 125.221 148.611 125.378 148.528Z" fill="white"/>
<path d="M143.362 159.021C143.443 159.171 143.63 159.228 143.782 159.148C143.933 159.067 143.991 158.88 143.911 158.729C143.831 158.578 143.643 158.521 143.491 158.602C143.34 158.682 143.282 158.87 143.362 159.021Z" fill="white"/>
<path d="M151.836 156.916C151.916 157.066 152.104 157.123 152.255 157.043C152.407 156.962 152.465 156.775 152.384 156.624C152.304 156.473 152.117 156.416 151.965 156.497C151.814 156.577 151.756 156.765 151.836 156.916Z" fill="white"/>
<path d="M132.646 132.16C132.726 132.31 132.914 132.367 133.066 132.287C133.217 132.206 133.275 132.019 133.194 131.868C133.114 131.718 132.927 131.661 132.775 131.741C132.624 131.822 132.566 132.009 132.646 132.16Z" fill="white"/>
<path d="M136.967 127.912C137.047 128.063 137.235 128.119 137.386 128.039C137.538 127.959 137.595 127.771 137.515 127.62C137.435 127.47 137.247 127.413 137.096 127.493C136.945 127.574 136.887 127.761 136.967 127.912Z" fill="white"/>
<path d="M139.143 152.312C139.299 152.229 139.479 152.283 139.562 152.439C139.645 152.595 139.589 152.775 139.433 152.858C139.276 152.941 139.096 152.887 139.014 152.731C138.931 152.575 138.986 152.395 139.143 152.312Z" fill="white"/>
<path d="M89.5904 127.696C89.747 127.613 89.9267 127.667 90.0096 127.823C90.0925 127.979 90.0372 128.158 89.8806 128.242C89.724 128.325 89.5443 128.27 89.4614 128.114C89.3785 127.958 89.4729 127.758 89.5904 127.696Z" fill="white"/>
<path d="M164.111 112.179C164.268 112.096 164.447 112.15 164.53 112.306C164.613 112.462 164.558 112.641 164.401 112.725C164.245 112.808 164.065 112.753 163.982 112.597C163.899 112.442 163.954 112.262 164.111 112.179Z" fill="white"/>
<path d="M163.066 186.254C163.223 186.171 163.402 186.225 163.485 186.381C163.568 186.537 163.513 186.716 163.356 186.8C163.2 186.883 163.02 186.829 162.937 186.673C162.893 186.496 162.949 186.316 163.066 186.254Z" fill="white"/>
<path d="M88.7474 181.558C88.904 181.475 89.0836 181.529 89.1666 181.685C89.2495 181.841 89.1942 182.021 89.0376 182.104C88.881 182.187 88.7013 182.133 88.6184 181.977C88.5355 181.821 88.5907 181.641 88.7474 181.558Z" fill="white"/>
<path d="M128.666 121.273C128.822 121.19 129.002 121.244 129.085 121.4C129.168 121.556 129.113 121.735 128.956 121.819C128.799 121.902 128.62 121.847 128.537 121.691C128.454 121.536 128.509 121.356 128.666 121.273Z" fill="white"/>
<path d="M147.675 177.333C147.755 177.484 147.943 177.541 148.094 177.46C148.246 177.38 148.303 177.192 148.223 177.041C148.143 176.891 147.955 176.834 147.804 176.914C147.653 176.995 147.595 177.182 147.675 177.333Z" fill="white"/>
<path d="M96.522 150.367C96.6021 150.518 96.7898 150.575 96.9412 150.494C97.0926 150.414 97.1503 150.226 97.0702 150.076C96.99 149.925 96.8023 149.868 96.651 149.948C96.4996 150.029 96.4418 150.216 96.522 150.367Z" fill="white"/>
<path d="M117.592 189.427C117.749 189.344 117.928 189.399 118.011 189.555C118.094 189.711 118.039 189.89 117.882 189.973C117.726 190.056 117.546 190.002 117.463 189.846C117.38 189.69 117.435 189.511 117.592 189.427Z" fill="white"/>
<path d="M71.7339 154.095C71.8906 154.011 72.0702 154.066 72.1531 154.222C72.2361 154.378 72.1808 154.557 72.0242 154.641C71.8676 154.724 71.6879 154.669 71.605 154.513C71.522 154.357 71.5773 154.178 71.7339 154.095Z" fill="white"/>
<path d="M135.912 176.936C135.992 177.086 136.18 177.143 136.331 177.063C136.483 176.982 136.54 176.795 136.46 176.644C136.38 176.494 136.192 176.437 136.041 176.517C135.89 176.598 135.832 176.785 135.912 176.936Z" fill="white"/>
<path d="M218.073 123.747C218.156 123.903 218.101 124.083 217.946 124.165C217.79 124.248 217.611 124.193 217.528 124.037C217.445 123.881 217.5 123.702 217.655 123.619C217.772 123.557 217.99 123.591 218.073 123.747Z" fill="white"/>
<path d="M216.102 126.047C216.185 126.203 216.13 126.382 215.975 126.465C215.819 126.547 215.64 126.492 215.557 126.336C215.474 126.18 215.529 126.001 215.684 125.918C215.84 125.835 216.019 125.891 216.102 126.047Z" fill="white"/>
<path d="M231.117 108.303C231.2 108.459 231.145 108.638 230.99 108.721C230.834 108.803 230.655 108.748 230.572 108.592C230.489 108.436 230.544 108.257 230.699 108.174C230.855 108.092 231.034 108.147 231.117 108.303Z" fill="white"/>
<path d="M250.538 104.383C250.621 104.539 250.567 104.718 250.411 104.801C250.256 104.884 250.077 104.829 249.994 104.673C249.911 104.516 249.965 104.337 250.121 104.255C250.276 104.172 250.455 104.227 250.538 104.383Z" fill="white"/>
<path d="M239.408 124.366C239.491 124.522 239.437 124.701 239.281 124.784C239.125 124.866 238.947 124.811 238.864 124.655C238.781 124.499 238.835 124.32 238.991 124.237C239.107 124.175 239.325 124.21 239.408 124.366Z" fill="white"/>
<path d="M241.724 133.695C241.807 133.851 241.753 134.03 241.597 134.113C241.442 134.196 241.263 134.141 241.18 133.985C241.097 133.829 241.151 133.65 241.307 133.567C241.462 133.484 241.641 133.539 241.724 133.695Z" fill="white"/>
<path d="M268.471 112.867C268.552 113.018 268.738 113.075 268.889 112.995C269.039 112.915 269.096 112.728 269.016 112.577C268.936 112.426 268.749 112.369 268.598 112.449C268.448 112.529 268.391 112.716 268.471 112.867Z" fill="white"/>
<path d="M273.171 117.576C273.251 117.727 273.438 117.784 273.588 117.704C273.738 117.624 273.795 117.437 273.715 117.286C273.635 117.135 273.448 117.078 273.298 117.158C273.147 117.238 273.09 117.425 273.171 117.576Z" fill="white"/>
<path d="M246.382 119.557C246.464 119.713 246.41 119.892 246.254 119.975C246.099 120.057 245.92 120.002 245.837 119.846C245.754 119.69 245.808 119.511 245.964 119.428C246.081 119.366 246.299 119.401 246.382 119.557Z" fill="white"/>
<path d="M273.543 64.9727C273.626 65.1288 273.571 65.3079 273.416 65.3906C273.26 65.4734 273.081 65.4183 272.998 65.2623C272.915 65.1062 272.969 64.9271 273.125 64.8443C273.26 64.7226 273.46 64.8166 273.543 64.9727Z" fill="white"/>
<path d="M290.591 147.054C290.674 147.21 290.619 147.389 290.464 147.472C290.308 147.554 290.129 147.499 290.046 147.343C289.963 147.187 290.018 147.008 290.173 146.925C290.29 146.863 290.508 146.898 290.591 147.054Z" fill="white"/>
<path d="M208.369 146.225C208.449 146.376 208.636 146.433 208.787 146.353C208.937 146.273 208.994 146.086 208.914 145.935C208.833 145.785 208.647 145.727 208.496 145.807C208.346 145.887 208.289 146.074 208.369 146.225Z" fill="white"/>
<path d="M214.137 64.0751C214.22 64.2312 214.166 64.4103 214.01 64.493C213.854 64.5758 213.675 64.5208 213.592 64.3647C213.509 64.2086 213.564 64.0295 213.72 63.9467C213.815 63.8457 214.054 63.919 214.137 64.0751Z" fill="white"/>
<path d="M280.572 108.035C280.655 108.191 280.6 108.37 280.445 108.452C280.289 108.535 280.11 108.48 280.027 108.324C279.944 108.168 279.999 107.989 280.154 107.906C280.289 107.784 280.468 107.839 280.572 108.035Z" fill="white"/>
<path d="M218.675 129.384C218.755 129.534 218.942 129.592 219.092 129.512C219.242 129.432 219.299 129.245 219.219 129.094C219.139 128.943 218.952 128.886 218.802 128.966C218.651 129.046 218.594 129.233 218.675 129.384Z" fill="white"/>
<path d="M248.432 73.0189C248.512 73.1697 248.699 73.2272 248.849 73.1473C248.999 73.0673 249.056 72.8802 248.976 72.7293C248.896 72.5785 248.709 72.521 248.559 72.601C248.408 72.6809 248.351 72.868 248.432 73.0189Z" fill="white"/>
<path d="M205.466 95.8142C205.549 95.9702 205.494 96.1494 205.339 96.2321C205.183 96.3148 205.004 96.2598 204.921 96.1037C204.838 95.9476 204.893 95.7685 205.048 95.6858C205.165 95.6237 205.383 95.6581 205.466 95.8142Z" fill="white"/>
<path d="M219.688 116.181C219.771 116.337 219.717 116.517 219.561 116.599C219.406 116.682 219.227 116.627 219.144 116.471C219.061 116.315 219.115 116.136 219.271 116.053C219.426 115.97 219.605 116.025 219.688 116.181Z" fill="white"/>
<path d="M206.073 210.747C206.156 210.903 206.101 211.083 205.946 211.165C205.79 211.248 205.611 211.193 205.528 211.037C205.445 210.881 205.5 210.702 205.655 210.619C205.772 210.557 205.99 210.591 206.073 210.747Z" fill="white"/>
<path d="M204.102 213.047C204.185 213.203 204.13 213.382 203.975 213.465C203.819 213.547 203.64 213.492 203.557 213.336C203.474 213.18 203.529 213.001 203.684 212.918C203.84 212.835 204.019 212.891 204.102 213.047Z" fill="white"/>
<path d="M219.117 195.303C219.2 195.459 219.145 195.638 218.99 195.721C218.834 195.803 218.655 195.748 218.572 195.592C218.489 195.436 218.544 195.257 218.699 195.174C218.855 195.092 219.034 195.147 219.117 195.303Z" fill="white"/>
<path d="M238.538 191.383C238.621 191.539 238.567 191.718 238.411 191.801C238.255 191.884 238.077 191.829 237.994 191.673C237.911 191.516 237.965 191.337 238.121 191.255C238.276 191.172 238.455 191.227 238.538 191.383Z" fill="white"/>
<path d="M227.408 211.366C227.491 211.522 227.437 211.701 227.281 211.784C227.125 211.866 226.947 211.811 226.864 211.655C226.781 211.499 226.835 211.32 226.991 211.237C227.107 211.175 227.325 211.21 227.408 211.366Z" fill="white"/>
<path d="M229.724 220.695C229.807 220.851 229.753 221.03 229.597 221.113C229.442 221.196 229.263 221.141 229.18 220.985C229.097 220.829 229.151 220.65 229.307 220.567C229.462 220.484 229.641 220.539 229.724 220.695Z" fill="white"/>
<path d="M256.471 199.867C256.552 200.018 256.738 200.075 256.889 199.995C257.039 199.915 257.096 199.728 257.016 199.577C256.936 199.426 256.749 199.369 256.598 199.449C256.448 199.529 256.391 199.716 256.471 199.867Z" fill="white"/>
<path d="M261.171 204.576C261.251 204.727 261.438 204.784 261.588 204.704C261.738 204.624 261.795 204.437 261.715 204.286C261.635 204.135 261.448 204.078 261.298 204.158C261.147 204.238 261.09 204.425 261.171 204.576Z" fill="white"/>
<path d="M234.381 206.557C234.464 206.713 234.41 206.892 234.254 206.975C234.099 207.057 233.92 207.002 233.837 206.846C233.754 206.69 233.808 206.511 233.964 206.428C234.081 206.366 234.298 206.401 234.381 206.557Z" fill="white"/>
<path d="M261.543 151.973C261.626 152.129 261.571 152.308 261.415 152.391C261.26 152.473 261.081 152.418 260.998 152.262C260.915 152.106 260.969 151.927 261.125 151.844C261.26 151.723 261.46 151.817 261.543 151.973Z" fill="white"/>
<path d="M278.591 234.054C278.674 234.21 278.619 234.389 278.464 234.472C278.308 234.554 278.129 234.499 278.046 234.343C277.963 234.187 278.018 234.008 278.173 233.925C278.29 233.863 278.508 233.898 278.591 234.054Z" fill="white"/>
<path d="M196.369 233.225C196.449 233.376 196.636 233.433 196.787 233.353C196.937 233.273 196.994 233.086 196.914 232.935C196.833 232.785 196.647 232.727 196.496 232.807C196.346 232.887 196.289 233.074 196.369 233.225Z" fill="white"/>
<path d="M202.137 151.075C202.22 151.231 202.166 151.41 202.01 151.493C201.854 151.576 201.675 151.521 201.592 151.365C201.509 151.209 201.564 151.029 201.719 150.947C201.815 150.846 202.054 150.919 202.137 151.075Z" fill="white"/>
<path d="M268.572 195.035C268.655 195.191 268.6 195.37 268.445 195.452C268.289 195.535 268.11 195.48 268.027 195.324C267.944 195.168 267.999 194.989 268.154 194.906C268.289 194.784 268.468 194.839 268.572 195.035Z" fill="white"/>
<path d="M206.675 216.384C206.755 216.534 206.942 216.592 207.092 216.512C207.242 216.432 207.299 216.245 207.219 216.094C207.139 215.943 206.952 215.886 206.802 215.966C206.651 216.046 206.594 216.233 206.675 216.384Z" fill="white"/>
<path d="M236.432 160.019C236.512 160.17 236.699 160.227 236.849 160.147C236.999 160.067 237.056 159.88 236.976 159.729C236.896 159.578 236.709 159.521 236.559 159.601C236.408 159.681 236.351 159.868 236.432 160.019Z" fill="white"/>
<path d="M193.466 182.814C193.549 182.97 193.494 183.149 193.339 183.232C193.183 183.315 193.004 183.26 192.921 183.104C192.838 182.948 192.893 182.769 193.048 182.686C193.165 182.624 193.383 182.658 193.466 182.814Z" fill="white"/>
<path d="M207.688 203.181C207.771 203.337 207.717 203.517 207.561 203.599C207.406 203.682 207.227 203.627 207.144 203.471C207.061 203.315 207.115 203.136 207.271 203.053C207.426 202.97 207.605 203.025 207.688 203.181Z" fill="white"/>
<path d="M169.02 199.287C169.212 199.287 169.368 199.131 169.368 198.938C169.368 198.744 169.212 198.588 169.02 198.588C168.828 198.588 168.673 198.744 168.673 198.938C168.673 199.131 168.828 199.287 169.02 199.287Z" fill="white"/>
<path d="M171.853 198.139C172.045 198.139 172.201 197.982 172.201 197.789C172.201 197.596 172.045 197.44 171.853 197.44C171.661 197.44 171.505 197.596 171.505 197.789C171.505 197.982 171.661 198.139 171.853 198.139Z" fill="white"/>
<path d="M149.49 206.626C149.49 206.427 149.639 206.277 149.838 206.277C150.037 206.277 150.186 206.427 150.186 206.626C150.186 206.826 150.037 206.976 149.838 206.976C149.639 206.976 149.49 206.826 149.49 206.626Z" fill="white"/>
<path d="M130.159 200.835C130.159 200.635 130.308 200.485 130.507 200.485C130.706 200.485 130.855 200.635 130.855 200.835C130.855 201.034 130.706 201.184 130.507 201.184C130.308 201.184 130.159 201.034 130.159 200.835Z" fill="white"/>
<path d="M150.087 188.503C150.279 188.503 150.434 188.346 150.434 188.153C150.434 187.96 150.279 187.804 150.087 187.804C149.895 187.804 149.739 187.96 149.739 188.153C149.739 188.346 149.895 188.503 150.087 188.503Z" fill="white"/>
<path d="M152.472 178.967C152.664 178.967 152.82 178.81 152.82 178.617C152.82 178.424 152.664 178.268 152.472 178.268C152.28 178.268 152.124 178.424 152.124 178.617C152.124 178.81 152.28 178.967 152.472 178.967Z" fill="white"/>
<path d="M117.735 184.958C117.927 184.958 118.083 184.801 118.083 184.608C118.083 184.415 117.927 184.259 117.735 184.259C117.543 184.259 117.387 184.415 117.387 184.608C117.387 184.801 117.543 184.958 117.735 184.958Z" fill="white"/>
<path d="M115.797 178.417C115.989 178.417 116.145 178.261 116.145 178.068C116.145 177.875 115.989 177.719 115.797 177.719C115.605 177.719 115.449 177.875 115.449 178.068C115.449 178.261 115.605 178.417 115.797 178.417Z" fill="white"/>
<path d="M141.191 189.152C141.191 188.952 141.34 188.802 141.539 188.802C141.738 188.802 141.887 188.952 141.887 189.152C141.887 189.352 141.738 189.501 141.539 189.501C141.34 189.501 141.191 189.352 141.191 189.152Z" fill="white"/>
<path d="M90.5522 225.399C90.5522 225.199 90.7013 225.049 90.9 225.049C91.0988 225.049 91.2479 225.199 91.2479 225.399C91.2479 225.599 91.0988 225.748 90.9 225.748C90.7013 225.748 90.5522 225.549 90.5522 225.399Z" fill="white"/>
<path d="M114.505 143.119C114.505 142.919 114.654 142.77 114.853 142.77C115.052 142.77 115.201 142.919 115.201 143.119C115.201 143.319 115.052 143.469 114.853 143.469C114.654 143.469 114.505 143.319 114.505 143.119Z" fill="white"/>
<path d="M187.557 183.31C187.557 183.111 187.706 182.961 187.904 182.961C188.103 182.961 188.252 183.111 188.252 183.31C188.252 183.51 188.103 183.66 187.904 183.66C187.706 183.61 187.557 183.46 187.557 183.31Z" fill="white"/>
<path d="M143.626 254.706C143.626 254.506 143.775 254.357 143.974 254.357C144.173 254.357 144.322 254.506 144.322 254.706C144.322 254.906 144.173 255.056 143.974 255.056C143.775 255.056 143.626 254.906 143.626 254.706Z" fill="white"/>
<path d="M104.815 183.161C104.815 182.961 104.964 182.811 105.162 182.811C105.361 182.811 105.51 182.961 105.51 183.161C105.51 183.36 105.361 183.51 105.162 183.51C104.964 183.51 104.815 183.36 104.815 183.161Z" fill="white"/>
<path d="M170.561 193.895C170.753 193.895 170.909 193.738 170.909 193.545C170.909 193.352 170.753 193.196 170.561 193.196C170.369 193.196 170.213 193.352 170.213 193.545C170.213 193.738 170.369 193.895 170.561 193.895Z" fill="white"/>
<path d="M116.741 230.491C116.934 230.491 117.089 230.335 117.089 230.142C117.089 229.949 116.934 229.792 116.741 229.792C116.549 229.792 116.394 229.949 116.394 230.142C116.394 230.335 116.549 230.491 116.741 230.491Z" fill="white"/>
<path d="M166.685 230.192C166.685 229.992 166.834 229.842 167.033 229.842C167.231 229.842 167.38 229.992 167.38 230.192C167.38 230.392 167.231 230.541 167.033 230.541C166.834 230.541 166.685 230.392 166.685 230.192Z" fill="white"/>
<path d="M107.349 257.103C107.349 256.903 107.498 256.753 107.697 256.753C107.896 256.753 108.045 256.903 108.045 257.103C108.045 257.302 107.896 257.452 107.697 257.452C107.498 257.452 107.349 257.302 107.349 257.103Z" fill="white"/>
<path d="M163.952 205.378C164.144 205.378 164.299 205.222 164.299 205.029C164.299 204.836 164.144 204.679 163.952 204.679C163.759 204.679 163.604 204.836 163.604 205.029C163.604 205.222 163.759 205.378 163.952 205.378Z" fill="white"/>
<path d="M154.77 94.4943C154.968 94.4943 155.117 94.6442 155.117 94.8442C155.117 95.0441 154.968 95.1941 154.77 95.1941C154.571 95.1941 154.422 95.0441 154.422 94.8442C154.422 94.6942 154.571 94.4943 154.77 94.4943Z" fill="white"/>
<path d="M156.009 97.6934C156.208 97.6934 156.356 97.8433 156.356 98.0433C156.356 98.2432 156.208 98.3932 156.009 98.3932C155.811 98.3932 155.662 98.2432 155.662 98.0433C155.662 97.8433 155.811 97.6934 156.009 97.6934Z" fill="white"/>
<path d="M146.339 73.2006C146.538 73.2006 146.687 73.3505 146.687 73.5505C146.687 73.7504 146.538 73.9004 146.339 73.9004C146.141 73.9004 145.992 73.7504 145.992 73.5505C145.992 73.3505 146.141 73.2006 146.339 73.2006Z" fill="white"/>
<path d="M152.687 51.6569C152.885 51.6569 153.034 51.8068 153.034 52.0068C153.034 52.2067 152.885 52.3567 152.687 52.3567C152.488 52.3567 152.34 52.2067 152.34 52.0068C152.34 51.8068 152.488 51.6569 152.687 51.6569Z" fill="white"/>
<path d="M166.621 73.4504C166.82 73.4504 166.968 73.6004 166.968 73.8003C166.968 74.0003 166.82 74.1502 166.621 74.1502C166.423 74.1502 166.274 74.0003 166.274 73.8003C166.274 73.6504 166.423 73.4504 166.621 73.4504Z" fill="white"/>
<path d="M177.085 76.0997C177.283 76.0997 177.432 76.2497 177.432 76.4496C177.432 76.6496 177.283 76.7995 177.085 76.7995C176.886 76.7995 176.737 76.6496 176.737 76.4496C176.737 76.2497 176.886 76.0997 177.085 76.0997Z" fill="white"/>
<path d="M170.539 38.2108C170.731 38.2108 170.886 38.0541 170.886 37.8609C170.886 37.6676 170.731 37.511 170.539 37.511C170.347 37.511 170.192 37.6676 170.192 37.8609C170.192 38.0541 170.347 38.2108 170.539 38.2108Z" fill="white"/>
<path d="M177.68 36.0114C177.871 36.0114 178.027 35.8548 178.027 35.6615C178.027 35.4683 177.871 35.3116 177.68 35.3116C177.488 35.3116 177.333 35.4683 177.333 35.6615C177.333 35.8548 177.488 36.0114 177.68 36.0114Z" fill="white"/>
<path d="M165.53 63.9033C165.729 63.9033 165.878 64.0533 165.878 64.2532C165.878 64.4532 165.729 64.6031 165.53 64.6031C165.332 64.6031 165.183 64.4532 165.183 64.2532C165.183 64.1033 165.332 63.9033 165.53 63.9033Z" fill="white"/>
<path d="M125.76 7.61975C125.958 7.61975 126.107 7.76971 126.107 7.96965C126.107 8.16959 125.958 8.31955 125.76 8.31955C125.562 8.31955 125.413 8.16959 125.413 7.96965C125.363 7.76971 125.562 7.61975 125.76 7.61975Z" fill="white"/>
<path d="M216.061 34.262C216.26 34.262 216.409 34.4119 216.409 34.6119C216.409 34.8118 216.26 34.9618 216.061 34.9618C215.863 34.9618 215.714 34.8118 215.714 34.6119C215.714 34.4619 215.863 34.262 216.061 34.262Z" fill="white"/>
<path d="M171.927 116.188C172.119 116.188 172.274 116.031 172.274 115.838C172.274 115.645 172.119 115.488 171.927 115.488C171.736 115.488 171.58 115.645 171.58 115.838C171.58 116.031 171.736 116.188 171.927 116.188Z" fill="white"/>
<path d="M93.5769 66.6525C93.7752 66.6525 93.924 66.8024 93.924 67.0024C93.924 67.2023 93.7752 67.3523 93.5769 67.3523C93.3785 67.3523 93.2298 67.2023 93.2298 67.0024C93.1802 66.8524 93.3785 66.6525 93.5769 66.6525Z" fill="white"/>
<path d="M172.126 23.5151C172.324 23.5151 172.473 23.6651 172.473 23.865C172.473 24.065 172.324 24.2149 172.126 24.2149C171.927 24.2149 171.779 24.065 171.779 23.865C171.729 23.6651 171.878 23.5151 172.126 23.5151Z" fill="white"/>
<path d="M78.7999 97.3195C78.9916 97.3195 79.147 97.1629 79.147 96.9696C79.147 96.7764 78.9916 96.6198 78.7999 96.6198C78.6082 96.6198 78.4528 96.7764 78.4528 96.9696C78.4528 97.1629 78.6082 97.3195 78.7999 97.3195Z" fill="white"/>
<path d="M120.504 37.0611C120.695 37.0611 120.851 36.9045 120.851 36.7112C120.851 36.518 120.695 36.3613 120.504 36.3613C120.312 36.3613 120.157 36.518 120.157 36.7112C120.157 36.9045 120.312 37.0611 120.504 37.0611Z" fill="white"/>
<path d="M120.454 92.245C120.652 92.245 120.801 92.395 120.801 92.5949C120.801 92.7948 120.652 92.9448 120.454 92.9448C120.256 92.9448 120.107 92.7948 120.107 92.5949C120.107 92.4449 120.256 92.245 120.454 92.245Z" fill="white"/>
<path d="M90.8991 26.3143C91.0974 26.3143 91.2462 26.4643 91.2462 26.6642C91.2462 26.8642 91.0974 27.0141 90.8991 27.0141C90.7007 27.0141 90.552 26.8642 90.552 26.6642C90.552 26.5143 90.7007 26.3143 90.8991 26.3143Z" fill="white"/>
<path d="M148.125 88.8459C148.323 88.8459 148.472 88.9959 148.472 89.1958C148.472 89.3958 148.323 89.5457 148.125 89.5457C147.926 89.5457 147.778 89.3958 147.778 89.1958C147.778 88.9959 147.926 88.8459 148.125 88.8459Z" fill="white"/>
<path opacity="0.34" fill-rule="evenodd" clip-rule="evenodd" d="M233 447C361.682 447 466 347.831 466 225.5C466 103.169 361.682 4 233 4C104.318 4 0 103.169 0 225.5C0 347.831 104.318 447 233 447Z" fill="url(#paint0_radial)"/>
<defs>
<radialGradient id="paint0_radial" cx="0" cy="0" r="1" gradientUnits="userSpaceOnUse" gradientTransform="translate(233 225.5) rotate(84.8057) scale(222.413 233.776)">
<stop stop-color="#48230D"/>
<stop offset="0.833333" stop-color="#191B2A"/>
</radialGradient>
</defs>
</svg>
