<svg width="211" height="17" viewBox="0 0 211 17" fill="none" xmlns="http://www.w3.org/2000/svg">
<g opacity="0.68">
<path fill-rule="evenodd" clip-rule="evenodd" d="M117.503 6.02536L114.837 8.65057L112.171 6.02536L114.837 3.40015L117.503 6.02536Z" fill="#0055FF"/>
<path fill-rule="evenodd" clip-rule="evenodd" d="M77.1794 6.17352L78.6699 6.17352L78.7673 6.30371L76.3806 13.3231L76.2145 13.4621L74.6952 13.4621L74.5291 13.3235L72.8144 8.30124L72.7751 8.30124L71.0709 13.3231L70.9048 13.4621L69.4047 13.4621L69.2386 13.3231L66.8519 6.30371L66.9493 6.1731L68.4687 6.1731L68.6251 6.30371L70.1545 11.2333L70.1646 11.2421L70.1934 11.2607L71.8985 6.30371L72.0545 6.17394L73.6132 6.17394L73.7692 6.30371L75.4839 11.288L75.494 11.288L77.0234 6.30329L77.1794 6.17352ZM94.0341 6.17348L95.5347 6.17348L95.6326 6.30367L92.6122 13.323L92.437 13.4621L91.0535 13.4621L90.8778 13.323L87.8872 6.30367L87.9846 6.1739L89.514 6.1739L89.6796 6.30367L91.7544 11.5008L91.7741 11.4915L93.8685 6.30325L94.0341 6.17348Z" fill="white"/>
<path fill-rule="evenodd" clip-rule="evenodd" d="M103.416 10.0765L103.27 10.2058L97.6195 10.1873C97.678 10.8071 97.9118 11.2415 98.3208 11.6025C98.7323 11.975 99.2767 12.1803 99.8411 12.176C100.728 12.176 101.263 11.8612 101.614 11.1955L101.809 11.0565L103.212 11.0565L103.319 11.1955C103.114 12.0277 102.52 12.6382 101.955 13.0081C101.39 13.3873 100.688 13.5723 99.8699 13.5723C98.7399 13.5723 97.8048 13.2116 97.0934 12.4996C96.3824 11.7875 96.0219 10.8808 96.0219 9.79883C96.0219 8.78131 96.3627 7.8843 97.0545 7.14444C97.7462 6.40459 98.6424 6.02539 99.7143 6.02539C100.825 6.02539 101.731 6.37678 102.403 7.06144C103.076 7.74568 103.416 8.72612 103.416 9.86371L103.416 10.0765ZM99.7139 7.41277C98.7207 7.41277 97.9608 8.05067 97.7169 8.91103L101.731 8.91103C101.575 8.30052 101.029 7.41277 99.7139 7.41277ZM85.451 6.1749L85.3047 6.31394L85.3047 7.03526L85.2754 7.06306C85.0805 6.82248 84.8174 6.60971 84.5059 6.43402C84.4322 6.39497 84.3575 6.35788 84.2817 6.32279C83.8626 6.12897 83.3855 6.03628 82.869 6.03628C81.9045 6.03628 81.0568 6.40621 80.3555 7.12753C79.6541 7.84884 79.3032 8.75555 79.3032 9.81899C79.3032 10.8824 79.6541 11.7891 80.3555 12.5104C81.0568 13.2318 81.9045 13.6017 82.869 13.6017C83.3855 13.6017 83.853 13.509 84.2716 13.3152C84.2895 13.3068 84.3078 13.2984 84.3263 13.2898C84.3895 13.2608 84.4553 13.2305 84.5155 13.1947C84.8174 13.019 85.0709 12.8248 85.2658 12.5934C85.2706 12.5888 85.2804 12.5911 85.2902 12.5934C85.3001 12.5958 85.3099 12.5981 85.3147 12.5934L85.3147 13.3426L85.4607 13.4816L86.7366 13.4816L86.883 13.3426L86.883 6.30509L86.7371 6.16605L85.451 6.16605L85.451 6.1749ZM83.0933 12.2036C83.7168 12.2036 84.2333 11.9913 84.662 11.5565C84.9443 11.2788 85.1392 10.9274 85.2366 10.4926L85.2366 9.08662C85.1296 8.67077 84.9443 8.32823 84.662 8.04172C84.2233 7.60733 83.7072 7.39456 83.0933 7.39456C82.4793 7.39456 82.041 7.6166 81.6027 8.05099C81.1741 8.49507 80.9499 9.07777 80.9499 9.79909C80.9499 10.5297 81.1644 11.1124 81.6027 11.5472C82.041 11.9913 82.4894 12.2036 83.0933 12.2036Z" fill="white"/>
<path fill-rule="evenodd" clip-rule="evenodd" d="M108.677 9.24395C108.677 9.24395 107.839 9.07752 107.148 8.92964C106.514 8.7906 106.193 8.6149 106.193 8.18978C106.193 7.73643 106.651 7.35723 107.635 7.35723C108.6 7.35723 109.135 7.76424 109.135 8.1249L109.301 8.26393L110.704 8.26393L110.811 8.13417C110.811 7.18154 109.944 6.04395 107.674 6.04395C105.307 6.04395 104.566 7.3665 104.566 8.21717C104.566 8.92922 104.839 9.77103 106.651 10.1688L108.21 10.5016C108.999 10.6685 109.33 10.9272 109.33 11.362C109.33 11.7597 108.911 12.2405 107.82 12.2405C106.807 12.2405 106.193 11.7783 106.164 11.2326L105.988 11.0936L104.556 11.0936L104.449 11.2326C104.576 12.4532 105.53 13.6001 107.81 13.6001C110.392 13.6001 110.918 12.1018 110.918 11.3156C110.918 10.2615 110.285 9.5768 108.677 9.24395Z" fill="white"/>
<g opacity="0.87">
<path d="M0.816528 13.4666L0.816528 4.73999L1.74585 4.73999L1.74585 6.8933L6.14314 6.8933C6.52091 6.8933 6.84202 7.0293 7.10646 7.3013C7.37846 7.56574 7.51446 7.88685 7.51446 8.26462L7.51445 12.0952C7.51445 12.473 7.37846 12.7979 7.10646 13.0699C6.84202 13.3343 6.52091 13.4666 6.14314 13.4666L0.816528 13.4666ZM2.19918 12.5372L6.14314 12.5372C6.26402 12.5372 6.36602 12.4957 6.44913 12.4126C6.5398 12.3219 6.58513 12.2161 6.58513 12.0952L6.58513 8.26462C6.58513 8.14373 6.5398 8.04173 6.44913 7.95862C6.36602 7.86796 6.26402 7.82262 6.14314 7.82262L2.19918 7.82262C2.07829 7.82262 1.97252 7.86796 1.88185 7.95862C1.79118 8.04173 1.74585 8.14373 1.74585 8.26462L1.74585 12.0952C1.74585 12.2161 1.79118 12.3219 1.88185 12.4126C1.97252 12.4957 2.07829 12.5372 2.19918 12.5372Z" fill="white"/>
<path d="M11.4923 13.4666C11.1145 13.4666 10.7897 13.3343 10.5177 13.0699C10.2532 12.7979 10.121 12.473 10.121 12.0952L10.121 6.8933L11.0503 6.8933L11.0503 12.0952C11.0503 12.2161 11.0919 12.3219 11.175 12.4126C11.2657 12.4957 11.3714 12.5372 11.4923 12.5372L15.4363 12.5372C15.5572 12.5372 15.6629 12.4957 15.7536 12.4126C15.8443 12.3219 15.8896 12.2161 15.8896 12.0952L15.8896 6.8933L16.8189 6.8933L16.8189 12.0952C16.8189 12.473 16.6829 12.7979 16.4109 13.0699C16.1465 13.3343 15.8216 13.4666 15.4363 13.4666L11.4923 13.4666Z" fill="white"/>
<path d="M19.7464 13.4666L19.7464 6.8933L20.6758 6.8933L20.6758 13.4666L19.7464 13.4666ZM19.7464 5.66931L19.7464 4.73999L20.6758 4.73999L20.6758 5.66931L19.7464 5.66931Z" fill="white"/>
<path d="M25.2318 13.4666C24.854 13.4666 24.5291 13.3343 24.2571 13.0699C23.9927 12.7979 23.8605 12.473 23.8605 12.0952L23.8605 4.73999L24.7898 4.73999L24.7898 12.0952C24.7898 12.2161 24.8314 12.3219 24.9145 12.4126C25.0051 12.4957 25.1109 12.5372 25.2318 12.5372L26.3425 12.5372L26.3425 13.4666L25.2318 13.4666Z" fill="white"/>
<path d="M30.1463 13.4666C29.761 13.4666 29.4323 13.3343 29.1604 13.0699C28.8959 12.7979 28.7637 12.473 28.7637 12.0952L28.7637 8.26462C28.7637 7.88685 28.8959 7.56574 29.1604 7.3013C29.4324 7.0293 29.761 6.8933 30.1463 6.8933L34.5323 6.8933L34.5323 4.73999L35.4616 4.73999L35.4616 13.4666L30.1463 13.4666ZM30.1463 12.5372L34.0903 12.5372C34.2112 12.5372 34.3132 12.4957 34.3963 12.4126C34.487 12.3219 34.5323 12.2161 34.5323 12.0952L34.5323 8.26462C34.5323 8.14373 34.487 8.04173 34.3963 7.95862C34.3132 7.86796 34.2112 7.82262 34.0903 7.82262L30.1463 7.82262C30.0255 7.82262 29.9197 7.86796 29.829 7.95862C29.7459 8.04173 29.7043 8.14373 29.7043 8.26462L29.7043 12.0952C29.7043 12.2161 29.7459 12.3219 29.829 12.4126C29.9197 12.4957 30.0255 12.5372 30.1463 12.5372Z" fill="white"/>
<path d="M44.6127 13.4666C44.2349 13.4666 43.91 13.3343 43.638 13.0699C43.3736 12.7979 43.2413 12.473 43.2413 12.0952L43.2413 8.26462C43.2413 7.88685 43.3736 7.56574 43.638 7.3013C43.91 7.0293 44.2349 6.8933 44.6127 6.8933L48.5566 6.8933C48.9419 6.8933 49.2668 7.0293 49.5313 7.3013C49.8033 7.56574 49.9393 7.88685 49.9393 8.26462L49.9393 12.0952C49.9393 12.473 49.8033 12.7979 49.5313 13.0699C49.2668 13.3343 48.9419 13.4666 48.5566 13.4666L44.6127 13.4666ZM44.6127 12.5372L48.5566 12.5372C48.6775 12.5372 48.7795 12.4957 48.8626 12.4126C48.9533 12.3219 48.9986 12.2161 48.9986 12.0952L48.9986 8.26462C48.9986 8.14373 48.9533 8.04173 48.8626 7.95862C48.7795 7.86796 48.6775 7.82263 48.5566 7.82263L44.6127 7.82263C44.4918 7.82263 44.386 7.86796 44.2953 7.95862C44.2122 8.04173 44.1707 8.14373 44.1707 8.26462L44.1707 12.0952C44.1707 12.2161 44.2122 12.3219 44.2953 12.4126C44.386 12.4957 44.4918 12.5372 44.6127 12.5372Z" fill="white"/>
<path d="M52.7129 13.4666L52.7129 6.8933L58.0395 6.8933C58.4173 6.8933 58.7384 7.0293 59.0028 7.3013C59.2748 7.56574 59.4108 7.88685 59.4108 8.26462L59.4108 13.4666L58.4815 13.4666L58.4815 8.26462C58.4815 8.14373 58.4362 8.04174 58.3455 7.95862C58.2624 7.86796 58.1604 7.82263 58.0395 7.82263L54.0955 7.82263C53.9746 7.82263 53.8689 7.86796 53.7782 7.95862C53.6875 8.04174 53.6422 8.14373 53.6422 8.26462L53.6422 13.4666L52.7129 13.4666Z" fill="white"/>
</g>
<path d="M155.571 11.741L155.571 12.4664L149.962 12.4664L149.962 4.53312L155.401 4.53312L155.401 5.25845L150.8 5.25845L150.8 8.08042L154.903 8.08042L154.903 8.79441L150.8 8.79441L150.8 11.741L155.571 11.741Z" fill="white"/>
<path d="M161.196 12.1037C161.045 12.2397 160.856 12.3455 160.629 12.421C160.41 12.489 160.18 12.523 159.938 12.523C159.379 12.523 158.948 12.3719 158.646 12.0697C158.344 11.7675 158.193 11.3406 158.193 10.7891L158.193 7.1851L157.127 7.1851L157.127 6.5051L158.193 6.5051L158.193 5.20178L158.997 5.20178L158.997 6.5051L160.811 6.5051L160.811 7.1851L158.997 7.1851L158.997 10.7437C158.997 11.0988 159.084 11.3708 159.258 11.5597C159.439 11.741 159.696 11.8317 160.029 11.8317C160.195 11.8317 160.354 11.8053 160.505 11.7524C160.663 11.6995 160.799 11.6239 160.913 11.5257L161.196 12.1037Z" fill="white"/>
<path d="M166.548 6.45977C167.296 6.45977 167.889 6.67888 168.328 7.1171C168.773 7.54776 168.996 8.17864 168.996 9.00974L168.996 12.4664L168.192 12.4664L168.192 9.08907C168.192 8.46953 168.037 7.99731 167.727 7.67242C167.417 7.34754 166.975 7.1851 166.401 7.1851C165.759 7.1851 165.249 7.37776 164.871 7.76309C164.501 8.14086 164.316 8.66597 164.316 9.33841L164.316 12.4664L163.511 12.4664L163.511 4.05713L164.316 4.05713L164.316 7.54776C164.535 7.20021 164.837 6.93199 165.222 6.7431C165.608 6.55421 166.05 6.45977 166.548 6.45977Z" fill="white"/>
<path d="M177.244 9.73507L172.257 9.73507C172.302 10.3546 172.54 10.8571 172.971 11.2424C173.402 11.6202 173.946 11.809 174.603 11.809C174.973 11.809 175.313 11.7448 175.623 11.6164C175.933 11.4804 176.201 11.2839 176.428 11.0271L176.881 11.5484C176.616 11.8657 176.284 12.1075 175.884 12.2737C175.491 12.4399 175.056 12.523 174.58 12.523C173.968 12.523 173.424 12.3946 172.948 12.1377C172.48 11.8733 172.113 11.5106 171.849 11.0497C171.584 10.5888 171.452 10.0675 171.452 9.48574C171.452 8.90397 171.577 8.38264 171.826 7.92175C172.083 7.46087 172.431 7.10199 172.869 6.8451C173.315 6.58821 173.813 6.45977 174.365 6.45977C174.916 6.45977 175.411 6.58821 175.85 6.8451C176.288 7.10199 176.632 7.46087 176.881 7.92176C177.13 8.37508 177.255 8.89641 177.255 9.48574L177.244 9.73507ZM174.365 7.1511C173.791 7.1511 173.307 7.33621 172.914 7.70642C172.529 8.06909 172.31 8.54508 172.257 9.13441L176.484 9.13441C176.431 8.54508 176.208 8.06909 175.816 7.70642C175.43 7.33621 174.947 7.1511 174.365 7.1511Z" fill="white"/>
<path d="M180.513 7.67243C180.702 7.27198 180.982 6.96977 181.352 6.76577C181.73 6.56177 182.194 6.45977 182.746 6.45977L182.746 7.24176L182.553 7.23043C181.926 7.23043 181.435 7.42309 181.08 7.80842C180.725 8.19375 180.547 8.73397 180.547 9.42907L180.547 12.4664L179.743 12.4664L179.743 6.5051L180.513 6.5051L180.513 7.67243Z" fill="white"/>
<path d="M190.188 9.73507L185.202 9.73507C185.247 10.3546 185.485 10.8571 185.916 11.2424C186.346 11.6202 186.89 11.809 187.548 11.809C187.918 11.809 188.258 11.7448 188.568 11.6164C188.877 11.4804 189.145 11.2839 189.372 11.0271L189.825 11.5484C189.561 11.8657 189.229 12.1075 188.828 12.2737C188.435 12.4399 188.001 12.523 187.525 12.523C186.913 12.523 186.369 12.3946 185.893 12.1377C185.424 11.8733 185.058 11.5106 184.794 11.0497C184.529 10.5888 184.397 10.0675 184.397 9.48574C184.397 8.90397 184.522 8.38264 184.771 7.92176C185.028 7.46087 185.375 7.10199 185.814 6.8451C186.259 6.58821 186.758 6.45977 187.31 6.45977C187.861 6.45977 188.356 6.58821 188.794 6.8451C189.232 7.10199 189.576 7.46087 189.825 7.92176C190.075 8.37508 190.199 8.89641 190.199 9.48574L190.188 9.73507ZM187.31 7.1511C186.735 7.1511 186.252 7.33621 185.859 7.70642C185.474 8.06909 185.254 8.54508 185.202 9.13441L189.429 9.13441C189.376 8.54508 189.153 8.06909 188.76 7.70642C188.375 7.33621 187.891 7.1511 187.31 7.1511Z" fill="white"/>
<path d="M198.059 6.50511L198.059 12.4664L197.289 12.4664L197.289 11.3784C197.077 11.741 196.786 12.0244 196.416 12.2284C196.046 12.4248 195.623 12.523 195.147 12.523C194.368 12.523 193.753 12.3077 193.299 11.877C192.854 11.4388 192.631 10.8004 192.631 9.96173L192.631 6.5051L193.435 6.5051L193.435 9.8824C193.435 10.5095 193.59 10.9855 193.9 11.3104C194.21 11.6353 194.652 11.7977 195.226 11.7977C195.853 11.7977 196.348 11.6088 196.711 11.2311C197.073 10.8457 197.255 10.3131 197.255 9.63307L197.255 6.50511L198.059 6.50511Z" fill="white"/>
<path d="M208.597 6.45977C209.345 6.45977 209.931 6.6751 210.354 7.10577C210.785 7.53643 211 8.17109 211 9.00975L211 12.4664L210.195 12.4664L210.195 9.08908C210.195 8.46953 210.044 7.99731 209.742 7.67243C209.447 7.34754 209.028 7.1851 208.484 7.1851C207.865 7.1851 207.377 7.37776 207.022 7.76309C206.667 8.14087 206.489 8.66597 206.489 9.33841L206.489 12.4664L205.685 12.4664L205.685 9.08908C205.685 8.46953 205.534 7.99731 205.231 7.67243C204.937 7.34754 204.514 7.1851 203.962 7.1851C203.35 7.1851 202.863 7.37776 202.5 7.76309C202.145 8.14087 201.968 8.66597 201.968 9.33841L201.968 12.4664L201.163 12.4664L201.163 6.50511L201.934 6.50511L201.934 7.59309C202.145 7.23043 202.44 6.95088 202.818 6.75444C203.195 6.55799 203.63 6.45977 204.121 6.45977C204.619 6.45977 205.05 6.56555 205.413 6.7771C205.783 6.98866 206.059 7.30221 206.24 7.71776C206.459 7.32487 206.773 7.01888 207.181 6.79977C207.596 6.5731 208.069 6.45977 208.597 6.45977Z" fill="white"/>
<path d="M128.7 13.7492L127.381 12.3892C126.574 13.2506 125.513 13.6812 124.199 13.6812C123.582 13.6812 123.029 13.5815 122.54 13.382C122.059 13.1735 121.683 12.8879 121.411 12.5252C121.139 12.1535 121.003 11.7319 121.003 11.2604C121.003 10.6892 121.184 10.177 121.547 9.72366C121.909 9.27033 122.526 8.79433 123.396 8.29567C122.943 7.82421 122.63 7.42528 122.458 7.09889C122.286 6.76342 122.2 6.40983 122.2 6.0381C122.2 5.43064 122.417 4.94104 122.852 4.56931C123.288 4.19758 123.872 4.01172 124.607 4.01172C125.287 4.01172 125.826 4.17945 126.225 4.51491C126.624 4.85038 126.824 5.31277 126.824 5.9021C126.824 6.37356 126.665 6.79969 126.348 7.18048C126.03 7.55221 125.482 7.96474 124.702 8.41807L127.313 11.1108C127.603 10.594 127.816 9.98205 127.952 9.27486L128.741 9.51966C128.569 10.3719 128.288 11.1018 127.898 11.7092L129.258 13.11L128.7 13.7492ZM124.607 4.73251C124.135 4.73251 123.764 4.85038 123.492 5.08611C123.229 5.32184 123.097 5.63463 123.097 6.0245C123.097 6.30556 123.17 6.57302 123.315 6.82689C123.46 7.08075 123.745 7.42528 124.172 7.86048C124.861 7.46155 125.337 7.12155 125.6 6.84049C125.862 6.55942 125.994 6.25116 125.994 5.9157C125.994 5.55304 125.872 5.26744 125.627 5.05891C125.382 4.84131 125.042 4.73251 124.607 4.73251ZM124.253 12.8788C125.305 12.8788 126.157 12.5207 126.81 11.8044L123.94 8.85327C123.188 9.2794 122.667 9.66472 122.376 10.0093C122.095 10.3538 121.955 10.7391 121.955 11.1652C121.955 11.682 122.163 12.0991 122.58 12.4164C123.007 12.7247 123.564 12.8788 124.253 12.8788Z" fill="white"/>
<g opacity="0.45">
<path d="M144.564 8.70948L139.45 11.8107L139.45 4.87669e-07L144.564 8.70948Z" fill="white"/>
</g>
<g opacity="0.8">
<path d="M139.45 0L139.45 11.8107L134.338 8.70948L139.45 0Z" fill="#BABABF"/>
</g>
<g opacity="0.45">
<path d="M144.564 9.55957L139.45 17L139.45 12.6798L144.564 9.55957Z" fill="white"/>
</g>
<g opacity="0.8">
<path d="M139.45 12.6798L139.45 17L134.334 9.55957L139.45 12.6798Z" fill="#8F8F8F"/>
</g>
</g>
</svg>
