<svg width="13" height="161" viewBox="0 0 13 161" fill="none" xmlns="http://www.w3.org/2000/svg">
<g opacity="0.68">
<path fill-rule="evenodd" clip-rule="evenodd" d="M4.60751 71.4985L6.61505 73.5372L4.60751 75.5757L2.59998 73.5372L4.60751 71.4985Z" fill="#0055FF"/>
<path fill-rule="evenodd" clip-rule="evenodd" d="M4.72054 102.334V101.195L4.8201 101.12L10.1879 102.945L10.2942 103.072V104.234L10.1882 104.361L6.34763 105.672V105.702L10.1879 107.006L10.2942 107.133V108.28L10.1879 108.407L4.8201 110.232L4.72021 110.158V108.996L4.8201 108.876L8.5898 107.706L8.59657 107.699L8.61074 107.677L4.8201 106.373L4.72086 106.254V105.062L4.8201 104.942L8.63169 103.631V103.623L4.81977 102.454L4.72054 102.334ZM4.72067 89.4454L4.72067 88.2979L4.82023 88.223L10.188 90.5328L10.2944 90.6668V91.7247L10.188 91.8591L4.82023 94.1461L4.72099 94.0715V92.902L4.82023 92.7753L8.79453 91.1887L8.78744 91.1737L4.81991 89.572L4.72067 89.4454Z" fill="white"/>
<path fill-rule="evenodd" clip-rule="evenodd" d="M7.70541 82.2707L7.80432 82.3823L7.79015 86.7037C8.2641 86.6589 8.59628 86.4801 8.87241 86.1673C9.15722 85.8527 9.31426 85.4363 9.31092 85.0048C9.31092 84.3268 9.07023 83.9171 8.56116 83.6491L8.45484 83.4997L8.45484 82.4271L8.56116 82.3452C9.1975 82.5016 9.66437 82.956 9.94726 83.3881C10.2372 83.8202 10.3787 84.3568 10.3787 84.9827C10.3787 85.8469 10.1029 86.562 9.55836 87.106C9.01385 87.6497 8.32048 87.9254 7.49308 87.9254C6.71497 87.9254 6.02902 87.6647 5.46324 87.1357C4.89746 86.6068 4.60748 85.9214 4.60748 85.1017C4.60748 84.2526 4.8762 83.5592 5.39977 83.0456C5.92301 82.5313 6.67277 82.2707 7.5427 82.2707H7.70541ZM5.66853 85.102C5.66853 85.8615 6.15634 86.4426 6.81427 86.6291V83.5595C6.3474 83.6785 5.66853 84.0962 5.66853 85.102ZM4.7223 96.009L4.82862 96.1209H5.38022L5.40149 96.1433C5.21752 96.2924 5.05481 96.4935 4.92045 96.7318C4.89059 96.7881 4.86223 96.8453 4.83539 96.9032C4.68718 97.2237 4.6163 97.5886 4.6163 97.9836C4.6163 98.7211 4.89918 99.3693 5.45079 99.9057C6.00239 100.442 6.69576 100.71 7.50898 100.71C8.32221 100.71 9.01557 100.442 9.56718 99.9057C10.1188 99.3693 10.4017 98.7211 10.4017 97.9836C10.4017 97.5886 10.3308 97.231 10.1826 96.9109L10.1632 96.8691L10.1632 96.8691C10.141 96.8208 10.1178 96.7704 10.0904 96.7244C9.95607 96.4935 9.80754 96.2997 9.63065 96.1507C9.62711 96.147 9.62888 96.1395 9.63065 96.132C9.63242 96.1245 9.63419 96.1169 9.63065 96.1133H10.2035L10.3098 96.0017V95.0259L10.2035 94.914H4.82186L4.71553 95.0256V96.009H4.7223ZM9.33194 97.812C9.33194 97.3352 9.16955 96.9402 8.83705 96.6124C8.62472 96.3965 8.35601 96.2475 8.0235 96.173H6.94833C6.63032 96.2549 6.36837 96.3965 6.14928 96.6124C5.81709 96.9479 5.65438 97.3425 5.65438 97.812C5.65438 98.2815 5.82418 98.6167 6.15637 98.9519C6.49596 99.2797 6.94156 99.4511 7.49316 99.4511C8.05185 99.4511 8.49745 99.287 8.82996 98.9519C9.16955 98.6167 9.33194 98.2739 9.33194 97.812Z" fill="white"/>
<path fill-rule="evenodd" clip-rule="evenodd" d="M7.06867 78.2476C7.06867 78.2476 6.9414 78.8885 6.82831 79.4172C6.72198 79.9017 6.58763 80.1477 6.26253 80.1477C5.91585 80.1477 5.62587 79.7974 5.62587 79.0449C5.62587 78.3071 5.93711 77.8974 6.21291 77.8974L6.31924 77.7708V76.6981L6.22 76.6159C5.49151 76.6159 4.62158 77.2792 4.62158 79.0152C4.62158 80.8253 5.63296 81.3917 6.28347 81.3917C6.82799 81.3917 7.47174 81.1832 7.77589 79.7974L8.03043 78.6052C8.15802 78.0017 8.35585 77.7484 8.68835 77.7484C8.99251 77.7484 9.36013 78.0688 9.36013 78.9032C9.36013 79.6782 9.00668 80.1477 8.58944 80.1697L8.48311 80.304V81.3991L8.58944 81.481C9.52284 81.3841 10.3999 80.6542 10.3999 78.9106C10.3999 76.9364 9.25413 76.534 8.65291 76.534C7.84677 76.534 7.3232 77.0186 7.06867 78.2476Z" fill="white"/>
<g opacity="0.87">
<path d="M9.53331 160.73L2.85999 160.73L2.85999 160.02L4.50665 160.02L4.50665 156.657C4.50665 156.368 4.61065 156.122 4.81865 155.92C5.02087 155.712 5.26643 155.608 5.55532 155.608L8.48465 155.608C8.77354 155.608 9.02198 155.712 9.22998 155.92C9.4322 156.122 9.53331 156.368 9.53331 156.657L9.53331 160.73ZM8.82265 159.673L8.82265 156.657C8.82265 156.564 8.79087 156.486 8.72731 156.423C8.65798 156.354 8.57709 156.319 8.48465 156.319L5.55532 156.319C5.46287 156.319 5.38487 156.354 5.32132 156.423C5.25198 156.486 5.21732 156.564 5.21732 156.657L5.21732 159.673C5.21732 159.765 5.25198 159.846 5.32132 159.916C5.38487 159.985 5.46287 160.02 5.55532 160.02L8.48465 160.02C8.57709 160.02 8.65798 159.985 8.72731 159.916C8.79087 159.846 8.82265 159.765 8.82265 159.673Z" fill="white"/>
<path d="M9.53331 152.566C9.53331 152.855 9.4322 153.104 9.22998 153.312C9.02198 153.514 8.77354 153.615 8.48465 153.615L4.50665 153.615L4.50665 152.904L8.48465 152.904C8.57709 152.904 8.65798 152.873 8.72731 152.809C8.79087 152.74 8.82265 152.659 8.82265 152.566L8.82265 149.55C8.82265 149.458 8.79087 149.377 8.72731 149.308C8.65798 149.238 8.57709 149.204 8.48465 149.204L4.50665 149.204L4.50665 148.493L8.48465 148.493C8.77354 148.493 9.02198 148.597 9.22998 148.805C9.4322 149.007 9.53331 149.256 9.53331 149.55L9.53331 152.566Z" fill="white"/>
<path d="M9.53331 146.254L4.50665 146.254L4.50665 145.544L9.53331 145.544L9.53331 146.254ZM3.57065 146.254L2.85999 146.254L2.85999 145.544L3.57065 145.544L3.57065 146.254Z" fill="white"/>
<path d="M9.53331 142.06C9.53331 142.348 9.4322 142.597 9.22998 142.805C9.02198 143.007 8.77354 143.108 8.48465 143.108L2.85999 143.108L2.85999 142.398L8.48465 142.398C8.57709 142.398 8.65798 142.366 8.72731 142.302C8.79087 142.233 8.82265 142.152 8.82265 142.06L8.82265 141.21L9.53331 141.21L9.53331 142.06Z" fill="white"/>
<path d="M9.53331 138.301C9.53331 138.596 9.4322 138.847 9.22998 139.055C9.02198 139.258 8.77354 139.359 8.48465 139.359L5.55532 139.359C5.26643 139.359 5.02087 139.258 4.81865 139.055C4.61065 138.847 4.50665 138.596 4.50665 138.301L4.50665 134.947L2.85999 134.947L2.85999 134.237L9.53331 134.237L9.53331 138.301ZM8.82265 138.301L8.82265 135.285C8.82265 135.193 8.79087 135.115 8.72731 135.051C8.65798 134.982 8.57709 134.947 8.48465 134.947L5.55532 134.947C5.46287 134.947 5.38487 134.982 5.32132 135.051C5.25198 135.115 5.21732 135.193 5.21732 135.285L5.21732 138.301C5.21732 138.394 5.25198 138.475 5.32132 138.544C5.38487 138.608 5.46287 138.639 5.55532 138.639L8.48465 138.639C8.57709 138.639 8.65798 138.608 8.72731 138.544C8.79087 138.475 8.82265 138.394 8.82265 138.301Z" fill="white"/>
<path d="M9.53331 127.239C9.53331 127.528 9.4322 127.776 9.22998 127.984C9.02198 128.186 8.77354 128.287 8.48465 128.287L5.55532 128.287C5.26643 128.287 5.02087 128.186 4.81865 127.984C4.61065 127.776 4.50665 127.528 4.50665 127.239L4.50665 124.223C4.50665 123.928 4.61065 123.68 4.81865 123.477C5.02087 123.269 5.26643 123.165 5.55532 123.165L8.48465 123.165C8.77354 123.165 9.02198 123.269 9.22998 123.477C9.4322 123.68 9.53331 123.928 9.53331 124.223L9.53331 127.239ZM8.82265 127.239L8.82265 124.223C8.82265 124.13 8.79087 124.052 8.72731 123.989C8.65798 123.919 8.57709 123.885 8.48465 123.885L5.55532 123.885C5.46287 123.885 5.38487 123.919 5.32132 123.989C5.25198 124.052 5.21732 124.13 5.21732 124.223L5.21732 127.239C5.21732 127.331 5.25198 127.412 5.32132 127.481C5.38487 127.545 5.46287 127.577 5.55532 127.577L8.48465 127.577C8.57709 127.577 8.65798 127.545 8.72731 127.481C8.79087 127.412 8.82265 127.331 8.82265 127.239Z" fill="white"/>
<path d="M9.53331 121.044L4.50665 121.044L4.50665 116.971C4.50665 116.682 4.61065 116.437 4.81865 116.234C5.02087 116.026 5.26643 115.922 5.55532 115.922L9.53331 115.922L9.53331 116.633L5.55532 116.633C5.46287 116.633 5.38487 116.668 5.32132 116.737C5.25198 116.801 5.21732 116.879 5.21732 116.971L5.21732 119.987C5.21732 120.079 5.25198 120.16 5.32132 120.23C5.38487 120.299 5.46287 120.334 5.55532 120.334L9.53331 120.334L9.53331 121.044Z" fill="white"/>
</g>
<path d="M8.97866 42.387L9.53332 42.387L9.53332 46.677L3.46666 46.677L3.46666 42.517L4.02133 42.517L4.02133 46.0357L6.17933 46.0357L6.17933 42.8983L6.72533 42.8983L6.72533 46.0357L8.97866 46.0357L8.97866 42.387Z" fill="white"/>
<path d="M9.25599 38.0858C9.35999 38.2013 9.44088 38.3458 9.49866 38.5191C9.55066 38.6867 9.57666 38.8629 9.57666 39.0478C9.57666 39.4753 9.4611 39.8047 9.22999 40.0358C8.99888 40.2669 8.67244 40.3824 8.25066 40.3824L5.49466 40.3824L5.49466 41.1971L4.97466 41.1971L4.97466 40.3824L3.97799 40.3824L3.97799 39.7671L4.97466 39.7671L4.97466 38.3804L5.49466 38.3804L5.49466 39.7671L8.21599 39.7671C8.48755 39.7671 8.69555 39.7007 8.83999 39.5678C8.97866 39.4291 9.04799 39.2327 9.04799 38.9784C9.04799 38.8513 9.02777 38.73 8.98732 38.6144C8.94688 38.4931 8.8891 38.3891 8.81399 38.3024L9.25599 38.0858Z" fill="white"/>
<path d="M4.93999 33.9929C4.93999 33.4209 5.10755 32.9674 5.44266 32.6323C5.77199 32.2914 6.25444 32.1209 6.88999 32.1209L9.53332 32.1209L9.53332 32.7363L6.95066 32.7363C6.47688 32.7363 6.11577 32.8547 5.86733 33.0916C5.61888 33.3285 5.49466 33.6665 5.49466 34.1056C5.49466 34.5967 5.64199 34.9867 5.93666 35.2756C6.22555 35.5587 6.6271 35.7003 7.14133 35.7003L9.53332 35.7003L9.53332 36.3156L3.10266 36.3156L3.10266 35.7003L5.77199 35.7003C5.50622 35.5327 5.3011 35.3016 5.15666 35.0069C5.01222 34.7123 4.93999 34.3743 4.93999 33.9929Z" fill="white"/>
<path d="M7.44466 25.8141L7.44466 29.6274C7.91844 29.5928 8.30266 29.4108 8.59733 29.0814C8.88621 28.7521 9.03066 28.3361 9.03066 27.8334C9.03066 27.5503 8.98155 27.2903 8.88332 27.0534C8.77932 26.8166 8.6291 26.6114 8.43266 26.4381L8.83132 26.0914C9.07399 26.2937 9.25888 26.5479 9.38599 26.8541C9.5131 27.1546 9.57666 27.4868 9.57666 27.8508C9.57666 28.3188 9.47844 28.7348 9.28199 29.0988C9.07977 29.457 8.80244 29.7372 8.44999 29.9394C8.09755 30.1417 7.69888 30.2428 7.25399 30.2428C6.8091 30.2428 6.41044 30.1474 6.05799 29.9568C5.70555 29.7603 5.4311 29.4946 5.23466 29.1594C5.03822 28.8186 4.93999 28.4372 4.93999 28.0154C4.93999 27.5937 5.03822 27.2152 5.23466 26.8801C5.4311 26.545 5.70555 26.2821 6.05799 26.0914C6.40466 25.9008 6.80333 25.8054 7.25399 25.8054L7.44466 25.8141ZM5.46866 28.0154C5.46866 28.4546 5.61022 28.8243 5.89333 29.1248C6.17066 29.4194 6.53466 29.587 6.98533 29.6274L6.98533 26.3948C6.53466 26.4352 6.17066 26.6057 5.89333 26.9061C5.61022 27.2008 5.46866 27.5706 5.46866 28.0154Z" fill="white"/>
<path d="M5.86733 23.3136C5.5611 23.1692 5.32999 22.9554 5.17399 22.6723C5.01799 22.3834 4.93999 22.0281 4.93999 21.6063L5.53799 21.6063L5.52933 21.7536C5.52933 22.2332 5.67666 22.6088 5.97133 22.8803C6.26599 23.1519 6.6791 23.2876 7.21066 23.2876L9.53332 23.2876L9.53332 23.903L4.97466 23.903L4.97466 23.3136L5.86733 23.3136Z" fill="white"/>
<path d="M7.44466 15.9152L7.44466 19.7285C7.91844 19.6938 8.30266 19.5118 8.59733 19.1825C8.88621 18.8532 9.03066 18.4372 9.03066 17.9345C9.03066 17.6514 8.98155 17.3914 8.88332 17.1545C8.77932 16.9176 8.6291 16.7125 8.43266 16.5392L8.83132 16.1925C9.07399 16.3947 9.25888 16.6489 9.38599 16.9552C9.5131 17.2556 9.57666 17.5878 9.57666 17.9518C9.57666 18.4198 9.47844 18.8358 9.28199 19.1998C9.07977 19.5581 8.80244 19.8383 8.44999 20.0405C8.09755 20.2427 7.69888 20.3438 7.25399 20.3438C6.8091 20.3438 6.41044 20.2485 6.05799 20.0578C5.70555 19.8614 5.4311 19.5956 5.23466 19.2605C5.03822 18.9196 4.93999 18.5383 4.93999 18.1165C4.93999 17.6947 5.03822 17.3163 5.23466 16.9812C5.4311 16.6461 5.70555 16.3832 6.05799 16.1925C6.40466 16.0018 6.80333 15.9065 7.25399 15.9065L7.44466 15.9152ZM5.46866 18.1165C5.46866 18.5556 5.61022 18.9254 5.89333 19.2258C6.17066 19.5205 6.53466 19.6881 6.98533 19.7285L6.98533 16.4958C6.53466 16.5363 6.17066 16.7067 5.89333 17.0072C5.61022 17.3018 5.46866 17.6716 5.46866 18.1165Z" fill="white"/>
<path d="M4.97466 9.89603L9.53332 9.89603L9.53332 10.4854L8.70132 10.4854C8.97866 10.6471 9.19532 10.8696 9.35132 11.1527C9.50155 11.4358 9.57666 11.7594 9.57666 12.1234C9.57666 12.7185 9.41199 13.1894 9.08266 13.536C8.74755 13.8769 8.25933 14.0474 7.61799 14.0474L4.97466 14.0474L4.97466 13.432L7.55733 13.432C8.03688 13.432 8.40088 13.3136 8.64932 13.0767C8.89777 12.8398 9.02199 12.5018 9.02199 12.0627C9.02199 11.5831 8.87755 11.2047 8.58866 10.9274C8.29399 10.65 7.88666 10.5114 7.36666 10.5114L4.97466 10.5114L4.97466 9.89603Z" fill="white"/>
<path d="M4.93999 1.83733C4.93999 1.26532 5.10466 0.817547 5.43399 0.493992C5.76333 0.164658 6.24866 -1.14066e-05 6.88999 -1.13989e-05L9.53332 -1.13674e-05L9.53332 0.615326L6.95066 0.615326C6.47688 0.615326 6.11577 0.730881 5.86733 0.96199C5.61888 1.18732 5.49466 1.50799 5.49466 1.92399C5.49466 2.39777 5.64199 2.77044 5.93666 3.04199C6.22555 3.31355 6.6271 3.44932 7.14133 3.44932L9.53332 3.44932L9.53332 4.06466L6.95066 4.06466C6.47688 4.06466 6.11577 4.18021 5.86733 4.41132C5.61888 4.63665 5.49466 4.96021 5.49466 5.38199C5.49466 5.84999 5.64199 6.22266 5.93666 6.49999C6.22555 6.77155 6.6271 6.90732 7.14133 6.90732L9.53332 6.90732L9.53332 7.52265L4.97466 7.52265L4.97466 6.93332L5.80666 6.93332C5.52933 6.77154 5.31555 6.54621 5.16533 6.25732C5.01511 5.96843 4.93999 5.63621 4.93999 5.26065C4.93999 4.87932 5.02088 4.54999 5.18266 4.27266C5.34444 3.98954 5.58422 3.77866 5.90199 3.63999C5.60155 3.47243 5.36755 3.23266 5.19999 2.92066C5.02666 2.60288 4.93999 2.24177 4.93999 1.83733Z" fill="white"/>
<path d="M10.5144 62.9356L9.47439 63.9444C10.1331 64.5615 10.4624 65.3727 10.4624 66.378C10.4624 66.8495 10.3861 67.2724 10.2336 67.6468C10.0741 68.0143 9.85572 68.302 9.57839 68.51C9.29412 68.718 8.97172 68.822 8.61119 68.822C8.17439 68.822 7.78266 68.6834 7.43599 68.406C7.08932 68.1287 6.72532 67.6572 6.34399 66.9916C5.98346 67.3383 5.67839 67.5775 5.42879 67.7092C5.17226 67.841 4.90186 67.9068 4.61759 67.9068C4.15306 67.9068 3.77866 67.7404 3.49439 67.4076C3.21013 67.0748 3.06799 66.6276 3.06799 66.066C3.06799 65.546 3.19626 65.1335 3.45279 64.8284C3.70933 64.5234 4.06293 64.3708 4.51359 64.3708C4.87413 64.3708 5.19999 64.4922 5.49119 64.7348C5.77546 64.9775 6.09092 65.397 6.43759 65.9932L8.49679 63.9964C8.10159 63.7746 7.63359 63.6116 7.09279 63.5076L7.27999 62.9044C7.93172 63.0362 8.48986 63.2511 8.95439 63.5492L10.0256 62.5092L10.5144 62.9356ZM3.61919 66.066C3.61919 66.4266 3.70933 66.7108 3.88959 66.9188C4.06986 67.1199 4.30906 67.2204 4.60719 67.2204C4.82213 67.2204 5.02666 67.165 5.22079 67.054C5.41493 66.9431 5.67839 66.7247 6.01119 66.3988C5.70613 65.8719 5.44613 65.5079 5.23119 65.3068C5.01626 65.1058 4.78053 65.0052 4.52399 65.0052C4.24666 65.0052 4.02826 65.0988 3.86879 65.286C3.70239 65.4732 3.61919 65.7332 3.61919 66.066ZM9.84879 66.3364C9.84879 65.5322 9.57492 64.8804 9.02719 64.3812L6.77039 66.5756C7.09626 67.1511 7.39092 67.5498 7.65439 67.7716C7.91786 67.9866 8.21252 68.094 8.53839 68.094C8.93359 68.094 9.25252 67.9346 9.49519 67.6156C9.73092 67.2898 9.84879 66.8634 9.84879 66.3364Z" fill="white"/>
<g opacity="0.45">
<path d="M6.66026 50.8042L9.03182 54.7149L5.43872e-07 54.7149L6.66026 50.8042Z" fill="white"/>
</g>
<g opacity="0.8">
<path d="M0 54.7152L9.03182 54.7152L6.66026 58.6244L0 54.7152Z" fill="#BABABF"/>
</g>
<g opacity="0.45">
<path d="M7.31018 50.8042L13 54.7149L9.69629 54.7149L7.31018 50.8042Z" fill="white"/>
</g>
<g opacity="0.8">
<path d="M9.69629 54.7152L13 54.7152L7.31018 58.6275L9.69629 54.7152Z" fill="#8F8F8F"/>
</g>
</g>
</svg>
