<svg width="517" height="517" viewBox="0 0 517 517" fill="none" xmlns="http://www.w3.org/2000/svg">
<path opacity="0.892648" d="M6.04492 258.03L258.03 0.714625L510.016 258.03L258.03 515.346L6.04492 258.03Z" fill="#20212E" fill-opacity="0.32" stroke="url(#paint0_linear)"/>
<path opacity="0.807245" d="M7.78662 258.982C7.78662 258.982 38.1099 224.9 106.128 208.431C174.147 191.961 215.439 224.924 260.97 258.982C306.501 293.04 350.957 310.445 404.712 307.372C458.467 304.298 489.505 281.894 509.047 257.897" stroke="url(#paint1_linear)"/>
<path opacity="0.55" fill-rule="evenodd" clip-rule="evenodd" d="M252.232 186.434C258.121 186.434 262.895 181.551 262.895 175.528C262.895 169.504 258.121 164.622 252.232 164.622C246.344 164.622 241.57 169.504 241.57 175.528C241.57 181.551 246.344 186.434 252.232 186.434Z" fill="url(#paint2_linear)"/>
<path d="M252.232 169.487L231.954 122.848" stroke="url(#paint3_linear)"/>
<path d="M252.232 169.487V117.566" stroke="url(#paint4_linear)"/>
<path d="M252.232 169.487L272.402 122.848" stroke="url(#paint5_linear)"/>
<rect opacity="0.658877" x="227.354" y="115.18" width="9.95154" height="10.1792" fill="url(#paint6_linear)"/>
<rect opacity="0.658877" x="267.16" y="115.18" width="9.95154" height="10.1792" fill="url(#paint7_linear)"/>
<rect opacity="0.658877" x="247.257" y="107.909" width="9.95154" height="10.1792" fill="url(#paint8_linear)"/>
<path opacity="0.55" fill-rule="evenodd" clip-rule="evenodd" d="M252.232 325.007C258.121 325.007 262.895 329.89 262.895 335.914C262.895 341.937 258.121 346.82 252.232 346.82C246.344 346.82 241.57 341.937 241.57 335.914C241.57 329.89 246.344 325.007 252.232 325.007Z" fill="url(#paint9_linear)"/>
<path opacity="0.55" fill-rule="evenodd" clip-rule="evenodd" d="M298.254 208.908C302.06 213.883 309.074 214.782 313.919 210.916C318.765 207.049 319.608 199.883 315.802 194.908C311.996 189.933 304.982 189.035 300.136 192.901C295.29 196.767 294.448 203.934 298.254 208.908Z" fill="url(#paint10_linear)"/>
<path d="M311.888 198.031L336.302 150.965" stroke="url(#paint11_linear)"/>
<path d="M311.888 198.03L353.659 164.705" stroke="url(#paint12_linear)"/>
<path d="M311.888 198.031L362.446 185.135" stroke="url(#paint13_linear)"/>
<path opacity="0.658877" fill-rule="evenodd" clip-rule="evenodd" d="M339.498 142.157L345.93 150.564L337.741 157.097L331.309 148.69L339.498 142.157Z" fill="url(#paint14_linear)"/>
<path opacity="0.658877" fill-rule="evenodd" clip-rule="evenodd" d="M358.212 154.304L364.644 162.711L356.455 169.244L350.022 160.837L358.212 154.304Z" fill="url(#paint15_linear)"/>
<path opacity="0.55" fill-rule="evenodd" clip-rule="evenodd" d="M207.703 207.389C203.897 212.363 196.883 213.262 192.038 209.396C187.192 205.53 186.349 198.363 190.155 193.388C193.961 188.414 200.975 187.515 205.821 191.381C210.667 195.247 211.509 202.414 207.703 207.389Z" fill="url(#paint16_linear)"/>
<path d="M194.069 196.511L169.655 149.446" stroke="url(#paint17_linear)"/>
<path d="M194.069 196.511L152.298 163.186" stroke="url(#paint18_linear)"/>
<path d="M194.069 196.511L143.512 183.615" stroke="url(#paint19_linear)"/>
<path opacity="0.658877" fill-rule="evenodd" clip-rule="evenodd" d="M166.459 140.637L160.027 149.044L168.216 155.578L174.648 147.171L166.459 140.637Z" fill="url(#paint20_linear)"/>
<path opacity="0.658877" fill-rule="evenodd" clip-rule="evenodd" d="M140.73 174.265L134.298 182.672L142.488 189.205L148.92 180.798L140.73 174.265Z" fill="url(#paint21_linear)"/>
<path opacity="0.658877" fill-rule="evenodd" clip-rule="evenodd" d="M147.745 152.784L141.313 161.191L149.502 167.725L155.935 159.318L147.745 152.784Z" fill="url(#paint22_linear)"/>
<path opacity="0.55" fill-rule="evenodd" clip-rule="evenodd" d="M298.254 304.049C302.06 299.074 309.074 298.176 313.919 302.042C318.765 305.908 319.608 313.075 315.802 318.049C311.996 323.024 304.982 323.923 300.136 320.057C295.29 316.191 294.448 309.024 298.254 304.049Z" fill="url(#paint23_linear)"/>
<path d="M311.888 314.927L336.302 361.992" stroke="url(#paint24_linear)"/>
<path d="M311.888 314.927L353.659 348.252" stroke="url(#paint25_linear)"/>
<path d="M311.888 314.927L362.446 327.822" stroke="url(#paint26_linear)"/>
<path opacity="0.55" fill-rule="evenodd" clip-rule="evenodd" d="M207.703 302.527C203.897 297.552 196.883 296.653 192.038 300.519C187.192 304.385 186.349 311.552 190.155 316.527C193.961 321.501 200.975 322.4 205.821 318.534C210.667 314.668 211.509 307.501 207.703 302.527Z" fill="url(#paint27_linear)"/>
<path d="M194.069 313.404L169.655 360.469" stroke="url(#paint28_linear)"/>
<path d="M194.069 313.404L152.298 346.729" stroke="url(#paint29_linear)"/>
<path d="M194.069 313.404L143.512 326.3" stroke="url(#paint30_linear)"/>
<path opacity="0.658877" fill-rule="evenodd" clip-rule="evenodd" d="M140.73 335.65L134.298 327.243L142.488 320.71L148.92 329.117L140.73 335.65Z" fill="url(#paint31_linear)"/>
<path opacity="0.55" fill-rule="evenodd" clip-rule="evenodd" d="M322.345 258.03C322.345 264.043 327.127 268.918 333.026 268.918C338.924 268.918 343.706 264.043 343.706 258.03C343.706 252.017 338.924 247.142 333.026 247.142C327.127 247.142 322.345 252.017 322.345 258.03Z" fill="url(#paint32_linear)"/>
<path d="M338.942 258.03L384.614 237.323" stroke="url(#paint33_linear)"/>
<path d="M338.942 258.03H389.787" stroke="url(#paint34_linear)"/>
<path d="M338.942 258.03L384.614 278.626" stroke="url(#paint35_linear)"/>
<path opacity="0.545689" fill-rule="evenodd" clip-rule="evenodd" d="M182.119 258.03C182.119 264.043 177.337 268.918 171.439 268.918C165.54 268.918 160.759 264.043 160.759 258.03C160.759 252.017 165.54 247.142 171.439 247.142C177.337 247.142 182.119 252.017 182.119 258.03Z" fill="url(#paint36_linear)"/>
<path d="M165.523 258.03L119.851 237.323" stroke="url(#paint37_linear)"/>
<path d="M165.523 258.03H114.677" stroke="url(#paint38_linear)"/>
<path d="M165.523 258.03L119.851 278.626" stroke="url(#paint39_linear)"/>
<path opacity="0.658877" fill-rule="evenodd" clip-rule="evenodd" d="M112.341 232.625V242.787H122.309V232.625H112.341Z" fill="url(#paint40_linear)"/>
<path opacity="0.658877" fill-rule="evenodd" clip-rule="evenodd" d="M112.341 273.273V283.435H122.309V273.273H112.341Z" fill="url(#paint41_linear)"/>
<path opacity="0.658877" fill-rule="evenodd" clip-rule="evenodd" d="M105.221 252.949V263.111H115.189V252.949H105.221Z" fill="url(#paint42_linear)"/>
<path opacity="0.55" d="M329.148 255.936C329.148 299.038 294.933 333.961 252.75 333.961C210.566 333.961 176.351 299.038 176.351 255.936C176.351 212.834 210.566 177.911 252.75 177.911C294.933 177.911 329.148 212.834 329.148 255.936Z" stroke="url(#paint43_linear)"/>
<path d="M251.591 343.639L231.365 390.247" stroke="url(#paint44_linear)"/>
<path d="M251.591 343.639V395.526" stroke="url(#paint45_linear)"/>
<path d="M251.591 343.639L271.709 390.247" stroke="url(#paint46_linear)"/>
<rect opacity="0.658877" width="9.92621" height="10.1725" transform="matrix(1 0 0 -1 226.776 397.91)" fill="url(#paint47_linear)"/>
<rect opacity="0.658877" width="9.92621" height="10.1725" transform="matrix(1 0 0 -1 266.48 397.91)" fill="url(#paint48_linear)"/>
<rect opacity="0.658877" width="9.92621" height="10.1725" transform="matrix(1 0 0 -1 246.628 405.176)" fill="url(#paint49_linear)"/>
<rect opacity="0.658877" x="364.371" y="177.685" width="10.4209" height="10.6051" transform="rotate(52 364.371 177.685)" fill="url(#paint50_linear)"/>
<rect opacity="0.658877" width="10.4209" height="10.6051" transform="matrix(0.615662 -0.788011 -0.788011 -0.615662 338.643 371.99)" fill="url(#paint51_linear)"/>
<rect opacity="0.658877" width="10.4209" height="10.6051" transform="matrix(0.615662 -0.788011 -0.788011 -0.615662 364.306 339.143)" fill="url(#paint52_linear)"/>
<rect opacity="0.658877" width="10.4209" height="10.6051" transform="matrix(0.615662 -0.788011 -0.788011 -0.615662 357.444 360.23)" fill="url(#paint53_linear)"/>
<rect opacity="0.658877" x="166.028" y="370.66" width="10.4209" height="10.6051" transform="rotate(-128 166.028 370.66)" fill="url(#paint54_linear)"/>
<rect opacity="0.658877" x="147.228" y="358.9" width="10.4209" height="10.6051" transform="rotate(-128 147.228 358.9)" fill="url(#paint55_linear)"/>
<rect opacity="0.658877" x="391.133" y="234.962" width="9.92621" height="10.1725" transform="rotate(90 391.133 234.962)" fill="url(#paint56_linear)"/>
<rect opacity="0.658877" x="391.133" y="274.667" width="9.92621" height="10.1725" transform="rotate(90 391.133 274.667)" fill="url(#paint57_linear)"/>
<rect opacity="0.658877" x="398.399" y="254.814" width="9.92621" height="10.1725" transform="rotate(90 398.399 254.814)" fill="url(#paint58_linear)"/>
<path d="M252.991 199.355L308.186 254.55L252.991 309.746L197.795 254.55L252.991 199.355Z" fill="#202020" fill-opacity="0.3" stroke="url(#paint59_linear)"/>
<path fill-rule="evenodd" clip-rule="evenodd" d="M252.991 226.599L280.942 254.55L252.991 282.502L225.039 254.55L252.991 226.599Z" fill="#FF8E1E"/>
<defs>
<linearGradient id="paint0_linear" x1="470.036" y1="132.075" x2="190.631" y2="87.6943" gradientUnits="userSpaceOnUse">
<stop stop-color="#0533F5"/>
<stop offset="0.490467" stop-color="#F39949"/>
<stop offset="1" stop-color="#E4EBF2"/>
</linearGradient>
<linearGradient id="paint1_linear" x1="341.999" y1="188.004" x2="305.948" y2="314.543" gradientUnits="userSpaceOnUse">
<stop stop-color="#0533F5"/>
<stop offset="0.490467" stop-color="#F39949"/>
<stop offset="1" stop-color="#E4EBF2"/>
</linearGradient>
<linearGradient id="paint2_linear" x1="255.788" y1="161.243" x2="242.201" y2="170.885" gradientUnits="userSpaceOnUse">
<stop stop-color="#0533F5"/>
<stop offset="0.490467" stop-color="#F39949"/>
<stop offset="1" stop-color="#E4EBF2"/>
</linearGradient>
<linearGradient id="paint3_linear" x1="245.475" y1="115.625" x2="227.808" y2="121.2" gradientUnits="userSpaceOnUse">
<stop stop-color="#0533F5"/>
<stop offset="0.490467" stop-color="#F39949"/>
<stop offset="1" stop-color="#E4EBF2"/>
</linearGradient>
<linearGradient id="paint4_linear" x1="252.469" y1="109.524" x2="251.108" y2="109.551" gradientUnits="userSpaceOnUse">
<stop stop-color="#0533F5"/>
<stop offset="0.490467" stop-color="#F39949"/>
<stop offset="1" stop-color="#E4EBF2"/>
</linearGradient>
<linearGradient id="paint5_linear" x1="265.68" y1="115.625" x2="248.091" y2="121.146" gradientUnits="userSpaceOnUse">
<stop stop-color="#0533F5"/>
<stop offset="0.490467" stop-color="#F39949"/>
<stop offset="1" stop-color="#E4EBF2"/>
</linearGradient>
<linearGradient id="paint6_linear" x1="233.989" y1="113.603" x2="227.648" y2="118.103" gradientUnits="userSpaceOnUse">
<stop stop-color="#F39949"/>
<stop offset="1" stop-color="#E4EBF2"/>
</linearGradient>
<linearGradient id="paint7_linear" x1="273.795" y1="113.603" x2="267.454" y2="118.103" gradientUnits="userSpaceOnUse">
<stop stop-color="#F39949"/>
<stop offset="1" stop-color="#E4EBF2"/>
</linearGradient>
<linearGradient id="paint8_linear" x1="253.892" y1="106.332" x2="247.551" y2="110.832" gradientUnits="userSpaceOnUse">
<stop stop-color="#F39949"/>
<stop offset="1" stop-color="#E4EBF2"/>
</linearGradient>
<linearGradient id="paint9_linear" x1="255.788" y1="350.198" x2="242.201" y2="340.557" gradientUnits="userSpaceOnUse">
<stop stop-color="#0533F5"/>
<stop offset="0.490467" stop-color="#F39949"/>
<stop offset="1" stop-color="#E4EBF2"/>
</linearGradient>
<linearGradient id="paint10_linear" x1="320.941" y1="195.837" x2="304.076" y2="191.083" gradientUnits="userSpaceOnUse">
<stop stop-color="#0533F5"/>
<stop offset="0.490467" stop-color="#F39949"/>
<stop offset="1" stop-color="#E4EBF2"/>
</linearGradient>
<linearGradient id="paint11_linear" x1="351.241" y1="157.956" x2="334.544" y2="146.85" gradientUnits="userSpaceOnUse">
<stop stop-color="#0533F5"/>
<stop offset="0.490467" stop-color="#F39949"/>
<stop offset="1" stop-color="#E4EBF2"/>
</linearGradient>
<linearGradient id="paint12_linear" x1="360.451" y1="159.956" x2="359.851" y2="159.209" gradientUnits="userSpaceOnUse">
<stop stop-color="#0533F5"/>
<stop offset="0.490467" stop-color="#F39949"/>
<stop offset="1" stop-color="#E4EBF2"/>
</linearGradient>
<linearGradient id="paint13_linear" x1="363.976" y1="175.073" x2="348.173" y2="164.28" gradientUnits="userSpaceOnUse">
<stop stop-color="#0533F5"/>
<stop offset="0.490467" stop-color="#F39949"/>
<stop offset="1" stop-color="#E4EBF2"/>
</linearGradient>
<linearGradient id="paint14_linear" x1="345.178" y1="146.765" x2="337.229" y2="144.523" gradientUnits="userSpaceOnUse">
<stop stop-color="#F39949"/>
<stop offset="1" stop-color="#E4EBF2"/>
</linearGradient>
<linearGradient id="paint15_linear" x1="363.892" y1="158.912" x2="355.943" y2="156.67" gradientUnits="userSpaceOnUse">
<stop stop-color="#F39949"/>
<stop offset="1" stop-color="#E4EBF2"/>
</linearGradient>
<linearGradient id="paint16_linear" x1="185.016" y1="194.318" x2="201.881" y2="189.564" gradientUnits="userSpaceOnUse">
<stop stop-color="#0533F5"/>
<stop offset="0.490467" stop-color="#F39949"/>
<stop offset="1" stop-color="#E4EBF2"/>
</linearGradient>
<linearGradient id="paint17_linear" x1="154.716" y1="156.437" x2="171.413" y2="145.331" gradientUnits="userSpaceOnUse">
<stop stop-color="#0533F5"/>
<stop offset="0.490467" stop-color="#F39949"/>
<stop offset="1" stop-color="#E4EBF2"/>
</linearGradient>
<linearGradient id="paint18_linear" x1="145.506" y1="158.436" x2="146.106" y2="157.69" gradientUnits="userSpaceOnUse">
<stop stop-color="#0533F5"/>
<stop offset="0.490467" stop-color="#F39949"/>
<stop offset="1" stop-color="#E4EBF2"/>
</linearGradient>
<linearGradient id="paint19_linear" x1="160.36" y1="181.618" x2="165.684" y2="196.767" gradientUnits="userSpaceOnUse">
<stop stop-color="#0533F5"/>
<stop offset="0.490467" stop-color="#F39949"/>
<stop offset="1" stop-color="#E4EBF2"/>
</linearGradient>
<linearGradient id="paint20_linear" x1="160.779" y1="145.246" x2="168.728" y2="143.004" gradientUnits="userSpaceOnUse">
<stop stop-color="#F39949"/>
<stop offset="1" stop-color="#E4EBF2"/>
</linearGradient>
<linearGradient id="paint21_linear" x1="135.05" y1="178.873" x2="143" y2="176.631" gradientUnits="userSpaceOnUse">
<stop stop-color="#F39949"/>
<stop offset="1" stop-color="#E4EBF2"/>
</linearGradient>
<linearGradient id="paint22_linear" x1="142.065" y1="157.393" x2="150.015" y2="155.151" gradientUnits="userSpaceOnUse">
<stop stop-color="#F39949"/>
<stop offset="1" stop-color="#E4EBF2"/>
</linearGradient>
<linearGradient id="paint23_linear" x1="320.941" y1="317.12" x2="304.076" y2="321.874" gradientUnits="userSpaceOnUse">
<stop stop-color="#0533F5"/>
<stop offset="0.490467" stop-color="#F39949"/>
<stop offset="1" stop-color="#E4EBF2"/>
</linearGradient>
<linearGradient id="paint24_linear" x1="351.241" y1="355.001" x2="334.544" y2="366.107" gradientUnits="userSpaceOnUse">
<stop stop-color="#0533F5"/>
<stop offset="0.490467" stop-color="#F39949"/>
<stop offset="1" stop-color="#E4EBF2"/>
</linearGradient>
<linearGradient id="paint25_linear" x1="360.451" y1="353.002" x2="359.851" y2="353.748" gradientUnits="userSpaceOnUse">
<stop stop-color="#0533F5"/>
<stop offset="0.490467" stop-color="#F39949"/>
<stop offset="1" stop-color="#E4EBF2"/>
</linearGradient>
<linearGradient id="paint26_linear" x1="363.976" y1="337.884" x2="348.173" y2="348.677" gradientUnits="userSpaceOnUse">
<stop stop-color="#0533F5"/>
<stop offset="0.490467" stop-color="#F39949"/>
<stop offset="1" stop-color="#E4EBF2"/>
</linearGradient>
<linearGradient id="paint27_linear" x1="185.016" y1="315.597" x2="201.881" y2="320.352" gradientUnits="userSpaceOnUse">
<stop stop-color="#0533F5"/>
<stop offset="0.490467" stop-color="#F39949"/>
<stop offset="1" stop-color="#E4EBF2"/>
</linearGradient>
<linearGradient id="paint28_linear" x1="177.791" y1="367.759" x2="198.275" y2="360.046" gradientUnits="userSpaceOnUse">
<stop stop-color="#0533F5"/>
<stop offset="0.490467" stop-color="#F39949"/>
<stop offset="1" stop-color="#E4EBF2"/>
</linearGradient>
<linearGradient id="paint29_linear" x1="166.218" y1="351.891" x2="188.112" y2="331.972" gradientUnits="userSpaceOnUse">
<stop stop-color="#0533F5"/>
<stop offset="0.490467" stop-color="#F39949"/>
<stop offset="1" stop-color="#E4EBF2"/>
</linearGradient>
<linearGradient id="paint30_linear" x1="160.36" y1="328.297" x2="165.684" y2="313.148" gradientUnits="userSpaceOnUse">
<stop stop-color="#0533F5"/>
<stop offset="0.490467" stop-color="#F39949"/>
<stop offset="1" stop-color="#E4EBF2"/>
</linearGradient>
<linearGradient id="paint31_linear" x1="135.05" y1="331.042" x2="143" y2="333.284" gradientUnits="userSpaceOnUse">
<stop stop-color="#F39949"/>
<stop offset="1" stop-color="#E4EBF2"/>
</linearGradient>
<linearGradient id="paint32_linear" x1="347.015" y1="261.661" x2="337.04" y2="248.181" gradientUnits="userSpaceOnUse">
<stop stop-color="#0533F5"/>
<stop offset="0.490467" stop-color="#F39949"/>
<stop offset="1" stop-color="#E4EBF2"/>
</linearGradient>
<linearGradient id="paint33_linear" x1="391.688" y1="251.129" x2="385.798" y2="233.231" gradientUnits="userSpaceOnUse">
<stop stop-color="#0533F5"/>
<stop offset="0.490467" stop-color="#F39949"/>
<stop offset="1" stop-color="#E4EBF2"/>
</linearGradient>
<linearGradient id="paint34_linear" x1="397.662" y1="258.197" x2="397.649" y2="257.239" gradientUnits="userSpaceOnUse">
<stop stop-color="#0533F5"/>
<stop offset="0.490467" stop-color="#F39949"/>
<stop offset="1" stop-color="#E4EBF2"/>
</linearGradient>
<linearGradient id="paint35_linear" x1="391.688" y1="271.763" x2="385.854" y2="253.941" gradientUnits="userSpaceOnUse">
<stop stop-color="#0533F5"/>
<stop offset="0.490467" stop-color="#F39949"/>
<stop offset="1" stop-color="#E4EBF2"/>
</linearGradient>
<linearGradient id="paint36_linear" x1="157.45" y1="261.661" x2="167.425" y2="248.181" gradientUnits="userSpaceOnUse">
<stop stop-color="#0533F5"/>
<stop offset="0.490467" stop-color="#F39949"/>
<stop offset="1" stop-color="#E4EBF2"/>
</linearGradient>
<linearGradient id="paint37_linear" x1="112.777" y1="251.129" x2="118.667" y2="233.231" gradientUnits="userSpaceOnUse">
<stop stop-color="#0533F5"/>
<stop offset="0.490467" stop-color="#F39949"/>
<stop offset="1" stop-color="#E4EBF2"/>
</linearGradient>
<linearGradient id="paint38_linear" x1="106.802" y1="258.197" x2="106.816" y2="257.239" gradientUnits="userSpaceOnUse">
<stop stop-color="#0533F5"/>
<stop offset="0.490467" stop-color="#F39949"/>
<stop offset="1" stop-color="#E4EBF2"/>
</linearGradient>
<linearGradient id="paint39_linear" x1="112.777" y1="271.763" x2="118.61" y2="253.941" gradientUnits="userSpaceOnUse">
<stop stop-color="#0533F5"/>
<stop offset="0.490467" stop-color="#F39949"/>
<stop offset="1" stop-color="#E4EBF2"/>
</linearGradient>
<linearGradient id="paint40_linear" x1="110.797" y1="239.4" x2="115.452" y2="233.11" gradientUnits="userSpaceOnUse">
<stop stop-color="#F39949"/>
<stop offset="1" stop-color="#E4EBF2"/>
</linearGradient>
<linearGradient id="paint41_linear" x1="110.797" y1="280.049" x2="115.452" y2="273.758" gradientUnits="userSpaceOnUse">
<stop stop-color="#F39949"/>
<stop offset="1" stop-color="#E4EBF2"/>
</linearGradient>
<linearGradient id="paint42_linear" x1="103.677" y1="259.725" x2="108.332" y2="253.434" gradientUnits="userSpaceOnUse">
<stop stop-color="#F39949"/>
<stop offset="1" stop-color="#E4EBF2"/>
</linearGradient>
<linearGradient id="paint43_linear" x1="278.394" y1="153.087" x2="180.515" y2="222.662" gradientUnits="userSpaceOnUse">
<stop stop-color="#0533F5"/>
<stop offset="0.490467" stop-color="#F39949"/>
<stop offset="1" stop-color="#E4EBF2"/>
</linearGradient>
<linearGradient id="paint44_linear" x1="244.851" y1="397.466" x2="227.223" y2="391.913" gradientUnits="userSpaceOnUse">
<stop stop-color="#0533F5"/>
<stop offset="0.490467" stop-color="#F39949"/>
<stop offset="1" stop-color="#E4EBF2"/>
</linearGradient>
<linearGradient id="paint45_linear" x1="251.828" y1="403.563" x2="250.47" y2="403.536" gradientUnits="userSpaceOnUse">
<stop stop-color="#0533F5"/>
<stop offset="0.490467" stop-color="#F39949"/>
<stop offset="1" stop-color="#E4EBF2"/>
</linearGradient>
<linearGradient id="paint46_linear" x1="265.005" y1="397.466" x2="247.455" y2="391.967" gradientUnits="userSpaceOnUse">
<stop stop-color="#0533F5"/>
<stop offset="0.490467" stop-color="#F39949"/>
<stop offset="1" stop-color="#E4EBF2"/>
</linearGradient>
<linearGradient id="paint47_linear" x1="6.61824" y1="-1.57556" x2="0.285858" y2="2.90961" gradientUnits="userSpaceOnUse">
<stop stop-color="#F39949"/>
<stop offset="1" stop-color="#E4EBF2"/>
</linearGradient>
<linearGradient id="paint48_linear" x1="6.61824" y1="-1.57556" x2="0.285858" y2="2.90961" gradientUnits="userSpaceOnUse">
<stop stop-color="#F39949"/>
<stop offset="1" stop-color="#E4EBF2"/>
</linearGradient>
<linearGradient id="paint49_linear" x1="6.61824" y1="-1.57556" x2="0.285858" y2="2.90961" gradientUnits="userSpaceOnUse">
<stop stop-color="#F39949"/>
<stop offset="1" stop-color="#E4EBF2"/>
</linearGradient>
<linearGradient id="paint50_linear" x1="371.319" y1="176.042" x2="364.702" y2="180.762" gradientUnits="userSpaceOnUse">
<stop stop-color="#F39949"/>
<stop offset="1" stop-color="#E4EBF2"/>
</linearGradient>
<linearGradient id="paint51_linear" x1="6.94808" y1="-1.64258" x2="0.33119" y2="3.07695" gradientUnits="userSpaceOnUse">
<stop stop-color="#F39949"/>
<stop offset="1" stop-color="#E4EBF2"/>
</linearGradient>
<linearGradient id="paint52_linear" x1="6.94808" y1="-1.64258" x2="0.33119" y2="3.07695" gradientUnits="userSpaceOnUse">
<stop stop-color="#F39949"/>
<stop offset="1" stop-color="#E4EBF2"/>
</linearGradient>
<linearGradient id="paint53_linear" x1="6.94808" y1="-1.64258" x2="0.33119" y2="3.07695" gradientUnits="userSpaceOnUse">
<stop stop-color="#F39949"/>
<stop offset="1" stop-color="#E4EBF2"/>
</linearGradient>
<linearGradient id="paint54_linear" x1="172.976" y1="369.017" x2="166.36" y2="373.737" gradientUnits="userSpaceOnUse">
<stop stop-color="#F39949"/>
<stop offset="1" stop-color="#E4EBF2"/>
</linearGradient>
<linearGradient id="paint55_linear" x1="154.176" y1="357.258" x2="147.559" y2="361.977" gradientUnits="userSpaceOnUse">
<stop stop-color="#F39949"/>
<stop offset="1" stop-color="#E4EBF2"/>
</linearGradient>
<linearGradient id="paint56_linear" x1="397.751" y1="233.386" x2="391.419" y2="237.872" gradientUnits="userSpaceOnUse">
<stop stop-color="#F39949"/>
<stop offset="1" stop-color="#E4EBF2"/>
</linearGradient>
<linearGradient id="paint57_linear" x1="397.751" y1="273.091" x2="391.419" y2="277.576" gradientUnits="userSpaceOnUse">
<stop stop-color="#F39949"/>
<stop offset="1" stop-color="#E4EBF2"/>
</linearGradient>
<linearGradient id="paint58_linear" x1="405.017" y1="253.239" x2="398.685" y2="257.724" gradientUnits="userSpaceOnUse">
<stop stop-color="#F39949"/>
<stop offset="1" stop-color="#E4EBF2"/>
</linearGradient>
<linearGradient id="paint59_linear" x1="298.922" y1="227.262" x2="238.389" y2="217.647" gradientUnits="userSpaceOnUse">
<stop stop-color="#0533F5"/>
<stop offset="0.490467" stop-color="#F39949"/>
<stop offset="1" stop-color="#E4EBF2"/>
</linearGradient>
</defs>
</svg>
