<svg xmlns="http://www.w3.org/2000/svg" width="517" height="517" fill="none"><path fill="#20212E" fill-opacity=".32" stroke="url(#paint0_linear)" d="M6.07 258.5L258.06 1.18 510.05 258.5 258.06 515.82 6.07 258.5z" opacity=".893"/><path stroke="url(#paint1_linear)" d="M7.82 259.45s30.32-34.08 98.34-50.55c68.02-16.47 119.24 16.5 164.77 50.55 45.53 34.06 80.06 51.47 133.81 48.4 53.76-3.08 84.8-25.49 104.34-49.48" opacity=".807"/><path fill="url(#paint2_linear)" fill-rule="evenodd" d="M252.26 186.9c5.9 0 10.67-4.88 10.67-10.9 0-6.03-4.78-10.9-10.67-10.9A10.79 10.79 0 00241.6 176c0 6.02 4.77 10.9 10.66 10.9z" clip-rule="evenodd" opacity=".55"/><path stroke="url(#paint3_linear)" d="M252.26 169.96l-20.28-46.64"/><path stroke="url(#paint4_linear)" d="M252.26 169.96v-51.93"/><path stroke="url(#paint5_linear)" d="M252.26 169.96l20.17-46.64"/><path fill="url(#paint6_linear)" d="M227.38 115.65h9.96v10.18h-9.96z" opacity=".659"/><path fill="url(#paint7_linear)" d="M267.19 115.65h9.95v10.18h-9.95z" opacity=".659"/><path fill="url(#paint8_linear)" d="M247.29 108.38h9.95v10.18h-9.95z" opacity=".659"/><path fill="url(#paint9_linear)" fill-rule="evenodd" d="M252.26 325.48c5.9 0 10.67 4.88 10.67 10.9 0 6.03-4.78 10.91-10.67 10.91a10.79 10.79 0 01-10.66-10.9c0-6.03 4.77-10.91 10.66-10.91z" clip-rule="evenodd" opacity=".55"/><path fill="url(#paint10_linear)" fill-rule="evenodd" d="M298.28 209.38a11 11 0 0015.67 2 11.56 11.56 0 001.88-16 11.01 11.01 0 00-15.66-2.01 11.56 11.56 0 00-1.89 16z" clip-rule="evenodd" opacity=".55"/><path stroke="url(#paint11_linear)" d="M311.92 198.5l24.41-47.06"/><path stroke="url(#paint12_linear)" d="M311.92 198.5l41.77-33.32"/><path stroke="url(#paint13_linear)" d="M311.92 198.5l50.56-12.9"/><path fill="url(#paint14_linear)" fill-rule="evenodd" d="M339.53 142.63l6.43 8.4-8.19 6.54-6.43-8.41 8.19-6.53z" clip-rule="evenodd" opacity=".659"/><path fill="url(#paint15_linear)" fill-rule="evenodd" d="M358.24 154.77l6.43 8.41-8.19 6.53-6.43-8.4 8.2-6.54z" clip-rule="evenodd" opacity=".659"/><path fill="url(#paint16_linear)" fill-rule="evenodd" d="M207.73 207.86a11 11 0 01-15.66 2 11.56 11.56 0 01-1.88-16 11.01 11.01 0 0115.66-2 11.56 11.56 0 011.88 16z" clip-rule="evenodd" opacity=".55"/><path stroke="url(#paint17_linear)" d="M194.1 196.98l-24.41-47.06"/><path stroke="url(#paint18_linear)" d="M194.1 196.98l-41.77-33.32"/><path stroke="url(#paint19_linear)" d="M194.1 196.98l-50.56-12.9"/><path fill="url(#paint20_linear)" fill-rule="evenodd" d="M166.49 141.1l-6.43 8.41 8.19 6.54 6.43-8.4-8.2-6.54z" clip-rule="evenodd" opacity=".659"/><path fill="url(#paint21_linear)" fill-rule="evenodd" d="M140.76 174.74l-6.43 8.4 8.19 6.54 6.43-8.41-8.19-6.53z" clip-rule="evenodd" opacity=".659"/><path fill="url(#paint22_linear)" fill-rule="evenodd" d="M147.78 153.25l-6.44 8.41 8.2 6.53 6.43-8.4-8.2-6.54z" clip-rule="evenodd" opacity=".659"/><path fill="url(#paint23_linear)" fill-rule="evenodd" d="M298.28 304.52a11 11 0 0115.67-2 11.56 11.56 0 011.88 16 11.01 11.01 0 01-15.66 2 11.56 11.56 0 01-1.89-16z" clip-rule="evenodd" opacity=".55"/><path stroke="url(#paint24_linear)" d="M311.92 315.4l24.41 47.06"/><path stroke="url(#paint25_linear)" d="M311.92 315.4l41.77 33.32"/><path stroke="url(#paint26_linear)" d="M311.92 315.4l50.56 12.9"/><path fill="url(#paint27_linear)" fill-rule="evenodd" d="M207.73 303a11.01 11.01 0 00-15.66-2.01 11.56 11.56 0 00-1.88 16 11.01 11.01 0 0015.66 2.01 11.56 11.56 0 001.88-16z" clip-rule="evenodd" opacity=".55"/><path stroke="url(#paint28_linear)" d="M194.1 313.87l-24.41 47.07"/><path stroke="url(#paint29_linear)" d="M194.1 313.87l-41.77 33.33"/><path stroke="url(#paint30_linear)" d="M194.1 313.87l-50.56 12.9"/><path fill="url(#paint31_linear)" fill-rule="evenodd" d="M140.76 336.12l-6.43-8.4 8.19-6.54 6.43 8.4-8.19 6.54z" clip-rule="evenodd" opacity=".659"/><path fill="url(#paint32_linear)" fill-rule="evenodd" d="M322.38 258.5c0 6.01 4.78 10.89 10.68 10.89 5.9 0 10.68-4.88 10.68-10.89 0-6.01-4.79-10.89-10.68-10.89-5.9 0-10.69 4.88-10.69 10.89z" clip-rule="evenodd" opacity=".55"/><path stroke="url(#paint33_linear)" d="M338.97 258.5l45.67-20.7"/><path stroke="url(#paint34_linear)" d="M338.97 258.5h50.85"/><path stroke="url(#paint35_linear)" d="M338.97 258.5l45.67 20.6"/><path fill="url(#paint36_linear)" fill-rule="evenodd" d="M182.15 258.5c0 6.01-4.78 10.89-10.68 10.89-5.9 0-10.68-4.88-10.68-10.89 0-6.01 4.78-10.89 10.68-10.89 5.9 0 10.68 4.88 10.68 10.89z" clip-rule="evenodd" opacity=".546"/><path stroke="url(#paint37_linear)" d="M165.55 258.5l-45.67-20.7"/><path stroke="url(#paint38_linear)" d="M165.55 258.5h-50.84"/><path stroke="url(#paint39_linear)" d="M165.55 258.5l-45.67 20.6"/><path fill="url(#paint40_linear)" fill-rule="evenodd" d="M112.37 233.1v10.16h9.97V233.1h-9.97z" clip-rule="evenodd" opacity=".659"/><path fill="url(#paint41_linear)" fill-rule="evenodd" d="M112.37 273.74v10.16h9.97v-10.16h-9.97z" clip-rule="evenodd" opacity=".659"/><path fill="url(#paint42_linear)" fill-rule="evenodd" d="M105.25 253.42v10.16h9.97v-10.16h-9.97z" clip-rule="evenodd" opacity=".659"/><path stroke="url(#paint43_linear)" d="M331.18 256.4c0 43.1-34.22 78.03-76.4 78.03-42.18 0-76.4-34.92-76.4-78.02 0-43.1 34.22-78.03 76.4-78.03 42.18 0 76.4 34.92 76.4 78.03z" opacity=".55"/><path stroke="url(#paint44_linear)" d="M251.62 344.1l-20.22 46.62"/><path stroke="url(#paint45_linear)" d="M251.62 344.1V396"/><path stroke="url(#paint46_linear)" d="M251.62 344.1l20.12 46.62"/><path fill="url(#paint47_linear)" d="M0 0h9.93v10.17H0z" opacity=".659" transform="matrix(1 0 0 -1 226.806 398.38)"/><path fill="url(#paint48_linear)" d="M0 0h9.93v10.17H0z" opacity=".659" transform="matrix(1 0 0 -1 266.51 398.38)"/><path fill="url(#paint49_linear)" d="M0 0h9.93v10.17H0z" opacity=".659" transform="matrix(1 0 0 -1 246.658 405.646)"/><path fill="url(#paint50_linear)" d="M364.4 178.16h10.42v10.6H364.4z" opacity=".659" transform="rotate(52 364.4 178.155)"/><path fill="url(#paint51_linear)" d="M0 0h10.42v10.6H0z" opacity=".659" transform="scale(1 -1) rotate(52 551.164 160.961)"/><path fill="url(#paint52_linear)" d="M0 0h10.42v10.6H0z" opacity=".659" transform="scale(1 -1) rotate(52 530.322 203.694)"/><path fill="url(#paint53_linear)" d="M0 0h10.42v10.6H0z" opacity=".659" transform="scale(1 -1) rotate(52 548.509 186.114)"/><path fill="url(#paint54_linear)" d="M166.06 371.13h10.42v10.6h-10.42z" opacity=".659" transform="rotate(-128 166.058 371.13)"/><path fill="url(#paint55_linear)" d="M147.26 359.37h10.42v10.6h-10.42z" opacity=".659" transform="rotate(-128 147.257 359.37)"/><path fill="url(#paint56_linear)" d="M391.16 235.43h9.93v10.17h-9.93z" opacity=".659" transform="rotate(90 391.163 235.432)"/><path fill="url(#paint57_linear)" d="M391.16 275.14h9.93v10.17h-9.93z" opacity=".659" transform="rotate(90 391.163 275.137)"/><path fill="url(#paint58_linear)" d="M398.43 255.28h9.92v10.18h-9.92z" opacity=".659" transform="rotate(90 398.429 255.284)"/><path fill="#202020" fill-opacity=".3" stroke="url(#paint59_linear)" d="M259.02 203.82l55.2 55.2-55.2 55.2-55.2-55.2 55.2-55.2z"/><path fill="#FF8E1E" fill-rule="evenodd" d="M259.02 231.07l27.95 27.95-27.95 27.95-27.95-27.95 27.95-27.95z" clip-rule="evenodd"/><defs><linearGradient id="paint30_linear" x1="160.39" x2="165.714" y1="328.767" y2="313.618" gradientUnits="userSpaceOnUse"><stop stop-color="#0533F5"/><stop offset=".49" stop-color="#F39949"/><stop offset="1" stop-color="#E4EBF2"/></linearGradient><linearGradient id="paint0_linear" x1="470.065" x2="190.661" y1="132.545" y2="88.164" gradientUnits="userSpaceOnUse"><stop stop-color="#0533F5"/><stop offset=".49" stop-color="#F39949"/><stop offset="1" stop-color="#E4EBF2"/></linearGradient><linearGradient id="paint2_linear" x1="255.818" x2="242.231" y1="161.713" y2="171.355" gradientUnits="userSpaceOnUse"><stop stop-color="#0533F5"/><stop offset=".49" stop-color="#F39949"/><stop offset="1" stop-color="#E4EBF2"/></linearGradient><linearGradient id="paint3_linear" x1="245.505" x2="227.838" y1="116.095" y2="121.67" gradientUnits="userSpaceOnUse"><stop stop-color="#0533F5"/><stop offset=".49" stop-color="#F39949"/><stop offset="1" stop-color="#E4EBF2"/></linearGradient><linearGradient id="paint4_linear" x1="252.499" x2="251.138" y1="109.994" y2="110.021" gradientUnits="userSpaceOnUse"><stop stop-color="#0533F5"/><stop offset=".49" stop-color="#F39949"/><stop offset="1" stop-color="#E4EBF2"/></linearGradient><linearGradient id="paint5_linear" x1="265.71" x2="248.121" y1="116.095" y2="121.616" gradientUnits="userSpaceOnUse"><stop stop-color="#0533F5"/><stop offset=".49" stop-color="#F39949"/><stop offset="1" stop-color="#E4EBF2"/></linearGradient><linearGradient id="paint6_linear" x1="234.018" x2="227.678" y1="114.073" y2="118.572" gradientUnits="userSpaceOnUse"><stop stop-color="#F39949"/><stop offset="1" stop-color="#E4EBF2"/></linearGradient><linearGradient id="paint7_linear" x1="273.825" x2="267.484" y1="114.073" y2="118.572" gradientUnits="userSpaceOnUse"><stop stop-color="#F39949"/><stop offset="1" stop-color="#E4EBF2"/></linearGradient><linearGradient id="paint8_linear" x1="253.922" x2="247.581" y1="106.802" y2="111.301" gradientUnits="userSpaceOnUse"><stop stop-color="#F39949"/><stop offset="1" stop-color="#E4EBF2"/></linearGradient><linearGradient id="paint9_linear" x1="255.818" x2="242.231" y1="350.668" y2="341.026" gradientUnits="userSpaceOnUse"><stop stop-color="#0533F5"/><stop offset=".49" stop-color="#F39949"/><stop offset="1" stop-color="#E4EBF2"/></linearGradient><linearGradient id="paint10_linear" x1="320.971" x2="304.106" y1="196.307" y2="191.553" gradientUnits="userSpaceOnUse"><stop stop-color="#0533F5"/><stop offset=".49" stop-color="#F39949"/><stop offset="1" stop-color="#E4EBF2"/></linearGradient><linearGradient id="paint11_linear" x1="351.271" x2="334.574" y1="158.426" y2="147.32" gradientUnits="userSpaceOnUse"><stop stop-color="#0533F5"/><stop offset=".49" stop-color="#F39949"/><stop offset="1" stop-color="#E4EBF2"/></linearGradient><linearGradient id="paint12_linear" x1="360.481" x2="359.881" y1="160.425" y2="159.679" gradientUnits="userSpaceOnUse"><stop stop-color="#0533F5"/><stop offset=".49" stop-color="#F39949"/><stop offset="1" stop-color="#E4EBF2"/></linearGradient><linearGradient id="paint13_linear" x1="364.006" x2="348.203" y1="175.543" y2="164.75" gradientUnits="userSpaceOnUse"><stop stop-color="#0533F5"/><stop offset=".49" stop-color="#F39949"/><stop offset="1" stop-color="#E4EBF2"/></linearGradient><linearGradient id="paint14_linear" x1="345.208" x2="337.259" y1="147.235" y2="144.993" gradientUnits="userSpaceOnUse"><stop stop-color="#F39949"/><stop offset="1" stop-color="#E4EBF2"/></linearGradient><linearGradient id="paint15_linear" x1="363.922" x2="355.973" y1="159.382" y2="157.14" gradientUnits="userSpaceOnUse"><stop stop-color="#F39949"/><stop offset="1" stop-color="#E4EBF2"/></linearGradient><linearGradient id="paint16_linear" x1="185.046" x2="201.911" y1="194.788" y2="190.034" gradientUnits="userSpaceOnUse"><stop stop-color="#0533F5"/><stop offset=".49" stop-color="#F39949"/><stop offset="1" stop-color="#E4EBF2"/></linearGradient><linearGradient id="paint17_linear" x1="154.746" x2="171.443" y1="156.907" y2="145.8" gradientUnits="userSpaceOnUse"><stop stop-color="#0533F5"/><stop offset=".49" stop-color="#F39949"/><stop offset="1" stop-color="#E4EBF2"/></linearGradient><linearGradient id="paint18_linear" x1="145.536" x2="146.136" y1="158.906" y2="158.159" gradientUnits="userSpaceOnUse"><stop stop-color="#0533F5"/><stop offset=".49" stop-color="#F39949"/><stop offset="1" stop-color="#E4EBF2"/></linearGradient><linearGradient id="paint19_linear" x1="160.39" x2="165.714" y1="182.088" y2="197.237" gradientUnits="userSpaceOnUse"><stop stop-color="#0533F5"/><stop offset=".49" stop-color="#F39949"/><stop offset="1" stop-color="#E4EBF2"/></linearGradient><linearGradient id="paint20_linear" x1="160.809" x2="168.758" y1="145.715" y2="143.474" gradientUnits="userSpaceOnUse"><stop stop-color="#F39949"/><stop offset="1" stop-color="#E4EBF2"/></linearGradient><linearGradient id="paint21_linear" x1="135.08" x2="143.03" y1="179.343" y2="177.101" gradientUnits="userSpaceOnUse"><stop stop-color="#F39949"/><stop offset="1" stop-color="#E4EBF2"/></linearGradient><linearGradient id="paint22_linear" x1="142.095" x2="150.044" y1="157.862" y2="155.621" gradientUnits="userSpaceOnUse"><stop stop-color="#F39949"/><stop offset="1" stop-color="#E4EBF2"/></linearGradient><linearGradient id="paint23_linear" x1="320.971" x2="304.106" y1="317.59" y2="322.344" gradientUnits="userSpaceOnUse"><stop stop-color="#0533F5"/><stop offset=".49" stop-color="#F39949"/><stop offset="1" stop-color="#E4EBF2"/></linearGradient><linearGradient id="paint24_linear" x1="351.271" x2="334.574" y1="355.471" y2="366.577" gradientUnits="userSpaceOnUse"><stop stop-color="#0533F5"/><stop offset=".49" stop-color="#F39949"/><stop offset="1" stop-color="#E4EBF2"/></linearGradient><linearGradient id="paint25_linear" x1="360.481" x2="359.881" y1="353.471" y2="354.218" gradientUnits="userSpaceOnUse"><stop stop-color="#0533F5"/><stop offset=".49" stop-color="#F39949"/><stop offset="1" stop-color="#E4EBF2"/></linearGradient><linearGradient id="paint26_linear" x1="364.006" x2="348.203" y1="338.354" y2="349.147" gradientUnits="userSpaceOnUse"><stop stop-color="#0533F5"/><stop offset=".49" stop-color="#F39949"/><stop offset="1" stop-color="#E4EBF2"/></linearGradient><linearGradient id="paint27_linear" x1="185.046" x2="201.911" y1="316.067" y2="320.821" gradientUnits="userSpaceOnUse"><stop stop-color="#0533F5"/><stop offset=".49" stop-color="#F39949"/><stop offset="1" stop-color="#E4EBF2"/></linearGradient><linearGradient id="paint28_linear" x1="177.821" x2="198.305" y1="368.229" y2="360.516" gradientUnits="userSpaceOnUse"><stop stop-color="#0533F5"/><stop offset=".49" stop-color="#F39949"/><stop offset="1" stop-color="#E4EBF2"/></linearGradient><linearGradient id="paint29_linear" x1="166.248" x2="188.142" y1="352.361" y2="332.442" gradientUnits="userSpaceOnUse"><stop stop-color="#0533F5"/><stop offset=".49" stop-color="#F39949"/><stop offset="1" stop-color="#E4EBF2"/></linearGradient><linearGradient id="paint1_linear" x1="342.029" x2="305.978" y1="188.473" y2="315.012" gradientUnits="userSpaceOnUse"><stop stop-color="#0533F5"/><stop offset=".49" stop-color="#F39949"/><stop offset="1" stop-color="#E4EBF2"/></linearGradient><linearGradient id="paint31_linear" x1="135.08" x2="143.03" y1="331.512" y2="333.754" gradientUnits="userSpaceOnUse"><stop stop-color="#F39949"/><stop offset="1" stop-color="#E4EBF2"/></linearGradient><linearGradient id="paint32_linear" x1="347.044" x2="337.07" y1="262.131" y2="248.651" gradientUnits="userSpaceOnUse"><stop stop-color="#0533F5"/><stop offset=".49" stop-color="#F39949"/><stop offset="1" stop-color="#E4EBF2"/></linearGradient><linearGradient id="paint33_linear" x1="391.718" x2="385.828" y1="251.599" y2="233.701" gradientUnits="userSpaceOnUse"><stop stop-color="#0533F5"/><stop offset=".49" stop-color="#F39949"/><stop offset="1" stop-color="#E4EBF2"/></linearGradient><linearGradient id="paint34_linear" x1="397.692" x2="397.679" y1="258.667" y2="257.709" gradientUnits="userSpaceOnUse"><stop stop-color="#0533F5"/><stop offset=".49" stop-color="#F39949"/><stop offset="1" stop-color="#E4EBF2"/></linearGradient><linearGradient id="paint35_linear" x1="391.718" x2="385.884" y1="272.232" y2="254.411" gradientUnits="userSpaceOnUse"><stop stop-color="#0533F5"/><stop offset=".49" stop-color="#F39949"/><stop offset="1" stop-color="#E4EBF2"/></linearGradient><linearGradient id="paint36_linear" x1="157.48" x2="167.455" y1="262.131" y2="248.651" gradientUnits="userSpaceOnUse"><stop stop-color="#0533F5"/><stop offset=".49" stop-color="#F39949"/><stop offset="1" stop-color="#E4EBF2"/></linearGradient><linearGradient id="paint37_linear" x1="112.807" x2="118.697" y1="251.599" y2="233.701" gradientUnits="userSpaceOnUse"><stop stop-color="#0533F5"/><stop offset=".49" stop-color="#F39949"/><stop offset="1" stop-color="#E4EBF2"/></linearGradient><linearGradient id="paint38_linear" x1="106.832" x2="106.846" y1="258.667" y2="257.709" gradientUnits="userSpaceOnUse"><stop stop-color="#0533F5"/><stop offset=".49" stop-color="#F39949"/><stop offset="1" stop-color="#E4EBF2"/></linearGradient><linearGradient id="paint39_linear" x1="112.807" x2="118.64" y1="272.232" y2="254.411" gradientUnits="userSpaceOnUse"><stop stop-color="#0533F5"/><stop offset=".49" stop-color="#F39949"/><stop offset="1" stop-color="#E4EBF2"/></linearGradient><linearGradient id="paint40_linear" x1="110.827" x2="115.482" y1="239.87" y2="233.58" gradientUnits="userSpaceOnUse"><stop stop-color="#F39949"/><stop offset="1" stop-color="#E4EBF2"/></linearGradient><linearGradient id="paint41_linear" x1="110.827" x2="115.482" y1="280.518" y2="274.228" gradientUnits="userSpaceOnUse"><stop stop-color="#F39949"/><stop offset="1" stop-color="#E4EBF2"/></linearGradient><linearGradient id="paint42_linear" x1="103.707" x2="108.362" y1="260.194" y2="253.904" gradientUnits="userSpaceOnUse"><stop stop-color="#F39949"/><stop offset="1" stop-color="#E4EBF2"/></linearGradient><linearGradient id="paint43_linear" x1="280.424" x2="182.545" y1="153.556" y2="223.132" gradientUnits="userSpaceOnUse"><stop stop-color="#0533F5"/><stop offset=".49" stop-color="#F39949"/><stop offset="1" stop-color="#E4EBF2"/></linearGradient><linearGradient id="paint44_linear" x1="244.881" x2="227.253" y1="397.935" y2="392.383" gradientUnits="userSpaceOnUse"><stop stop-color="#0533F5"/><stop offset=".49" stop-color="#F39949"/><stop offset="1" stop-color="#E4EBF2"/></linearGradient><linearGradient id="paint45_linear" x1="251.858" x2="250.5" y1="404.032" y2="404.005" gradientUnits="userSpaceOnUse"><stop stop-color="#0533F5"/><stop offset=".49" stop-color="#F39949"/><stop offset="1" stop-color="#E4EBF2"/></linearGradient><linearGradient id="paint46_linear" x1="265.035" x2="247.485" y1="397.935" y2="392.437" gradientUnits="userSpaceOnUse"><stop stop-color="#0533F5"/><stop offset=".49" stop-color="#F39949"/><stop offset="1" stop-color="#E4EBF2"/></linearGradient><linearGradient id="paint47_linear" x1="6.618" x2=".286" y1="-1.576" y2="2.91" gradientUnits="userSpaceOnUse"><stop stop-color="#F39949"/><stop offset="1" stop-color="#E4EBF2"/></linearGradient><linearGradient id="paint48_linear" x1="6.618" x2=".286" y1="-1.576" y2="2.91" gradientUnits="userSpaceOnUse"><stop stop-color="#F39949"/><stop offset="1" stop-color="#E4EBF2"/></linearGradient><linearGradient id="paint49_linear" x1="6.618" x2=".286" y1="-1.576" y2="2.91" gradientUnits="userSpaceOnUse"><stop stop-color="#F39949"/><stop offset="1" stop-color="#E4EBF2"/></linearGradient><linearGradient id="paint50_linear" x1="371.349" x2="364.732" y1="176.512" y2="181.231" gradientUnits="userSpaceOnUse"><stop stop-color="#F39949"/><stop offset="1" stop-color="#E4EBF2"/></linearGradient><linearGradient id="paint51_linear" x1="6.948" x2=".331" y1="-1.643" y2="3.077" gradientUnits="userSpaceOnUse"><stop stop-color="#F39949"/><stop offset="1" stop-color="#E4EBF2"/></linearGradient><linearGradient id="paint52_linear" x1="6.948" x2=".331" y1="-1.643" y2="3.077" gradientUnits="userSpaceOnUse"><stop stop-color="#F39949"/><stop offset="1" stop-color="#E4EBF2"/></linearGradient><linearGradient id="paint53_linear" x1="6.948" x2=".331" y1="-1.643" y2="3.077" gradientUnits="userSpaceOnUse"><stop stop-color="#F39949"/><stop offset="1" stop-color="#E4EBF2"/></linearGradient><linearGradient id="paint54_linear" x1="173.006" x2="166.389" y1="369.487" y2="374.207" gradientUnits="userSpaceOnUse"><stop stop-color="#F39949"/><stop offset="1" stop-color="#E4EBF2"/></linearGradient><linearGradient id="paint55_linear" x1="154.206" x2="147.589" y1="357.727" y2="362.447" gradientUnits="userSpaceOnUse"><stop stop-color="#F39949"/><stop offset="1" stop-color="#E4EBF2"/></linearGradient><linearGradient id="paint56_linear" x1="397.781" x2="391.449" y1="233.856" y2="238.341" gradientUnits="userSpaceOnUse"><stop stop-color="#F39949"/><stop offset="1" stop-color="#E4EBF2"/></linearGradient><linearGradient id="paint57_linear" x1="397.781" x2="391.449" y1="273.561" y2="278.046" gradientUnits="userSpaceOnUse"><stop stop-color="#F39949"/><stop offset="1" stop-color="#E4EBF2"/></linearGradient><linearGradient id="paint58_linear" x1="405.047" x2="398.715" y1="253.709" y2="258.194" gradientUnits="userSpaceOnUse"><stop stop-color="#F39949"/><stop offset="1" stop-color="#E4EBF2"/></linearGradient><linearGradient id="paint59_linear" x1="304.951" x2="244.418" y1="231.732" y2="222.117" gradientUnits="userSpaceOnUse"><stop stop-color="#0533F5"/><stop offset=".49" stop-color="#F39949"/><stop offset="1" stop-color="#E4EBF2"/></linearGradient></defs></svg>