<svg xmlns="http://www.w3.org/2000/svg" width="11" height="99" fill="none"><path fill="#05f" fill-rule="evenodd" d="M3 .63l2.5 2.53L3 5.7.5 3.15 3 .63z" clip-rule="evenodd"/><path fill="#fff" fill-rule="evenodd" d="M3.13 38.92v-1.4l.13-.1 6.66 2.26.13.16v1.44l-.13.16-4.77 1.63v.04l4.77 1.63.13.16v1.42l-.13.16-6.66 2.27-.13-.1V47.2l.13-.15 4.68-1.46v-.03l.02-.02-4.7-1.62-.13-.15v-1.5l.13-.14L8 40.54l-4.74-1.47-.13-.15zm0-16V21.5l.13-.1 6.66 2.87.13.16v1.32l-.13.16-6.66 2.87-.13-.1V27.2l.13-.15 4.93-1.97-.03-.02-4.92-2-.13-.14zM6.83 14l.13.15v5.36c.57-.03 1-.25 1.33-.64.33-.4.53-.9.52-1.45 0-.83-.3-1.34-.93-1.67l-.14-.2V14.2l.13-.1c.8.2 1.36.76 1.7 1.3.37.53.55 1.2.55 1.98 0 1.07-.34 1.96-1.02 2.63-.68.7-1.54 1.04-2.56 1.04-.97 0-1.82-.32-2.52-.98-.7-.66-1.07-1.5-1.07-2.53 0-1.05.33-1.9.98-2.55.65-.64 1.58-.96 2.66-.96h.2zM4.3 17.53c0 .95.62 1.67 1.43 1.9v-3.8c-.58.14-1.42.65-1.42 1.9zM3.14 31.07l.14.14h.68l.03.05c-.24.18-.44.43-.6.73-.05.07-.08.14-.1.2-.2.4-.3.86-.3 1.35 0 .92.36 1.72 1.05 2.4.68.65 1.54 1 2.55 1 1 0 1.86-.35 2.55-1 .68-.68 1.04-1.48 1.04-2.4 0-.5-.1-.93-.3-1.33 0-.03 0-.05 0-.06-.05-.06-.08-.13-.1-.18-.18-.3-.36-.53-.58-.72 0 0 0 0 0-.02 0 0 0-.02 0-.02h.7l.14-.14v-1.2l-.13-.15H3.26l-.13.16v1.22zm5.73 2.24c0-.57-.2-1.07-.6-1.47-.28-.27-.6-.46-1.03-.55H5.9c-.4.1-.72.28-1 .55-.4.4-.6.9-.6 1.5 0 .57.2 1 .62 1.4.42.4.97.62 1.66.62.7 0 1.24-.2 1.66-.62.42-.4.62-.84.62-1.4zM6.05 9s-.16.8-.3 1.46c-.13.6-.3.9-.7.9-.43 0-.8-.42-.8-1.36 0-.9.4-1.42.74-1.42l.1-.16V7.1L5 7c-.9 0-2 .8-2 2.96 0 2.25 1.27 2.96 2.07 2.96.68 0 1.48-.26 1.86-1.98l.3-1.48c.17-.75.42-1.07.83-1.07.38 0 .84.4.84 1.42 0 .96-.44 1.54-.96 1.57l-.13.16v1.36l.15.1C9.1 12.9 10.2 12 10.2 9.82c0-2.44-1.44-2.94-2.18-2.94-1 0-1.65.6-1.97 2.13z" clip-rule="evenodd"/><path fill="#fff" fill-rule="evenodd" d="M9.42 92.8c.26.26.4.57.4.94v5.17h-8.5V98h2.1v-4.26c0-.37.13-.68.4-.94.25-.26.56-.4.93-.4h3.72c.36 0 .68.14.94.4zm-.5 4.76v-3.82c0-.12-.06-.22-.14-.3-.1-.1-.2-.13-.3-.13H4.76c-.12 0-.22.06-.3.14-.1.1-.13.2-.13.3v3.83c0 .12.04.22.13.3.08.1.18.14.3.14h3.72c.1 0 .2-.03.3-.12.08-.1.13-.2.13-.3zM9.8 86c0-.37-.14-.7-.4-.95-.26-.26-.58-.4-.94-.4H3.43v.92h5.05c.1 0 .2.04.3.13.08.1.13.2.13.3v3.83c0 .12-.03.22-.1.3-.1.1-.2.13-.3.13H3.42v.9h5.05c.36 0 .68-.13.94-.4.26-.25.4-.56.4-.93V86zm-8.48-3.8h.9v.9h-.9v-.9zm8.47 0H3.43v.9H9.8v-.9zM8.9 78h.9v1.08c0 .37-.12.68-.38.94-.26.26-.58.4-.94.4H1.34v-.9h7.14c.1 0 .2-.05.3-.14.08-.08.13-.18.13-.3V78zm.9-5h-.9v2.33c0 .12-.04.22-.12.3-.1.1-.2.13-.3.13H4.33V73h-.9v2.76h-2.1v.9H8.5c.36 0 .68-.13.94-.38.26-.26.4-.57.4-.95V73zm-.38-10.76c.26.26.4.58.4.95V67c0 .37-.14.68-.4.94-.26.26-.58.4-.94.4H4.76c-.37 0-.68-.14-.94-.4-.26-.26-.4-.57-.4-.94v-3.8c0-.38.14-.7.4-.96s.57-.4.94-.4h3.72c.36 0 .68.14.94.4zm-.5.95V67c0 .12-.06.22-.14.3-.1.1-.2.13-.3.13H4.76c-.12 0-.22-.04-.3-.13-.1-.08-.13-.18-.13-.3v-3.8c0-.12.04-.23.13-.3.08-.1.18-.14.3-.14h3.72c.1 0 .2.05.3.13.08.06.13.17.13.3zm-4.16-3.66H9.8v.9H3.44V55.3c0-.38.13-.7.4-.95.25-.26.56-.4.93-.4H9.8v.9H4.77c-.12 0-.22.05-.3.13-.1.1-.13.2-.13.3v3.83c0 .14.04.24.13.33.08.1.18.13.3.13z" opacity=".479" clip-rule="evenodd"/></svg>