<svg xmlns="http://www.w3.org/2000/svg" width="132" height="60" fill="none"><path stroke="#fff" d="M7.3 22.24l51.48-7.75-14.4 44.26L7.3 22.24z" clip-rule="evenodd"/><path stroke="#fff" d="M18.55 43.65l-.16 1 .88-.47 35.1-18.22.72-.37-.66-.5L25.82 4.34l-.65-.48-.13.8-6.5 39zm17.77-4l.9.46-.18-.97-4.43-26.66-.12-.8-.66.47-19.56 14.2-.65.5.72.36 24 12.45zm-.35-11.87l.7-.7-.98-.15-14.37-2.16-.8-.12.25.77 4.02 12.34.25.77.57-.56 10.35-10.2z"/><path fill="#fff" fill-rule="evenodd" d="M112.85 18.7v-1.6h-1.63v1.6h1.63zM73.3 28.58c.55 0 1-.2 1.4-.56.4-.37.58-.83.58-1.36V22.7h-4.2v1.6h2.56v2.1c0 .23-.04.38-.1.45-.08.08-.23.1-.46.1h-6.46c-.22 0-.37-.02-.45-.1-.07-.07-.1-.22-.1-.44V20c0-.2.03-.36.1-.43.08-.07.23-.1.45-.1h6.46c.23 0 .38.03.45.1s.1.22.1.44v.43h1.65v-.64c0-.55-.2-1-.58-1.38-.4-.38-.85-.57-1.4-.57h-6.9c-.55 0-1 .2-1.4.57-.37.37-.57.83-.57 1.37v6.84c0 .53.2 1 .58 1.37.4.38.85.57 1.4.57h6.9zm6.32 0V22.1c0-.22.03-.37.1-.45.08-.07.23-.1.45-.1h4.66v-1.62h-4.88c-.55 0-1 .2-1.4.57-.37.38-.56.83-.56 1.37v6.7h1.62zm16.26-6.7v6.7h-6.93a1.95 1.95 0 01-1.96-1.92v-3.2h7.24V22.1c0-.22-.03-.37-.1-.45-.08-.07-.22-.1-.44-.1H87v-1.62h6.92c.55 0 1 .2 1.4.57.37.38.56.83.56 1.37zm-1.64 5.1h-5.06c-.22 0-.37-.04-.45-.12-.07-.07-.1-.22-.1-.44v-1.45h5.6v2zm14.72-7.04l-4.83 8.64h-1.62l-4.8-8.64h1.87l3.75 6.83 3.75-6.83h1.9zm3.9 0v8.64h-1.64v-8.64h1.63zm8.06 8.64v-1.6h-3.03c-.23 0-.38-.04-.46-.12-.07-.07-.1-.22-.1-.44v-4.86h3.58v-1.6h-3.6V17.2h-1.6v9.44c-.02.53.17 1 .56 1.37.38.38.84.57 1.38.57h3.26zm10.5 2.74c-.37.4-.84.58-1.38.58h-5.4v-1.62h5.18c.22 0 .37-.04.44-.12.08-.07.1-.22.1-.44v-1.13h-5.3c-.53 0-1-.2-1.38-.56a1.84 1.84 0 01-.57-1.36v-6.68h1.64v6.45c0 .23.04.38.1.45.1.08.23.1.46.1h4.52c.22 0 .37-.02.44-.1.08-.07.1-.22.1-.44v-6.44H132v9.98c0 .54-.2 1-.57 1.37zM66.1 47.05V42.5h7.83v4.54h1.65V36.32H73.9v4.54h-7.8v-4.54h-1.63v10.72h1.63zm20.56-.57c-.4.38-.85.57-1.4.57H80.3a2 2 0 01-1.4-.57 1.87 1.87 0 01-.56-1.37v-6.7h1.63v6.48c0 .22.03.36.1.44.1.07.23.1.45.1h4.52c.22 0 .37-.03.45-.1.07-.08.1-.22.1-.44V38.4h1.64v6.7c0 .54-.18 1-.56 1.37zm9.92.57a2 2 0 001.4-.57c.37-.37.56-.83.56-1.37v-4.76a1.94 1.94 0 00-1.97-1.94h-5.3v-2.83h-1.62v11.47h6.93zm-4.75-1.6h4.53c.22 0 .37-.05.45-.12.07-.08.1-.22.1-.44v-4.32c0-.22-.03-.36-.1-.44-.08-.07-.23-.1-.45-.1H91.8c-.2 0-.36.03-.43.1-.08.08-.1.22-.1.44v4.32c0 .22.02.36.1.44.07.07.22.1.44.1z" clip-rule="evenodd"/></svg>