<svg width="145" height="29" viewBox="0 0 145 29" fill="none" xmlns="http://www.w3.org/2000/svg">
<path d="M9.3108 11.9955L15 6.45321L20.6915 12L24 8.77339L15 0L6 8.77114L9.3108 11.9955Z" fill="#F3BA2F"/>
<path d="M0.227173 14.4559L3.49362 11.1895L6.76006 14.4559L3.49362 17.7224L0.227173 14.4559Z" fill="#F3BA2F"/>
<path d="M9.31415 17.0023L15.0012 22.5478L20.6905 17L24 20.2227L23.9977 20.225L15.0012 29L6.00463 20.2295L6 20.225L9.31415 17.0023Z" fill="#F3BA2F"/>
<path d="M22.6043 14.4568L25.8708 11.1903L29.1372 14.4568L25.8708 17.7232L22.6043 14.4568Z" fill="#F3BA2F"/>
<path d="M17.9979 13.999L15.001 11L12.7849 13.2162L12.5287 13.4702L12.0041 13.9948L12 13.999L12.0041 14.0052L15.001 17L17.9979 14.001L18 13.999H17.9979Z" fill="#F3BA2F"/>
<path fill-rule="evenodd" clip-rule="evenodd" d="M34.0847 7.38403H41.207C42.9738 7.38403 44.3104 7.84118 45.2167 8.75546C45.9068 9.43797 46.2865 10.3732 46.2672 11.3429V11.3863C46.2734 11.7794 46.2185 12.1711 46.1047 12.5475C46.0033 12.8715 45.8561 13.1793 45.6676 13.4617C45.4918 13.7281 45.2792 13.9682 45.0359 14.1749C44.7983 14.3792 44.538 14.5556 44.2601 14.7006C45.0614 14.9794 45.7821 15.4503 46.3588 16.072C46.8684 16.6511 47.1232 17.4511 47.1232 18.472V18.5155C47.1377 19.1531 46.9987 19.7849 46.7181 20.3577C46.4461 20.8856 46.0475 21.3379 45.5577 21.6743C45.0041 22.045 44.3876 22.3122 43.7383 22.4629C42.9668 22.6456 42.176 22.7339 41.3832 22.7257H34.0847V7.38403ZM40.4929 13.5875C41.1091 13.6172 41.7224 13.4848 42.2712 13.2035C42.7079 12.9487 42.9617 12.4684 42.9258 11.9646V11.9212C42.9488 11.4588 42.7339 11.0166 42.3559 10.7486C41.976 10.4789 41.4275 10.344 40.7104 10.344H37.3781V13.5875H40.4929ZM43.1546 19.3657C42.6174 19.6644 42.0063 19.8047 41.3924 19.7703H37.3781V16.3875H41.2894C42.1682 16.3875 42.8045 16.5398 43.1981 16.8446C43.5856 17.1266 43.8076 17.5821 43.7909 18.0606V18.104C43.8246 18.6089 43.5809 19.0922 43.1546 19.3657Z" fill="#F3BA2F"/>
<path d="M51.3664 7.38403H54.7467V22.7303H51.3664V7.38403Z" fill="#F3BA2F"/>
<path d="M59.8619 7.38403H62.979L70.1837 16.8286V7.38403H73.5206V22.7303H70.6438L63.2033 12.9749V22.7303H59.8619V7.38403Z" fill="#F3BA2F"/>
<path fill-rule="evenodd" clip-rule="evenodd" d="M86.868 7.27429H83.7555L77.1687 22.7303H80.6154L82.0207 19.288H88.5182L89.9234 22.7303H93.4525L86.868 7.27429ZM85.266 11.3291L87.312 16.3074H83.2291L85.266 11.3291Z" fill="#F3BA2F"/>
<path d="M97.1075 7.38403H100.225L107.425 16.8286V7.38403H110.762V22.7303H107.885L100.444 12.9749V22.7303H97.1075V7.38403Z" fill="#F3BA2F"/>
<path d="M122.928 23C121.851 23.0092 120.783 22.8009 119.788 22.3875C117.896 21.6073 116.4 20.0974 115.639 18.2C115.241 17.2176 115.04 16.1671 115.046 15.1075V15.064C115.028 12.9754 115.833 10.9634 117.287 9.46174C118.002 8.7282 118.858 8.14665 119.804 7.75203C120.833 7.32634 121.938 7.11404 123.052 7.12803C123.71 7.12312 124.368 7.18206 125.015 7.30403C125.569 7.40864 126.111 7.57026 126.631 7.78631C127.104 7.98486 127.553 8.23475 127.97 8.53146C128.378 8.82084 128.76 9.14347 129.114 9.49603L126.965 11.9737C126.416 11.4678 125.8 11.0394 125.134 10.7006C124.48 10.3883 123.763 10.2318 123.038 10.2435C121.818 10.2305 120.651 10.7416 119.834 11.6469C119.433 12.0933 119.12 12.6103 118.909 13.1715C118.689 13.7645 118.578 14.3926 118.582 15.0252V15.0686C118.58 15.7003 118.691 16.3273 118.909 16.92C119.117 17.4832 119.428 18.0032 119.825 18.4537C120.635 19.3705 121.804 19.8908 123.029 19.88C123.8 19.9043 124.564 19.7386 125.256 19.3977C125.914 19.0395 126.523 18.5969 127.066 18.0812L129.217 20.2526C128.838 20.6644 128.427 21.0464 127.988 21.3955C127.558 21.7355 127.09 22.0261 126.595 22.2617C126.066 22.51 125.51 22.6935 124.938 22.808C124.276 22.9405 123.603 23.0048 122.928 23V23Z" fill="#F3BA2F"/>
<path d="M133.207 7.38403H144.771V10.3875H136.532V13.5006H143.787V16.504H136.543V19.7269H144.886V22.7303H133.213L133.207 7.38403Z" fill="#F3BA2F"/>
</svg>
