<svg width="29" height="34" viewBox="0 0 29 34" fill="none" xmlns="http://www.w3.org/2000/svg">
<path d="M29 11.3646L27.9465 8.6128L28.6715 7.03407C28.7621 6.82576 28.7168 6.59553 28.5582 6.43108L26.5758 4.49054C25.7035 3.64636 24.4121 3.35035 23.2453 3.74503L22.6902 3.93141L19.6543 0.752007L14.5227 0.719116H14.4887L9.32305 0.76297L6.29844 3.9643L5.75469 3.77792C4.57656 3.37227 3.27383 3.66829 2.40156 4.5344L0.385156 6.50782C0.249219 6.63938 0.215234 6.82576 0.283203 6.99021L1.04219 8.63473L0 11.3866L0.679688 13.8753L3.76094 25.2005C4.11211 26.5052 4.92773 27.6454 6.07188 28.4347C6.07188 28.4347 9.81016 30.9892 13.4918 33.3025C13.8203 33.5108 14.1602 33.6533 14.5227 33.6533C14.8852 33.6533 15.225 33.5108 15.5535 33.3025C19.6996 30.6713 22.9734 28.4238 22.9734 28.4238C24.1063 27.6344 24.9219 26.4942 25.273 25.1895L28.3316 13.8643L29 11.3646Z" fill="#F15A22"/>
<g style="mix-blend-mode:lighten" opacity="0.15">
<path d="M3.9082 25.6829L0 11.6277L1.14414 8.8759L0.351172 6.8367L2.24297 4.97291C2.86602 4.4357 4.08945 4.24932 4.65586 4.56726L7.6125 6.21178L11.4641 7.0779L14.466 5.87192L14.7152 30.8357C14.6699 34.4317 14.9078 34.048 12.1777 32.3487L5.4375 27.9742C4.7125 27.3055 4.15742 26.549 3.9082 25.6829Z" fill="url(#paint0_linear)"/>
</g>
<g style="mix-blend-mode:darken" opacity="0.4">
<path d="M22.9055 28.374L17.1734 32.1674C15.5762 33.0116 14.8059 33.8448 14.6812 33.4391C14.5793 33.1212 14.6586 32.1893 14.6246 30.7421L14.5566 6.32652C14.568 6.08532 14.7379 5.67967 15.0324 5.72353L17.9551 6.57867L22.1691 5.94279L24.9559 3.95841C25.2504 3.73914 25.6809 3.76107 25.9527 4.01323L28.4449 6.31555C28.6715 6.54578 28.6828 6.99529 28.5469 7.28034L27.8559 8.51921L29 11.3807L25.0578 25.5674C24.4461 27.3325 23.5852 27.793 22.9055 28.374Z" fill="url(#paint1_linear)"/>
</g>
<path d="M15.1797 20.9798C15.0438 20.925 14.8965 20.8811 14.8512 20.8811H14.6699H14.4887C14.4434 20.8811 14.2961 20.925 14.1602 20.9798L12.6875 21.5718C12.5516 21.6266 12.325 21.7253 12.1891 21.7911L9.96876 22.9093C9.83282 22.9751 9.8215 23.0957 9.94611 23.1834L11.9059 24.521C12.0305 24.6087 12.2231 24.7512 12.3363 24.8499L13.2086 25.5735C13.3219 25.6721 13.5031 25.8256 13.6164 25.9243L14.4547 26.6479C14.568 26.7466 14.7492 26.7466 14.8625 26.6479L15.7234 25.9243C15.8367 25.8256 16.018 25.6721 16.1313 25.5735L17.0035 24.8389C17.1168 24.7402 17.3094 24.5977 17.434 24.51L19.3938 23.1615C19.5184 23.0738 19.507 22.9532 19.3711 22.8874L17.1508 21.7911C17.0149 21.7253 16.7883 21.6266 16.6524 21.5718L15.1797 20.9798Z" fill="white"/>
<path d="M25.807 11.8533C25.8523 11.7108 25.8523 11.6559 25.8523 11.6559C25.8523 11.5134 25.841 11.2722 25.8183 11.1297L25.705 10.8118C25.637 10.6802 25.5238 10.4719 25.4331 10.3513L24.1531 8.5204C24.0738 8.3998 23.9265 8.21342 23.8245 8.09283L22.1706 6.08651C22.08 5.97688 21.9894 5.87821 21.9781 5.88917H21.9554C21.9554 5.88917 21.8308 5.9111 21.6835 5.93303L19.1574 6.41542C19.0101 6.44831 18.7722 6.49216 18.6249 6.51409L18.5796 6.52505C18.4324 6.54698 18.1945 6.53602 18.0472 6.49216L15.9288 5.83435C15.7816 5.7905 15.5437 5.72472 15.4077 5.69183C15.4077 5.69183 14.9773 5.59316 14.6261 5.60412C14.2749 5.60412 13.8445 5.69183 13.8445 5.69183C13.6972 5.72472 13.4593 5.7905 13.3234 5.83435L11.205 6.49216C11.0577 6.53602 10.8199 6.54698 10.6726 6.52505L10.6273 6.51409C10.48 6.49216 10.2421 6.43734 10.0949 6.41542L7.54603 5.95495C7.39876 5.92206 7.27416 5.9111 7.27416 5.9111H7.2515C7.24017 5.9111 7.14955 5.99881 7.05892 6.10844L5.40501 8.11475C5.31439 8.22439 5.16712 8.42173 5.0765 8.54233L3.79642 10.3732C3.71712 10.4938 3.59252 10.7021 3.52455 10.8337L3.41127 11.1516C3.38861 11.2942 3.36595 11.5354 3.37728 11.6779C3.37728 11.6779 3.37728 11.7217 3.42259 11.8752C3.50189 12.1383 3.69447 12.3795 3.69447 12.3795C3.78509 12.4892 3.95502 12.6756 4.05697 12.7742L7.80658 16.6334C7.90853 16.743 7.94251 16.9403 7.88587 17.0719L7.10423 18.8589C7.04759 18.9905 7.03627 19.2098 7.09291 19.3523L7.30814 19.9114C7.48939 20.3829 7.79525 20.7995 8.20306 21.1174L8.96205 21.7094C9.07533 21.7971 9.27923 21.83 9.41517 21.7643L11.8167 20.6569C11.9527 20.5912 12.1566 20.4596 12.2699 20.3609L13.9917 18.8589C14.241 18.6397 14.2523 18.2669 14.0257 18.0257L10.412 15.6686C10.2874 15.5918 10.2421 15.4164 10.3101 15.2849L11.896 12.3905C11.964 12.2589 11.9753 12.0506 11.9187 11.9191L11.7261 11.4915C11.6695 11.3599 11.4995 11.2064 11.3636 11.1516L6.70775 9.46326C6.57181 9.40844 6.57181 9.35362 6.71908 9.34266L9.72103 9.06857C9.8683 9.05761 10.1062 9.07954 10.2535 9.11243L12.9269 9.83602C13.0742 9.87987 13.1648 10.0224 13.1421 10.1649L12.2132 15.0875C12.1906 15.23 12.1906 15.4274 12.2245 15.537C12.2585 15.6466 12.4058 15.7453 12.5531 15.7782L14.4109 16.1619C14.5581 16.1948 14.796 16.1948 14.9433 16.1619L16.6765 15.7782C16.8238 15.7453 16.971 15.6357 17.005 15.537C17.039 15.4383 17.0503 15.23 17.0163 15.0875L16.0988 10.1649C16.0761 10.0224 16.1667 9.86891 16.314 9.83602L18.9874 9.11243C19.1347 9.06857 19.3726 9.05761 19.5199 9.06857L22.5218 9.34266C22.6691 9.35362 22.6804 9.40844 22.5331 9.46326L17.8773 11.1736C17.7413 11.2284 17.5714 11.3709 17.5148 11.5134L17.3222 11.941C17.2656 12.0726 17.2656 12.2918 17.3449 12.4124L18.9421 15.3068C19.0101 15.4383 18.9648 15.6028 18.8402 15.6905L15.2265 18.0586C14.9886 18.2888 15.0113 18.6726 15.2605 18.8918L16.9824 20.3938C17.0956 20.4925 17.2995 20.6241 17.4355 20.6789L19.8484 21.7862C19.9843 21.852 20.1882 21.8191 20.3015 21.7314L21.0605 21.1284C21.4683 20.8104 21.7742 20.3938 21.9441 19.9224L22.1593 19.3633C22.216 19.2317 22.2046 19.0015 22.148 18.8699L21.3663 17.0829C21.3097 16.9513 21.3437 16.754 21.4456 16.6443L25.1952 12.7852C25.2972 12.6756 25.4558 12.5001 25.5577 12.3905C25.5351 12.3576 25.739 12.1164 25.807 11.8533Z" fill="white"/>
<defs>
<linearGradient id="paint0_linear" x1="0" y1="33.6203" x2="14.7295" y2="33.6203" gradientUnits="userSpaceOnUse">
<stop stop-color="white"/>
<stop offset="0.1413" stop-color="white" stop-opacity="0.9576"/>
<stop offset="1" stop-color="white" stop-opacity="0.7"/>
</linearGradient>
<linearGradient id="paint1_linear" x1="14.551" y1="33.5455" x2="29" y2="33.5455" gradientUnits="userSpaceOnUse">
<stop stop-color="#F1F1F2"/>
<stop offset="0.0919144" stop-color="#E4E5E6"/>
<stop offset="0.2357" stop-color="#D9DADB"/>
<stop offset="0.438" stop-color="#D2D4D5"/>
<stop offset="1" stop-color="#D0D2D3"/>
</linearGradient>
</defs>
</svg>
