<svg width="145" height="34" viewBox="0 0 145 34" fill="none" xmlns="http://www.w3.org/2000/svg">
<path fill-rule="evenodd" clip-rule="evenodd" d="M56.2842 5.60669L54.4475 6.50086V23.0309H56.2842V15.95C56.2842 13.63 57.855 12.0834 59.9817 12.0834C62.1567 12.0834 63.3892 13.5092 63.3892 15.805V23.055H65.2258V15.3942C65.2258 12.4459 63.4858 10.44 60.5133 10.44C58.3867 10.44 57.1058 11.5275 56.2842 12.8567V5.60669ZM47.3667 10.4159C43.7417 10.4159 41.035 13.3884 41.035 16.8684C41.035 20.3725 43.7658 23.3209 47.3425 23.3209C49.6625 23.3209 51.1367 22.3059 52.3692 20.9284L51.1608 19.8167C50.17 20.8559 49.01 21.6775 47.4392 21.6775C44.8775 21.6775 42.92 19.5509 42.92 16.8684C42.92 14.1617 44.8292 12.035 47.3425 12.035C49.01 12.035 50.17 12.8084 51.1367 13.8475L52.2967 12.615C51.1608 11.4067 49.7108 10.4159 47.3667 10.4159ZM76.4392 18.4875V17.3517C75.2792 17.0134 74.0467 16.82 72.8383 16.82C70.5425 16.82 69.2375 17.835 69.2375 19.3575C69.2375 20.9042 70.6633 21.8225 72.3308 21.8225C74.6025 21.7984 76.4392 20.445 76.4392 18.4875ZM72.645 15.37C69.5275 15.37 67.3767 16.7475 67.3767 19.4059C67.3767 21.9675 69.6725 23.2967 71.9683 23.2967C74.1433 23.2967 75.545 22.2817 76.415 21.1942V23.0309H78.2275V15.4909C78.2275 13.92 77.8167 12.7359 76.9467 11.8659C76.0525 10.9959 74.6992 10.5125 72.9592 10.5125C71.1467 10.5125 69.8175 10.9475 68.4642 11.5759L69.02 13.0742C70.1558 12.5425 71.3158 12.18 72.7658 12.18C75.0858 12.18 76.415 13.3159 76.415 15.515V15.9017C75.3275 15.5875 74.2158 15.37 72.645 15.37ZM81.345 10.6817H83.1817V12.8325C84.0033 11.5034 85.2842 10.4159 87.4108 10.4159C90.3833 10.4159 92.1233 12.4217 92.1233 15.37V23.0309H90.2867V15.805C90.2867 13.5092 89.0542 12.0834 86.8792 12.0834C84.7525 12.0834 83.1817 13.63 83.1817 15.95V23.0309H81.345V10.6817ZM100.558 12.035C102.902 12.035 105.101 13.6784 105.101 16.2159C105.101 18.7534 102.902 20.445 100.558 20.445C98.2617 20.445 96.28 18.7292 96.28 16.24C96.28 13.6542 98.2133 12.035 100.558 12.035ZM94.975 25.1817L95.8208 23.7559C97.2225 24.795 98.7933 25.3267 100.558 25.3267C103.264 25.3267 105.053 23.8284 105.053 20.9284V19.4784C103.989 20.9042 102.467 22.0884 100.219 22.0884C97.2708 22.0884 94.4192 19.865 94.4192 16.2642C94.4192 12.6634 97.2708 10.44 100.219 10.44C102.539 10.44 104.038 11.5759 105.028 12.9292V10.7059H106.865V20.88C106.865 22.7892 106.285 24.2392 105.294 25.2542C104.207 26.3659 102.563 26.8975 100.606 26.8975C98.5275 26.8975 96.6425 26.3175 94.975 25.1817ZM115.251 11.9625C117.692 11.9625 118.973 13.8717 119.19 16.1192H111.239C111.505 13.7267 113.124 11.9625 115.251 11.9625ZM115.589 21.7017C117.281 21.7017 118.465 21.0009 119.48 19.9617L120.616 21.0009C119.383 22.3784 117.861 23.3209 115.541 23.3209C112.158 23.3209 109.378 20.7109 109.378 16.8684C109.378 13.2917 111.892 10.4159 115.299 10.4159C118.948 10.4159 121.051 13.34 121.051 16.965C121.051 17.1342 121.051 17.3275 121.027 17.6175H111.239C111.505 20.2034 113.414 21.7017 115.589 21.7017ZM125.449 6.35586L123.613 7.27419V23.0067H125.449V6.35586ZM128.808 6.50086L130.645 5.60669V23.055H128.808V6.50086ZM133.714 24.8434L133.086 26.2934C133.908 26.7042 134.681 26.9217 135.72 26.9217C137.581 26.9217 138.789 26.0034 139.828 23.4417L145 10.6817H143.043L139.079 20.9767L134.608 10.6817H132.578L138.185 22.9825C137.436 24.7225 136.735 25.3025 135.648 25.3025C134.85 25.3025 134.318 25.1575 133.714 24.8434Z" fill="white"/>
<path fill-rule="evenodd" clip-rule="evenodd" d="M35.8321 0.0728358L35.8392 0.0725L36.5883 0L36.5642 0.773333L36.5641 0.77476C36.5389 1.3034 35.9541 13.5868 29.58 19.2125C28.9275 19.7925 28.3233 20.3242 27.7433 20.7833C27.7195 20.8736 27.6889 20.9885 27.653 21.1234C27.3621 22.217 26.7233 24.6188 26.4867 25.7375C26.3658 26.3417 26.0275 26.8492 25.5442 27.1875C24.3994 27.9801 22.1716 29.2941 21.6927 29.5765C21.6459 29.6041 21.6158 29.6219 21.605 29.6283L19.7442 30.7158L20.6142 28.7342C21.1942 27.4292 21.7742 25.23 21.2908 24.4567C21.1942 24.3117 21.0733 24.1908 20.7108 24.1667C19.7925 24.1667 18.8983 23.9008 18.0042 23.4417L17.7867 23.7075C17.1825 24.4567 16.2642 24.8917 15.2975 24.8433H11.8417V21.3875C11.7933 20.4208 12.2283 19.5025 12.9775 18.8983L13.2433 18.6808C12.7842 17.7867 12.5425 16.8925 12.5183 15.9742C12.4942 15.6117 12.3492 15.4667 12.2283 15.3942C11.455 14.935 9.28 15.515 7.975 16.0708L5.99333 16.9408L7.08083 15.08C7.12917 14.9833 8.6275 12.3975 9.4975 11.1408C9.83583 10.6333 10.3675 10.295 10.9475 10.1742C12.0239 9.94646 14.2706 9.3464 15.4093 9.04226C15.6 8.99133 15.7596 8.9487 15.8775 8.9175C16.385 8.28917 16.8925 7.66083 17.4242 7.05667C23.0312 0.679607 35.2279 0.101477 35.8321 0.0728358ZM18.8742 22.3058C21.0975 23.3208 23.3208 22.8858 28.6617 18.1733C33.7125 13.7267 34.8725 4.32583 35.09 1.54667C32.3108 1.78833 22.9342 2.94833 18.4875 7.99917C13.7992 13.34 13.34 15.5633 14.3792 17.7867L17.4242 15.37C17.8592 15.0075 18.3908 14.7658 18.9467 14.6208L23.0067 13.6542L22.04 17.7383C21.895 18.2942 21.6533 18.8258 21.2908 19.2608L18.8742 22.3058ZM27.5742 12.8083C28.5408 12.8083 29.4833 12.4458 30.2083 11.7208C31.6583 10.2467 31.6583 7.9025 30.2083 6.42833C28.7583 4.97833 26.39 4.97833 24.94 6.42833C24.2392 7.12917 23.8525 8.07167 23.8525 9.0625C23.8525 10.0533 24.2392 10.9958 24.94 11.6967C25.6408 12.4217 26.5833 12.8083 27.5742 12.8083ZM27.5742 6.76667C26.9458 6.76667 26.3658 7.00833 25.9308 7.44333C25.4958 7.87833 25.2542 8.45833 25.2542 9.08667C25.2542 9.715 25.4958 10.295 25.9308 10.73C26.8492 11.6242 28.3233 11.6242 29.2175 10.73C30.1117 9.81167 30.1117 8.36167 29.2175 7.44333C28.7583 6.98417 28.1783 6.76667 27.5742 6.76667ZM16.4092 29.0242C16.7233 28.8067 17.0133 28.565 17.2792 28.2992C17.5692 28.0575 17.835 27.7675 18.1008 27.4292C17.7625 28.13 17.2792 28.7342 16.7475 29.3142C16.1917 29.8942 15.5875 30.4017 14.935 30.8367C14.2825 31.2717 13.5817 31.6825 12.8567 31.9967C12.5741 32.1285 12.2768 32.2457 11.9877 32.3597C11.906 32.3919 11.8249 32.4239 11.745 32.4558C11.6042 32.4998 11.4666 32.547 11.3299 32.5939L11.3296 32.594C11.091 32.6759 10.855 32.7569 10.6092 32.8183C10.3514 32.8989 10.0936 32.958 9.83586 33.017C9.70696 33.0466 9.57806 33.0761 9.44917 33.1083C9.25583 33.1325 9.0625 33.1688 8.86917 33.205L8.86897 33.205C8.6757 33.2413 8.48244 33.2775 8.28917 33.3017L7.70917 33.3742L7.12917 33.4225C6.8731 33.4545 6.60643 33.4653 6.3432 33.476L6.34294 33.476L6.34268 33.476L6.34242 33.476L6.34217 33.476L6.34191 33.476L6.34165 33.4761C6.20793 33.4815 6.0751 33.4869 5.945 33.495C4.37417 33.5433 2.80333 33.4225 1.25667 33.205L0 33.0358L0.7975 32.0692C1.57083 31.1508 2.2475 30.1842 2.80333 29.145C3.35917 28.1058 3.81833 26.97 4.25333 25.8342C4.66417 24.6742 5.19583 23.5142 5.8 22.4267C6.09 21.895 6.42833 21.3392 6.76667 20.8317C7.105 20.3 7.4675 19.7925 7.87833 19.3333C7.29833 20.4208 6.79083 21.5325 6.35583 22.6925C5.92083 23.8525 5.53417 24.9883 5.22 26.1725C4.88167 27.3808 4.47083 28.5892 3.93917 29.7492C3.64917 30.3292 3.335 30.9092 2.99667 31.4408C2.87583 31.6342 2.755 31.8275 2.63417 31.9967C3.72167 32.0933 4.80917 32.1417 5.89667 32.1417C6.07792 32.1296 6.26521 32.1235 6.4525 32.1175C6.63979 32.1115 6.82708 32.1054 7.00833 32.0933L7.56417 32.0692L8.12 32.0208L8.38583 31.9967L8.65167 31.9725L9.2075 31.9C9.57 31.8517 9.9325 31.7792 10.295 31.7067C11.7692 31.4167 13.1708 30.9092 14.5 30.2325C15.1767 29.87 15.805 29.4833 16.4092 29.0242ZM25.1092 25.4717C25.0608 25.6892 24.94 25.9067 24.7467 26.0275C24.2962 26.3408 23.6395 26.7494 22.9951 27.1503L22.9951 27.1503L22.9943 27.1508C22.8437 27.2445 22.6939 27.3377 22.5475 27.4292L22.5958 27.2842C22.9583 25.81 22.9583 24.6742 22.5958 23.9008C23.6108 23.5867 24.6983 23.0308 25.9308 22.185C25.6167 23.3208 25.2783 24.6742 25.1092 25.4717ZM15.3458 23.4417C15.8533 23.4658 16.3608 23.2483 16.675 22.8375L20.155 18.3667C20.3967 18.0767 20.5417 17.7383 20.6383 17.3758L21.0733 15.5633L19.2608 15.9983C18.9225 16.095 18.5842 16.2642 18.2942 16.4817L13.8475 20.01C13.4367 20.3242 13.2192 20.8317 13.2433 21.3392V21.3875V22.5717L18.3183 18.3667L14.1133 23.4417H15.3217H15.3458ZM9.425 14.0892L9.28 14.1375C9.73917 13.3642 10.2708 12.4942 10.6575 11.9383C10.7783 11.745 10.9958 11.6242 11.2133 11.5758C12.0108 11.4067 13.3642 11.0683 14.5 10.7783C13.6542 12.0108 13.0983 13.1225 12.7842 14.1375C12.035 13.7025 10.8992 13.7025 9.425 14.0892Z" fill="#10D078"/>
</svg>
