<svg width="29" height="30" viewBox="0 0 29 30" fill="none" xmlns="http://www.w3.org/2000/svg">
<path d="M3.5014 5.77169C10.2421 -2.07281 22.7411 -0.524938 27.4119 8.63906C24.1222 8.64087 18.9729 8.63725 16.1835 8.63906C14.1607 8.63906 12.8539 8.59375 11.4402 9.33869C9.77809 10.2141 8.52203 11.8363 8.08522 13.7431L3.5014 5.77169Z" fill="#F44336"/>
<path d="M9.67657 15.2203C9.67657 17.8792 11.8389 20.0415 14.496 20.0415C17.1531 20.0415 19.3154 17.8792 19.3154 15.2203C19.3154 12.5614 17.1531 10.399 14.496 10.399C11.8371 10.3972 9.67657 12.5614 9.67657 15.2203Z" fill="#2196F3"/>
<path d="M16.3647 21.5313C13.6604 22.3343 10.494 21.4443 8.76126 18.4501C7.43813 16.1663 3.94001 10.0745 2.35226 7.30322C-3.21574 15.8365 1.58195 27.4637 11.6884 29.4483L16.3647 21.5313Z" fill="#4CAF50"/>
<path d="M18.9711 10.3972C21.224 12.4924 21.7152 15.8854 20.1891 18.5154C19.0399 20.4983 15.3696 26.6916 13.5916 29.6894C24.0044 30.3311 31.5951 20.1267 28.1659 10.3954L18.9711 10.3972Z" fill="#FFC107"/>
</svg>
