<svg width="78" height="78" viewBox="0 0 78 78" fill="none" xmlns="http://www.w3.org/2000/svg">
<g clip-path="url(#clip0)">
<path d="M11.635 68.887H57.9768L55.7635 61.7207C56.0918 62.0067 74.75 78 74.75 78V8.04375C74.529 3.69525 70.785 0 66.144 0L11.6513 0.00975C7.0135 0.00975 3.25 3.7115 3.25 8.06V60.84C3.25 65.4257 7.007 68.887 11.635 68.887ZM45.916 18.4697L45.8088 18.5088L45.8478 18.4697H45.916ZM21.1153 22.594C27.0725 18.2585 32.5943 18.4665 32.5943 18.4665L33.0395 18.9053C25.7498 20.644 22.4445 23.9005 22.4445 23.9005C22.7825 23.829 37.5018 15.3368 55.3378 24.115C55.3378 24.115 52.026 21.0697 45.1848 19.1197L45.7893 18.525C46.735 18.5282 51.74 18.7038 57.096 22.62C57.096 22.62 63.089 32.8575 63.089 45.435C62.8908 45.1945 59.371 50.8495 50.3133 51.0445C50.3133 51.0445 48.7793 49.309 47.6873 47.7945C52.9848 46.2735 54.9673 43.2315 54.9673 43.2315C44.655 49.725 35.6168 48.711 24.804 44.3235C24.7033 44.3235 24.6578 44.278 24.6058 44.226V44.2065C24.5538 44.1577 24.5083 44.109 24.4075 44.109H24.2125C23.5495 43.6735 23.1075 43.459 23.1075 43.459C23.1075 43.459 25.0868 46.501 30.173 48.022C28.8373 49.5462 27.5145 51.2785 27.5145 51.2785C18.46 51.064 15.158 45.409 15.158 45.409C15.158 32.812 21.1153 22.594 21.1153 22.594Z" fill="#697CE6"/>
<path d="M46.5008 41.5058C48.8116 41.5058 50.6933 39.5558 50.6933 37.1508C50.6933 34.762 48.8213 32.812 46.5008 32.812V32.8218C44.1998 32.8218 42.3148 34.7653 42.3083 37.1703C42.3083 39.5558 44.1901 41.5058 46.5008 41.5058Z" fill="#5C6BC0"/>
<path d="M31.4925 41.5058C33.8033 41.5058 35.685 39.5558 35.685 37.1508C35.685 34.762 33.8163 32.812 31.5056 32.812L31.4925 32.8218C29.1818 32.8218 27.3 34.7653 27.3 37.1703C27.3 39.5558 29.1818 41.5058 31.4925 41.5058Z" fill="#5C6BC0"/>
</g>
<defs>
<clipPath id="clip0">
<rect width="78" height="78" fill="white"/>
</clipPath>
</defs>
</svg>
