<svg width="29" height="31" viewBox="0 0 29 31" fill="none" xmlns="http://www.w3.org/2000/svg">
<path d="M0.0270996 14.0169H0.0447199C0.230711 12.6115 0.573328 11.266 1.06865 9.97666C1.56398 8.6873 2.2355 7.47841 3.08128 6.34625C3.92705 5.21409 4.90399 4.2335 6.01211 3.40263C7.12023 2.57175 8.42413 1.91678 9.92381 1.43771C11.4235 0.958648 13.0367 0.719116 14.7615 0.719116C17.4574 0.719116 19.8714 1.30672 22.0074 2.48379C24.1434 3.66087 25.8564 5.35257 27.1525 7.56075C28.3663 9.64543 28.9733 12.11 28.9733 14.9544V18.0983H9.28361C9.29535 19.3353 9.60664 20.4094 10.2194 21.3189C10.8322 22.2284 11.6291 22.9114 12.608 23.368C13.5869 23.8246 14.693 24.1427 15.9245 24.3205C17.1559 24.4983 18.3972 24.5151 19.6521 24.371C20.9071 24.227 22.119 23.9668 23.2917 23.5926C24.4644 23.2183 25.4766 22.7486 26.3283 22.1797V28.4861C25.2554 29.0999 23.9162 29.6127 22.3128 30.0244C20.7094 30.4361 18.8866 30.6494 16.8447 30.6606C14.8027 30.6719 12.9604 30.3762 11.3139 29.7736C9.10936 28.9596 7.29252 27.571 5.86332 25.6099C4.43412 23.6487 3.70777 21.5715 3.68428 19.3858C3.64904 16.6873 4.29707 14.3912 5.62642 12.4955C6.95577 10.5998 8.85289 9.10461 11.3139 8.01175C10.7539 8.68169 10.2997 9.38157 9.94926 10.1114C9.59881 10.8412 9.33059 11.732 9.1446 12.7799H20.2571C20.3511 11.921 20.3041 11.1406 20.1161 10.4389C19.9302 9.73713 19.6561 9.17011 19.2939 8.74157C18.9317 8.31303 18.5205 7.94064 18.0604 7.62999C17.6004 7.31748 17.1305 7.08917 16.6508 6.94508C16.1731 6.80099 15.7346 6.68496 15.3391 6.60262C14.9436 6.52029 14.6167 6.47163 14.3582 6.4604L13.9745 6.43982C12.4004 6.49596 10.8851 6.74298 9.4324 7.18461C7.97971 7.62625 6.67777 8.20824 5.52266 8.93245C4.36756 9.65666 3.33971 10.4408 2.44303 11.2829C1.54636 12.125 0.737783 13.0363 0.0270996 14.0169Z" fill="#2196F3"/>
</svg>
