<svg width="145" height="27" viewBox="0 0 145 27" fill="none" xmlns="http://www.w3.org/2000/svg">
<path fill-rule="evenodd" clip-rule="evenodd" d="M70.934 0.85498H73.369V8.24898C73.947 7.51998 74.465 7.00798 74.925 6.71098C75.71 6.19798 76.689 5.94098 77.861 5.94098C79.963 5.94098 81.388 6.67498 82.137 8.14098C82.543 8.94098 82.746 10.052 82.746 11.474V20.743H80.243V11.635C80.243 10.575 80.107 9.79598 79.837 9.30098C79.395 8.50998 78.565 8.11398 77.347 8.11398C76.337 8.11398 75.421 8.45998 74.601 9.15298C73.78 9.84498 73.369 11.154 73.369 13.079V20.743H70.934V0.85498ZM66.651 7.06198C65.627 6.26998 64.299 5.87398 62.667 5.87398C60.754 5.87398 59.18 6.57998 57.944 7.99298C56.709 9.40498 56.091 11.379 56.091 13.916C56.091 15.985 56.654 17.71 57.782 19.09C58.91 20.471 60.42 21.162 62.315 21.162C64.002 21.162 65.386 20.718 66.468 19.832C67.551 18.946 68.228 17.545 68.498 15.629H66.13C65.905 16.699 65.496 17.543 64.906 18.159C64.315 18.775 63.514 19.083 62.504 19.083C61.188 19.083 60.222 18.589 59.608 17.599C58.995 16.61 58.688 15.391 58.688 13.943C58.688 12.503 58.905 11.293 59.338 10.313C60.006 8.80198 61.115 8.04598 62.667 8.04598C63.803 8.04598 64.628 8.34098 65.143 8.92998C65.657 9.51998 65.986 10.26 66.13 11.15H68.498C68.291 9.21598 67.675 7.85298 66.651 7.06198ZM36.836 6.68998C35.872 6.20898 34.875 5.96898 33.846 5.96898V5.96998C31.808 5.96998 30.157 6.69398 28.894 8.14198C27.631 9.58998 27 11.475 27 13.795C27 16.151 27.627 17.985 28.88 19.292C30.134 20.601 31.663 21.256 33.466 21.256C34.1356 21.2639 34.8037 21.1914 35.456 21.04C36.547 20.788 37.462 20.303 38.202 19.583C38.644 19.169 39.043 18.636 39.399 17.984C39.756 17.332 39.966 16.74 40.029 16.209H37.634C37.454 16.848 37.147 17.41 36.714 17.896C35.956 18.733 34.941 19.151 33.67 19.151C32.307 19.151 31.302 18.708 30.652 17.822C30.003 16.936 29.655 15.76 29.61 14.294H40.233C40.233 12.836 40.161 11.775 40.017 11.11L39.937 10.7C39.758 9.89698 39.46 9.18398 39.042 8.55998C38.537 7.79498 37.802 7.17198 36.836 6.68998ZM30.883 9.29498C31.641 8.48898 32.579 8.08698 33.698 8.08698C35.259 8.08698 36.372 8.67098 37.039 9.84098C37.4 10.471 37.631 11.312 37.729 12.365H29.679C29.724 11.123 30.126 10.1 30.883 9.29498ZM41.843 6.29198H44.996L48.324 11.379L51.694 6.29198L54.656 6.35998L49.772 13.336L54.873 20.743H51.761L48.161 15.319L44.671 20.743H41.586L46.687 13.336L41.843 6.29198ZM96.182 6.91298C95.118 6.26498 93.733 5.94198 92.028 5.94198C90.558 5.94198 89.265 6.28998 88.151 6.98698C87.037 7.68498 86.458 8.92298 86.413 10.705H88.686C88.776 9.95798 88.97 9.39598 89.268 9.01798C89.8 8.33398 90.702 7.99198 91.974 7.99198C93.074 7.99198 93.92 8.17898 94.511 8.55198C95.102 8.92598 95.397 9.52598 95.397 10.354C95.397 10.758 95.343 11.069 95.235 11.285C95.045 11.68 94.671 11.914 94.112 11.986L90.228 12.472C88.867 12.643 87.766 13.097 86.927 13.835C86.088 14.572 85.669 15.612 85.669 16.952C85.669 18.175 86.095 19.194 86.947 20.008C87.8 20.822 88.898 21.229 90.242 21.229C91.36 21.229 92.384 20.99 93.313 20.514C94.242 20.037 94.955 19.475 95.451 18.827C95.532 19.403 95.672 19.848 95.871 20.163C96.249 20.756 96.858 21.053 97.697 21.053C98.039 21.053 98.311 21.04 98.509 21.013C98.6622 20.9898 98.814 20.9587 98.964 20.92L99.375 20.81V19.016C99.222 19.043 99.077 19.063 98.942 19.077C98.807 19.09 98.685 19.097 98.577 19.097C98.243 19.097 98.024 19.02 97.92 18.867C97.817 18.715 97.765 18.512 97.765 18.26V9.93498C97.765 8.56798 97.237 7.56098 96.182 6.91298ZM95.329 13.39C95.032 13.578 94.649 13.736 94.179 13.862C93.71 13.988 93.25 14.078 92.799 14.132L91.324 14.32C90.44 14.437 89.777 14.622 89.335 14.874C88.587 15.296 88.212 15.971 88.212 16.898C88.212 17.599 88.469 18.152 88.983 18.558C89.498 18.962 90.107 19.164 90.81 19.164C91.667 19.164 92.497 18.966 93.3 18.571C94.653 17.914 95.33 16.839 95.33 15.346V13.39H95.329ZM104.07 6.29198H101.756V6.29298V20.743H104.192V13.174C104.192 12.229 104.253 11.503 104.374 10.995C104.496 10.487 104.76 9.99398 105.166 9.51698C105.671 8.92298 106.257 8.52798 106.925 8.32998C107.295 8.21298 107.768 8.15398 108.346 8.15398C109.482 8.15398 110.267 8.60398 110.7 9.50398C110.962 10.043 111.092 10.754 111.092 11.635V20.743H113.569V11.474C113.569 10.016 113.37 8.89698 112.973 8.11398C112.252 6.68398 110.862 5.96898 108.806 5.96898C107.868 5.96898 107.015 6.15298 106.248 6.52198C105.482 6.89098 104.756 7.49798 104.07 8.34298V6.29198ZM122.282 6.03598C123.419 6.03598 124.411 6.31498 125.259 6.87298C125.719 7.18698 126.188 7.64598 126.666 8.24898V6.42698H128.912V19.569C128.912 21.404 128.642 22.852 128.1 23.914C127.09 25.874 125.182 26.855 122.377 26.855C120.817 26.855 119.504 26.506 118.44 25.809C117.375 25.112 116.78 24.022 116.653 22.537H119.13C119.247 23.185 119.481 23.684 119.833 24.035C120.383 24.575 121.249 24.845 122.431 24.845C124.298 24.845 125.521 24.188 126.098 22.875C126.441 22.101 126.598 20.72 126.571 18.733C126.084 19.47 125.498 20.019 124.812 20.379C124.127 20.739 123.22 20.919 122.092 20.919C120.523 20.919 119.15 20.363 117.972 19.252C116.796 18.142 116.207 16.304 116.207 13.74C116.207 11.32 116.8 9.43198 117.987 8.07298C119.172 6.71498 120.604 6.03598 122.282 6.03598ZM119.211 10.583C119.842 8.98198 121.015 8.18098 122.729 8.18098C123.874 8.18098 124.816 8.61298 125.556 9.47698C126.296 10.34 126.666 11.667 126.666 13.457C126.666 14.644 126.468 15.684 126.071 16.574C125.358 18.148 124.127 18.935 122.377 18.935C121.258 18.935 120.368 18.51 119.705 17.66C119.041 16.81 118.711 15.571 118.711 13.943C118.711 12.557 118.877 11.438 119.211 10.583ZM138.614 5.96898C139.642 5.96898 140.639 6.20898 141.604 6.68998C142.569 7.17198 143.304 7.79498 143.809 8.55998C144.227 9.18398 144.525 9.89698 144.704 10.7L144.784 11.11C144.928 11.775 145 12.836 145 14.294H134.379C134.424 15.76 134.771 16.936 135.42 17.822C136.07 18.708 137.076 19.151 138.438 19.151C139.71 19.151 140.724 18.733 141.482 17.896C141.915 17.41 142.222 16.848 142.402 16.209H144.797C144.734 16.74 144.524 17.332 144.167 17.984C143.812 18.636 143.412 19.169 142.97 19.583C142.23 20.303 141.315 20.788 140.224 21.04C139.572 21.1914 138.904 21.2639 138.234 21.256C136.431 21.256 134.902 20.601 133.648 19.292C132.394 17.984 131.768 16.151 131.768 13.794C131.768 11.474 132.398 9.58898 133.661 8.14098C134.924 6.69298 136.575 5.96898 138.614 5.96898ZM135.65 9.29498C136.408 8.48898 137.346 8.08698 138.464 8.08698H138.465C140.026 8.08698 141.139 8.67098 141.806 9.84098C142.168 10.471 142.398 11.312 142.496 12.365H134.446C134.491 11.123 134.893 10.1 135.65 9.29498Z" fill="black"/>
<path fill-rule="evenodd" clip-rule="evenodd" d="M70.934 0.85498H73.369V8.24898C73.947 7.51998 74.465 7.00798 74.925 6.71098C75.71 6.19798 76.689 5.94098 77.861 5.94098C79.963 5.94098 81.388 6.67498 82.137 8.14098C82.543 8.94098 82.746 10.052 82.746 11.474V20.743H80.243V11.635C80.243 10.575 80.107 9.79598 79.837 9.30098C79.395 8.50998 78.565 8.11398 77.347 8.11398C76.337 8.11398 75.421 8.45998 74.601 9.15298C73.78 9.84498 73.369 11.154 73.369 13.079V20.743H70.934V0.85498ZM66.651 7.06198C65.627 6.26998 64.299 5.87398 62.667 5.87398C60.754 5.87398 59.18 6.57998 57.944 7.99298C56.709 9.40498 56.091 11.379 56.091 13.916C56.091 15.985 56.654 17.71 57.782 19.09C58.91 20.471 60.42 21.162 62.315 21.162C64.002 21.162 65.386 20.718 66.468 19.832C67.551 18.946 68.228 17.545 68.498 15.629H66.13C65.905 16.699 65.496 17.543 64.906 18.159C64.315 18.775 63.514 19.083 62.504 19.083C61.188 19.083 60.222 18.589 59.608 17.599C58.995 16.61 58.688 15.391 58.688 13.943C58.688 12.503 58.905 11.293 59.338 10.313C60.006 8.80198 61.115 8.04598 62.667 8.04598C63.803 8.04598 64.628 8.34098 65.143 8.92998C65.657 9.51998 65.986 10.26 66.13 11.15H68.498C68.291 9.21598 67.675 7.85298 66.651 7.06198ZM36.836 6.68998C35.872 6.20898 34.875 5.96898 33.846 5.96898V5.96998C31.808 5.96998 30.157 6.69398 28.894 8.14198C27.631 9.58998 27 11.475 27 13.795C27 16.151 27.627 17.985 28.88 19.292C30.134 20.601 31.663 21.256 33.466 21.256C34.1356 21.2639 34.8037 21.1914 35.456 21.04C36.547 20.788 37.462 20.303 38.202 19.583C38.644 19.169 39.043 18.636 39.399 17.984C39.756 17.332 39.966 16.74 40.029 16.209H37.634C37.454 16.848 37.147 17.41 36.714 17.896C35.956 18.733 34.941 19.151 33.67 19.151C32.307 19.151 31.302 18.708 30.652 17.822C30.003 16.936 29.655 15.76 29.61 14.294H40.233C40.233 12.836 40.161 11.775 40.017 11.11L39.937 10.7C39.758 9.89698 39.46 9.18398 39.042 8.55998C38.537 7.79498 37.802 7.17198 36.836 6.68998ZM30.883 9.29498C31.641 8.48898 32.579 8.08698 33.698 8.08698C35.259 8.08698 36.372 8.67098 37.039 9.84098C37.4 10.471 37.631 11.312 37.729 12.365H29.679C29.724 11.123 30.126 10.1 30.883 9.29498ZM41.843 6.29198H44.996L48.324 11.379L51.694 6.29198L54.656 6.35998L49.772 13.336L54.873 20.743H51.761L48.161 15.319L44.671 20.743H41.586L46.687 13.336L41.843 6.29198ZM96.182 6.91298C95.118 6.26498 93.733 5.94198 92.028 5.94198C90.558 5.94198 89.265 6.28998 88.151 6.98698C87.037 7.68498 86.458 8.92298 86.413 10.705H88.686C88.776 9.95798 88.97 9.39598 89.268 9.01798C89.8 8.33398 90.702 7.99198 91.974 7.99198C93.074 7.99198 93.92 8.17898 94.511 8.55198C95.102 8.92598 95.397 9.52598 95.397 10.354C95.397 10.758 95.343 11.069 95.235 11.285C95.045 11.68 94.671 11.914 94.112 11.986L90.228 12.472C88.867 12.643 87.766 13.097 86.927 13.835C86.088 14.572 85.669 15.612 85.669 16.952C85.669 18.175 86.095 19.194 86.947 20.008C87.8 20.822 88.898 21.229 90.242 21.229C91.36 21.229 92.384 20.99 93.313 20.514C94.242 20.037 94.955 19.475 95.451 18.827C95.532 19.403 95.672 19.848 95.871 20.163C96.249 20.756 96.858 21.053 97.697 21.053C98.039 21.053 98.311 21.04 98.509 21.013C98.6622 20.9898 98.814 20.9587 98.964 20.92L99.375 20.81V19.016C99.222 19.043 99.077 19.063 98.942 19.077C98.807 19.09 98.685 19.097 98.577 19.097C98.243 19.097 98.024 19.02 97.92 18.867C97.817 18.715 97.765 18.512 97.765 18.26V9.93498C97.765 8.56798 97.237 7.56098 96.182 6.91298ZM95.329 13.39C95.032 13.578 94.649 13.736 94.179 13.862C93.71 13.988 93.25 14.078 92.799 14.132L91.324 14.32C90.44 14.437 89.777 14.622 89.335 14.874C88.587 15.296 88.212 15.971 88.212 16.898C88.212 17.599 88.469 18.152 88.983 18.558C89.498 18.962 90.107 19.164 90.81 19.164C91.667 19.164 92.497 18.966 93.3 18.571C94.653 17.914 95.33 16.839 95.33 15.346V13.39H95.329ZM104.07 6.29198H101.756V6.29298V20.743H104.192V13.174C104.192 12.229 104.253 11.503 104.374 10.995C104.496 10.487 104.76 9.99398 105.166 9.51698C105.671 8.92298 106.257 8.52798 106.925 8.32998C107.295 8.21298 107.768 8.15398 108.346 8.15398C109.482 8.15398 110.267 8.60398 110.7 9.50398C110.962 10.043 111.092 10.754 111.092 11.635V20.743H113.569V11.474C113.569 10.016 113.37 8.89698 112.973 8.11398C112.252 6.68398 110.862 5.96898 108.806 5.96898C107.868 5.96898 107.015 6.15298 106.248 6.52198C105.482 6.89098 104.756 7.49798 104.07 8.34298V6.29198ZM122.282 6.03598C123.419 6.03598 124.411 6.31498 125.259 6.87298C125.719 7.18698 126.188 7.64598 126.666 8.24898V6.42698H128.912V19.569C128.912 21.404 128.642 22.852 128.1 23.914C127.09 25.874 125.182 26.855 122.377 26.855C120.817 26.855 119.504 26.506 118.44 25.809C117.375 25.112 116.78 24.022 116.653 22.537H119.13C119.247 23.185 119.481 23.684 119.833 24.035C120.383 24.575 121.249 24.845 122.431 24.845C124.298 24.845 125.521 24.188 126.098 22.875C126.441 22.101 126.598 20.72 126.571 18.733C126.084 19.47 125.498 20.019 124.812 20.379C124.127 20.739 123.22 20.919 122.092 20.919C120.523 20.919 119.15 20.363 117.972 19.252C116.796 18.142 116.207 16.304 116.207 13.74C116.207 11.32 116.8 9.43198 117.987 8.07298C119.172 6.71498 120.604 6.03598 122.282 6.03598ZM119.211 10.583C119.842 8.98198 121.015 8.18098 122.729 8.18098C123.874 8.18098 124.816 8.61298 125.556 9.47698C126.296 10.34 126.666 11.667 126.666 13.457C126.666 14.644 126.468 15.684 126.071 16.574C125.358 18.148 124.127 18.935 122.377 18.935C121.258 18.935 120.368 18.51 119.705 17.66C119.041 16.81 118.711 15.571 118.711 13.943C118.711 12.557 118.877 11.438 119.211 10.583ZM138.614 5.96898C139.642 5.96898 140.639 6.20898 141.604 6.68998C142.569 7.17198 143.304 7.79498 143.809 8.55998C144.227 9.18398 144.525 9.89698 144.704 10.7L144.784 11.11C144.928 11.775 145 12.836 145 14.294H134.379C134.424 15.76 134.771 16.936 135.42 17.822C136.07 18.708 137.076 19.151 138.438 19.151C139.71 19.151 140.724 18.733 141.482 17.896C141.915 17.41 142.222 16.848 142.402 16.209H144.797C144.734 16.74 144.524 17.332 144.167 17.984C143.812 18.636 143.412 19.169 142.97 19.583C142.23 20.303 141.315 20.788 140.224 21.04C139.572 21.1914 138.904 21.2639 138.234 21.256C136.431 21.256 134.902 20.601 133.648 19.292C132.394 17.984 131.768 16.151 131.768 13.794C131.768 11.474 132.398 9.58898 133.661 8.14098C134.924 6.69298 136.575 5.96898 138.614 5.96898ZM135.65 9.29498C136.408 8.48898 137.346 8.08698 138.464 8.08698H138.465C140.026 8.08698 141.139 8.67098 141.806 9.84098C142.168 10.471 142.398 11.312 142.496 12.365H134.446C134.491 11.123 134.893 10.1 135.65 9.29498Z" fill="white"/>
<path d="M11 13.855L22 24.855H0L11 13.855Z" fill="#5A81EA"/>
<path d="M11 13.855L22 2.85498H0L11 13.855Z" fill="#E14B51"/>
</svg>
