<svg width="29" height="29" viewBox="0 0 29 29" fill="none" xmlns="http://www.w3.org/2000/svg">
<path d="M29 14.4612C29 22.3891 22.5058 28.1955 14.5 28.1955C6.49419 28.1955 0 21.7645 0 13.8365C0 11.3524 0.643438 9.00476 1.76538 6.96937C1.77806 6.93168 1.80344 6.89399 1.82881 6.86886C1.19806 5.93373 0.92075 3.56091 2.52119 1.97424C2.52119 2.63655 2.92537 3.7727 3.3785 4.62168C3.74462 5.29655 4.13431 5.78296 4.41162 5.72014C5.04237 5.57117 7.24819 5.57117 7.56356 5.72014C8.08194 5.05963 9.34344 3.22347 11.3481 3.22347C10.2261 4.3345 7.01075 8.2186 12.6096 8.2186C13.2403 8.2186 13.8711 8.2186 13.8711 8.2186L10.0866 10.7153C10.0866 10.7153 10.5161 11.5391 10.0866 11.9645C9.60806 11.4889 7.56537 12.476 7.56537 13.8365C7.56537 15.1971 9.02806 16.9578 11.9788 16.9578C14.9296 16.9578 14.1846 15.7086 15.7615 15.7086C17.3384 15.7086 17.6519 16.9578 17.6519 16.9578C15.4824 16.9578 13.9073 19.4545 11.3481 19.4545C12.6096 20.3789 13.4415 20.7037 15.1307 20.7037C19.3049 20.7037 22.6961 17.3455 22.6961 13.2119C22.6961 11.5391 22.1415 10.0027 21.2081 8.75527C22.8973 10.0045 24.0319 11.9268 24.2349 14.1112C24.4615 13.2371 24.5884 12.3001 24.5884 11.3399C24.5884 7.58142 22.9753 2.61142 20.1749 0.726807C24.2096 1.92399 29 5.79911 29 13.2119C29 13.3501 29 14.323 29 14.4612Z" fill="#FF6700"/>
</svg>
