<svg width="120" height="37" viewBox="0 0 120 37" fill="none" xmlns="http://www.w3.org/2000/svg">
<path fill-rule="evenodd" clip-rule="evenodd" d="M44.6006 19.83V9.67598V9.6709H47.9703C48.6864 9.6709 49.2672 10.2604 49.2672 10.9872V35.3101H45.9024H45.8824C45.1664 35.2999 44.5956 34.7002 44.6056 33.9735V23.9567H34.6616V35.2948H31.2968C30.5808 35.2948 30 34.7053 30 33.9786V9.6709H33.3647C34.0808 9.6709 34.6616 10.2604 34.6616 10.9872V19.83H44.6006ZM64.3384 28.2104V16.0286H67.7032C68.4192 16.0286 69 16.6181 69 17.3449V28.4187C68.99 32.4184 65.7955 35.6607 61.8549 35.6709H59.9422C56.0067 35.6506 52.8222 32.4184 52.8122 28.4238V16.0286H56.1769C56.8929 16.0286 57.4737 16.6181 57.4737 17.3449V27.9868C57.4737 30.5278 60.2026 32.4641 62.8363 30.9191C63.7776 30.3499 64.3484 29.3183 64.3384 28.2104Z" fill="white"/>
<path d="M115.391 35.6709H119V18.0173C119 17.2739 118.377 16.6709 117.609 16.6709H114V34.3141C113.995 35.0575 114.612 35.6657 115.38 35.6709H115.391Z" fill="#2CA6E0"/>
<path d="M118.976 13.5987C119.53 12.256 118.895 10.7166 117.557 10.1604C116.22 9.60416 114.686 10.2418 114.132 11.5846C113.578 12.9273 114.213 14.4667 115.551 15.0229C116.888 15.5791 118.422 14.9415 118.976 13.5987Z" fill="#2CA6E0"/>
<path fill-rule="evenodd" clip-rule="evenodd" d="M72 24.3184C72 19.2758 76.0508 15.6709 81 15.6709C85.9543 15.6709 90.0051 19.2758 90 24.3184V27.0441C90 32.0867 85.9492 35.6709 81 35.6709C76.0508 35.6709 72 32.0867 72 27.0441V24.3184ZM80.9949 31.342C83.3401 31.342 85.2538 29.7542 85.2538 27.3699V23.9667C85.2538 21.5825 83.335 19.9947 80.9949 19.9947C78.6548 19.9947 76.7411 21.5825 76.7411 23.9667V27.3699C76.7411 29.7542 78.6497 31.342 80.9949 31.342Z" fill="white"/>
<path fill-rule="evenodd" clip-rule="evenodd" d="M97.7259 16.9708C99.0609 16.3248 100.523 15.989 102.005 15.9992C106.964 15.9992 111.005 19.5449 111 24.5048V27.1857C111 32.1456 106.949 35.6709 102 35.6709C97.0508 35.6709 93 32.1456 93 27.1857V9.6709H96.4112C97.1371 9.6709 97.7259 10.261 97.7259 10.9884V16.9708ZM102.005 31.413C104.35 31.413 106.264 29.8513 106.264 27.5062V24.1589C106.264 21.8137 104.345 20.252 102.005 20.252C99.665 20.252 97.7513 21.8137 97.7513 24.1589V27.5062C97.7513 29.8513 99.665 31.413 102.005 31.413Z" fill="#2CA6E0"/>
<path d="M15 11.7477C15 6.58073 12.5503 2.13084 10.6846 0.686534C10.6846 0.686534 10.541 0.605165 10.5559 0.813674C10.4025 10.7967 5.43872 13.5022 2.71188 17.1435C-3.58312 25.5551 2.26648 34.7752 8.23485 36.4789C11.5605 37.435 7.46282 34.7905 6.93329 29.2116C6.28499 22.4783 15 17.3317 15 11.7477Z" fill="white"/>
<path d="M18.4682 15.6944C18.4262 15.6697 18.3684 15.6498 18.3316 15.7142C18.2213 16.9379 16.8972 19.5537 15.2159 21.9614C9.51503 30.1158 12.7621 34.0494 14.5906 36.1648C15.652 37.3884 14.5906 36.1648 17.2388 34.9114C20.5121 33.0387 22.6348 29.7988 22.9501 26.2021C23.4703 20.4058 19.7818 16.7546 18.4682 15.6944V15.6944Z" fill="#2CA6E0"/>
</svg>
