<svg width="46" height="36" viewBox="0 0 46 36" fill="none" xmlns="http://www.w3.org/2000/svg">
<path d="M21.555 0.046902C25.5362 -0.209789 29.5925 0.590721 33.1779 2.36079C38.4543 4.94128 42.6603 9.61178 44.6511 15.1248C45.5287 17.556 45.9996 20.1367 45.9996 22.7172V32.3141C45.9996 32.7087 46.0103 33.1025 45.9141 33.4876C45.6999 34.4579 45.0043 35.311 44.0946 35.7162C43.463 36.0147 42.7354 36.0462 42.0503 35.9401C40.5842 35.6735 39.439 34.298 39.4283 32.8158C39.4176 29.8405 39.4283 26.8655 39.4283 23.8798C39.4496 23.0375 39.4603 22.131 39.0001 21.3846C38.2509 20.0094 36.453 19.3585 34.9973 19.9451C33.7666 20.3822 32.8783 21.6193 32.8676 22.9201C32.8569 25.9485 32.8676 28.9661 32.8676 31.9839C32.8676 32.5492 32.8996 33.1249 32.7285 33.6687C32.418 34.7351 31.5298 35.5989 30.4595 35.8873C29.0576 36.2712 27.4415 35.6528 26.735 34.3623C26.2534 33.584 26.2856 32.6456 26.2963 31.7712C26.2856 28.7749 26.3069 25.7678 26.2856 22.7714C26.2534 21.2465 25.0013 19.871 23.4814 19.679C22.4969 19.5298 21.4586 19.8602 20.7417 20.5534C20.0994 21.1612 19.7249 22.0356 19.7249 22.9207V31.6645C19.7141 32.4003 19.7998 33.1575 19.5225 33.8506C19.0836 35.0974 17.8206 36.0152 16.4829 35.9833C15.1129 36.058 13.7859 35.1196 13.347 33.84C13.0993 33.2091 13.1545 32.5274 13.1545 31.8662C13.1545 28.8486 13.1652 25.8308 13.1545 22.8131C13.1436 21.3202 11.9767 19.9553 10.5108 19.6888C9.1731 19.4009 7.69611 20.0727 7.0327 21.2669C6.74605 21.7671 6.59487 22.3331 6.59399 22.9091V32.7087C6.60466 33.6577 6.16576 34.6067 5.42727 35.2146C4.31428 36.185 2.51618 36.2382 1.34964 35.3429C0.503125 34.7675 0 33.7751 0 32.7507V22.8237C0.0106735 19.0703 0.963187 15.3274 2.76038 12.0217C4.22669 9.32392 6.24949 6.92458 8.66758 5.00526C12.308 2.08357 16.878 0.324129 21.555 0.046902V0.046902Z" fill="#6666DC"/>
</svg>
