<svg xmlns="http://www.w3.org/2000/svg" width="18" height="18" fill="none"><path fill="#fff" d="M12.53 8.27l-1.92-1.44c-.35-.26-.84 0-.84.46v.88H.53c-.3 0-.53.25-.53.56 0 .3.24.56.53.56h9.24v.88c0 .46.49.72.84.46l1.92-1.44c.3-.23.3-.7 0-.92z"/><path fill="#fff" d="M9.79 17.45a8.14 8.14 0 01-7.12-4.36.58.58 0 01.2-.77.51.51 0 01.72.2 7.1 7.1 0 006.2 3.8c3.94 0 7.16-3.4 7.16-7.59 0-4.19-3.22-7.6-7.16-7.6a7.1 7.1 0 00-6.2 3.8.51.51 0 01-.72.2.58.58 0 01-.2-.76A8.14 8.14 0 019.8.02C14.33.02 18 3.92 18 8.73c0 4.82-3.67 8.72-8.21 8.72z"/></svg>