<svg width="29" height="30" viewBox="0 0 29 30" fill="none" xmlns="http://www.w3.org/2000/svg">
<path d="M9.72766 7.04833C11.058 5.47689 12.7763 4.53076 14.654 4.53076C18.8753 4.53076 22.2973 9.31576 22.2973 15.2191C22.2973 21.1224 18.8753 25.9092 14.654 25.9092C12.7763 25.9092 11.058 24.9613 9.72766 23.3916C11.8084 26.0923 14.9005 27.8051 18.3533 27.8051C20.4776 27.8051 22.4641 27.1562 24.1642 26.0288C27.1313 23.3735 29 19.5147 29 15.2191C29 10.9235 27.1313 7.06464 24.1642 4.41114C22.4641 3.28376 20.4776 2.63489 18.3533 2.63489C14.9005 2.63308 11.8066 4.3477 9.72766 7.04833" fill="#D32F2F"/>
<path d="M14.5 0.719116C6.49238 0.719116 0 7.21149 0 15.2191C0 22.9947 6.12263 29.3421 13.8094 29.7028C14.0378 29.7137 14.268 29.7191 14.5 29.7191C18.212 29.7191 21.5977 28.3235 24.1624 26.0289C22.4623 27.1562 20.4758 27.8051 18.3516 27.8051C14.8988 27.8051 11.8066 26.0923 9.72587 23.3917C8.12181 21.4994 7.08325 18.7027 7.01438 15.5617C7.01438 15.5544 7.01438 14.8874 7.01438 14.8784C7.08506 11.7391 8.12362 8.94062 9.72587 7.04837C11.8066 4.34774 14.8988 2.63493 18.3516 2.63493C20.4758 2.63493 22.4623 3.2838 24.1624 4.41118C21.6122 2.12743 18.2464 0.733616 14.5544 0.719116C14.5362 0.719116 14.5181 0.719116 14.5 0.719116V0.719116Z" fill="#F44336"/>
</svg>
