<svg width="145" height="31" viewBox="0 0 145 31" fill="none" xmlns="http://www.w3.org/2000/svg">
<path fill-rule="evenodd" clip-rule="evenodd" d="M17.8294 4.76344L27.2629 0.999712L25.2604 13.3283L27.0698 20.0114L22.0515 23.0995C19.7113 24.523 17.6123 26.3084 15.8269 28.3591L13.7279 30.7476L11.7254 28.4556C9.84356 26.3325 7.67218 24.523 5.25953 23.0754L0.144724 20.0114L2.09897 13.3283L0.0482178 0.975586L9.04739 4.76344H17.8294ZM23.9575 11.3741L25.2845 3.46061L19.277 5.84913L23.9575 11.3741ZM39.3502 12.9664C39.3502 11.0604 41.4733 10.2884 43.4517 10.2884C45.1888 10.3125 46.9983 10.9398 47.8186 12.2909L49.2903 11.3741C47.891 9.0097 45.6955 8.55129 43.3793 8.55129C40.7013 8.55129 37.3718 9.66111 37.4201 12.9182C37.4201 16.0787 40.3394 16.7784 43.3552 17.2368C45.6955 17.5987 47.891 18.1536 47.8669 20.0837C47.8669 22.3758 45.3336 22.9789 43.4517 22.9789C41.5216 22.9789 39.4467 22.0862 38.4334 20.2285L36.8411 21.1694C38.0474 23.7751 40.653 24.7884 43.4276 24.7884C46.4193 24.7884 49.7487 23.6545 49.7728 20.1561C49.7728 16.6337 46.6847 16.0064 43.5723 15.5238C41.2803 15.1378 39.3502 14.6553 39.3502 12.9664ZM127.653 12.2185H129.487V10.3849H127.653V12.2185ZM127.653 24.4748H129.487V13.6178H127.653V24.4748ZM53.0782 8.91319V15.3067C54.0191 13.8591 55.4908 13.3766 56.8901 13.3525C59.9783 13.3525 61.4983 15.4032 61.4983 18.4431V24.4989H59.6888V18.4673C59.6888 16.2959 58.579 15.0896 56.5765 15.0896C54.574 15.0896 53.1023 16.6819 53.1023 18.6844V24.4989H51.2687V8.91319H53.0782ZM64.8278 19.0463C64.8278 16.6095 66.589 15.0413 68.7604 15.0413C74.0682 15.0172 74.0682 23.0754 68.7604 23.0754C66.589 23.0754 64.8278 21.5072 64.8278 19.0463ZM72.7654 24.523L72.7171 22.5205C71.8485 24.0405 70.1838 24.7401 68.6639 24.7401C65.5033 24.7401 63.0183 22.5688 63.0183 18.9739C63.0183 15.4032 65.5274 13.2801 68.688 13.3042C70.3286 13.3042 71.9692 14.0521 72.7654 15.4756L72.7895 13.4731H74.5748V24.4748H72.8136L72.7654 24.523ZM82.0782 15.1137C84.3461 15.1137 85.9625 16.5854 85.9625 19.0463C85.9625 21.5313 84.2978 23.003 82.0782 23.003C79.8344 22.9789 78.2179 21.2901 78.2179 19.0463C78.2179 16.8025 79.7862 15.1137 82.0782 15.1137ZM76.2637 13.5213H78.0008L78.0973 15.6445C78.9659 14.1728 80.5823 13.3283 82.3194 13.3283C85.48 13.4007 87.7961 15.6203 87.7961 18.998C87.7961 22.4723 85.5041 24.716 82.1988 24.716C80.6306 24.716 78.8935 24.0405 78.0249 22.4964V29.6619H76.2396L76.2637 13.5213ZM94.7446 14.8724C96.8918 14.8724 98.3635 16.0305 98.46 18.1777L90.8361 18.1536C91.1497 16.0305 92.8386 14.8724 94.7446 14.8724ZM99.5216 22.7135C98.4118 24.0164 96.4817 24.6678 94.7687 24.6678C91.3669 24.6678 88.9783 22.424 88.9783 18.9257C88.9783 15.5962 91.3669 13.2318 94.6722 13.2318C98.0258 13.2318 100.607 15.3067 100.173 19.6977H90.8119C91.005 21.7243 92.6938 23.003 94.7928 23.003C96.0474 23.003 97.5432 22.5205 98.2911 21.6278L99.5216 22.7135ZM103.72 12.9664C103.72 11.0604 105.843 10.2884 107.821 10.2884C109.558 10.3125 111.368 10.9398 112.212 12.2909L113.684 11.3741C112.284 9.0097 110.089 8.55129 107.773 8.55129C105.095 8.55129 101.765 9.66111 101.814 12.9182C101.814 16.0787 104.733 16.7784 107.725 17.2368C110.065 17.5987 112.26 18.1536 112.236 20.0837C112.236 22.3758 109.703 22.9789 107.821 22.9789C105.891 22.9789 103.816 22.0862 102.803 20.2285L101.21 21.1694C102.417 23.7751 105.047 24.7884 107.797 24.7884C110.789 24.7884 114.118 23.6545 114.142 20.1561C114.142 16.6337 111.054 16.0064 107.942 15.5238C105.65 15.1378 103.72 14.6553 103.72 12.9664ZM117.423 8.91319V15.3067C118.364 13.8591 119.836 13.3766 121.235 13.3525C124.324 13.3525 125.844 15.4032 125.844 18.419V24.4748H124.034V18.4431C124.034 16.2718 122.924 15.0654 120.922 15.0654C118.919 15.0654 117.448 16.6578 117.448 18.6603V24.4989H115.614V8.91319H117.423ZM137.062 10.3608C135.88 10.3608 135.132 11.1087 135.132 12.7493V13.5937H137.328V15.1861H135.132V24.4506H133.323V15.1861H131.151V13.5937H133.323V12.7252C133.323 10.216 134.698 8.7443 137.014 8.7443C137.207 8.7443 137.376 8.76843 137.545 8.79256L137.135 10.3608H137.062ZM144.445 22.9548C144.3 22.9789 144.156 22.9789 144.011 22.9789C142.708 22.9789 142.274 22.1586 142.274 20.8558V15.1861H144.614V13.5937H142.298V10.2643L140.464 10.4573V13.6178H138.269V15.2102H140.464V20.8799C140.464 23.3167 141.574 24.6919 143.938 24.6436C144.228 24.6436 144.517 24.5954 144.783 24.5471L144.445 22.9548ZM23.9817 14.7759L25.1639 19.1187L16.1888 21.5796L23.9817 14.7759ZM9.26452 6.30753L4.46336 12.6045H22.9442L17.6123 6.30753H9.26452ZM22.3411 14.1486L13.6314 21.7485L4.777 14.1486H22.3411ZM3.35354 11.4706L7.64805 5.87326L2.02659 3.50886L3.35354 11.4706ZM11.074 21.5796L2.00246 19.1187L3.23291 14.8966L11.074 21.5796ZM11.0258 25.5363L12.7387 23.6545L6.27284 21.8932C7.98582 22.9307 9.57817 24.1611 11.0258 25.5363ZM21.0382 21.8691C19.3253 22.9307 17.757 24.1611 16.3094 25.5604L14.5723 23.6545L21.0382 21.8691Z" fill="white"/>
</svg>
