<svg width="74" height="74" viewBox="0 0 74 74" fill="none" xmlns="http://www.w3.org/2000/svg">
<path d="M37 74C57.4345 74 74 57.4345 74 37C74 16.5655 57.4345 0 37 0C16.5655 0 0 16.5655 0 37C0 57.4345 16.5655 74 37 74Z" fill="#039BE5"/>
<path d="M16.9307 36.1984L52.6048 22.4436C54.2606 21.8454 55.7067 22.8475 55.1702 25.3512L55.1732 25.3481L49.0991 53.9645C48.6489 55.9934 47.4433 56.4867 45.7567 55.5309L36.5067 48.7136L32.0452 53.0118C31.5518 53.5051 31.1356 53.9214 30.1797 53.9214L30.8365 44.508L47.9798 29.0204C48.726 28.3636 47.8133 27.9936 46.8297 28.6473L25.6442 41.9858L16.5113 39.1368C14.5287 38.5078 14.4856 37.1542 16.9307 36.1984Z" fill="white"/>
</svg>
